%TF.GenerationSoftware,KiCad,Pcbnew,7.0.1*%
%TF.CreationDate,2023-09-04T23:27:21+05:00*%
%TF.ProjectId,smartcar_control_v1,736d6172-7463-4617-925f-636f6e74726f,rev?*%
%TF.SameCoordinates,Original*%
%TF.FileFunction,Legend,Bot*%
%TF.FilePolarity,Positive*%
%FSLAX46Y46*%
G04 Gerber Fmt 4.6, Leading zero omitted, Abs format (unit mm)*
G04 Created by KiCad (PCBNEW 7.0.1) date 2023-09-04 23:27:21*
%MOMM*%
%LPD*%
G01*
G04 APERTURE LIST*
%ADD10R,1.700000X1.700000*%
%ADD11O,1.700000X1.700000*%
%ADD12O,1.800000X1.800000*%
%ADD13O,1.500000X1.500000*%
%ADD14C,3.200000*%
%ADD15C,1.600000*%
%ADD16O,1.600000X1.600000*%
%ADD17R,2.200000X2.200000*%
%ADD18O,2.200000X2.200000*%
G04 APERTURE END LIST*
%LPC*%
D10*
%TO.C,J6*%
X104800000Y-45500000D03*
D11*
X104800000Y-42960000D03*
X107340000Y-45500000D03*
X107340000Y-42960000D03*
X109880000Y-45500000D03*
X109880000Y-42960000D03*
X112420000Y-45500000D03*
X112420000Y-42960000D03*
X114960000Y-45500000D03*
X114960000Y-42960000D03*
X117500000Y-45500000D03*
X117500000Y-42960000D03*
X120040000Y-45500000D03*
X120040000Y-42960000D03*
X122580000Y-45500000D03*
X122580000Y-42960000D03*
X125120000Y-45500000D03*
X125120000Y-42960000D03*
X127660000Y-45500000D03*
X127660000Y-42960000D03*
X130200000Y-45500000D03*
X130200000Y-42960000D03*
X132740000Y-45500000D03*
X132740000Y-42960000D03*
X135280000Y-45500000D03*
X135280000Y-42960000D03*
X137820000Y-45500000D03*
X137820000Y-42960000D03*
X140360000Y-45500000D03*
X140360000Y-42960000D03*
X142900000Y-45500000D03*
X142900000Y-42960000D03*
X145440000Y-45500000D03*
X145440000Y-42960000D03*
X147980000Y-45500000D03*
X147980000Y-42960000D03*
X150520000Y-45500000D03*
X150520000Y-42960000D03*
X153060000Y-45500000D03*
X153060000Y-42960000D03*
%TD*%
D10*
%TO.C,J7*%
X104800000Y-138500000D03*
D11*
X104800000Y-135960000D03*
X107340000Y-138500000D03*
X107340000Y-135960000D03*
X109880000Y-138500000D03*
X109880000Y-135960000D03*
X112420000Y-138500000D03*
X112420000Y-135960000D03*
X114960000Y-138500000D03*
X114960000Y-135960000D03*
X117500000Y-138500000D03*
X117500000Y-135960000D03*
X120040000Y-138500000D03*
X120040000Y-135960000D03*
X122580000Y-138500000D03*
X122580000Y-135960000D03*
X125120000Y-138500000D03*
X125120000Y-135960000D03*
X127660000Y-138500000D03*
X127660000Y-135960000D03*
X130200000Y-138500000D03*
X130200000Y-135960000D03*
X132740000Y-138500000D03*
X132740000Y-135960000D03*
X135280000Y-138500000D03*
X135280000Y-135960000D03*
X137820000Y-138500000D03*
X137820000Y-135960000D03*
X140360000Y-138500000D03*
X140360000Y-135960000D03*
X142900000Y-138500000D03*
X142900000Y-135960000D03*
X145440000Y-138500000D03*
X145440000Y-135960000D03*
X147980000Y-138500000D03*
X147980000Y-135960000D03*
X150520000Y-138500000D03*
X150520000Y-135960000D03*
X153060000Y-138500000D03*
X153060000Y-135960000D03*
%TD*%
D12*
%TO.C,U3*%
X165730000Y-68845000D03*
D13*
X162700000Y-69145000D03*
X162700000Y-73995000D03*
D12*
X165730000Y-74295000D03*
D11*
X165860000Y-62680000D03*
X163320000Y-62680000D03*
D10*
X160780000Y-62680000D03*
D11*
X158240000Y-62680000D03*
X155700000Y-62680000D03*
X153160000Y-62680000D03*
X150620000Y-62680000D03*
D10*
X148080000Y-62680000D03*
D11*
X145540000Y-62680000D03*
X143000000Y-62680000D03*
X140460000Y-62680000D03*
X137920000Y-62680000D03*
D10*
X135380000Y-62680000D03*
D11*
X132840000Y-62680000D03*
X130300000Y-62680000D03*
X127760000Y-62680000D03*
X125220000Y-62680000D03*
D10*
X122680000Y-62680000D03*
D11*
X120140000Y-62680000D03*
X117600000Y-62680000D03*
X117600000Y-80460000D03*
X120140000Y-80460000D03*
D10*
X122680000Y-80460000D03*
D11*
X125220000Y-80460000D03*
X127760000Y-80460000D03*
X130300000Y-80460000D03*
X132840000Y-80460000D03*
D10*
X135380000Y-80460000D03*
D11*
X137920000Y-80460000D03*
X140460000Y-80460000D03*
X143000000Y-80460000D03*
X145540000Y-80460000D03*
D10*
X148080000Y-80460000D03*
D11*
X150620000Y-80460000D03*
X153160000Y-80460000D03*
X155700000Y-80460000D03*
X158240000Y-80460000D03*
D10*
X160780000Y-80460000D03*
D11*
X163320000Y-80460000D03*
X165860000Y-80460000D03*
X117830000Y-69030000D03*
D10*
X117830000Y-71570000D03*
D11*
X117830000Y-74110000D03*
%TD*%
D10*
%TO.C,J1*%
X173520000Y-95310000D03*
D11*
X173520000Y-92770000D03*
X173520000Y-90230000D03*
X173520000Y-87690000D03*
X173520000Y-85150000D03*
%TD*%
D14*
%TO.C,H4*%
X155060000Y-53210000D03*
%TD*%
%TO.C,H1*%
X98660000Y-127510000D03*
%TD*%
%TO.C,H2*%
X98660000Y-53210000D03*
%TD*%
%TO.C,H3*%
X155060000Y-127510000D03*
%TD*%
D15*
%TO.C,R1*%
X139260000Y-101550000D03*
D16*
X146880000Y-101550000D03*
%TD*%
D15*
%TO.C,R2*%
X135290000Y-92300000D03*
D16*
X142910000Y-92300000D03*
%TD*%
D10*
%TO.C,U1*%
X91500000Y-101600000D03*
D11*
X94040000Y-101600000D03*
X96580000Y-101600000D03*
X99120000Y-101600000D03*
X101660000Y-101600000D03*
X104200000Y-101600000D03*
X106740000Y-101600000D03*
X109280000Y-101600000D03*
X109280000Y-78740000D03*
X106740000Y-78740000D03*
X104200000Y-78740000D03*
X101660000Y-78740000D03*
X99120000Y-78740000D03*
X96580000Y-78740000D03*
X94040000Y-78740000D03*
D10*
X91500000Y-78740000D03*
%TD*%
D17*
%TO.C,D1*%
X141330000Y-119930000D03*
D18*
X133710000Y-119930000D03*
%TD*%
M02*
