%TF.GenerationSoftware,KiCad,Pcbnew,7.0.1*%
%TF.CreationDate,2023-09-04T23:27:21+05:00*%
%TF.ProjectId,smartcar_control_v1,736d6172-7463-4617-925f-636f6e74726f,rev?*%
%TF.SameCoordinates,Original*%
%TF.FileFunction,Legend,Top*%
%TF.FilePolarity,Positive*%
%FSLAX46Y46*%
G04 Gerber Fmt 4.6, Leading zero omitted, Abs format (unit mm)*
G04 Created by KiCad (PCBNEW 7.0.1) date 2023-09-04 23:27:21*
%MOMM*%
%LPD*%
G01*
G04 APERTURE LIST*
G04 Aperture macros list*
%AMRoundRect*
0 Rectangle with rounded corners*
0 $1 Rounding radius*
0 $2 $3 $4 $5 $6 $7 $8 $9 X,Y pos of 4 corners*
0 Add a 4 corners polygon primitive as box body*
4,1,4,$2,$3,$4,$5,$6,$7,$8,$9,$2,$3,0*
0 Add four circle primitives for the rounded corners*
1,1,$1+$1,$2,$3*
1,1,$1+$1,$4,$5*
1,1,$1+$1,$6,$7*
1,1,$1+$1,$8,$9*
0 Add four rect primitives between the rounded corners*
20,1,$1+$1,$2,$3,$4,$5,0*
20,1,$1+$1,$4,$5,$6,$7,0*
20,1,$1+$1,$6,$7,$8,$9,0*
20,1,$1+$1,$8,$9,$2,$3,0*%
G04 Aperture macros list end*
%ADD10C,0.150000*%
%ADD11C,0.100000*%
%ADD12C,0.250000*%
%ADD13C,0.120000*%
%ADD14R,1.700000X1.700000*%
%ADD15O,1.700000X1.700000*%
%ADD16RoundRect,0.200000X-0.200000X-0.275000X0.200000X-0.275000X0.200000X0.275000X-0.200000X0.275000X0*%
%ADD17O,1.800000X1.800000*%
%ADD18O,1.500000X1.500000*%
%ADD19R,1.700000X3.500000*%
%ADD20R,3.500000X1.700000*%
%ADD21C,3.200000*%
%ADD22C,1.600000*%
%ADD23O,1.600000X1.600000*%
%ADD24R,2.200000X2.200000*%
%ADD25O,2.200000X2.200000*%
G04 APERTURE END LIST*
D10*
X169354285Y-83966905D02*
X169240000Y-83885953D01*
X169240000Y-83885953D02*
X169068571Y-83885953D01*
X169068571Y-83885953D02*
X168897142Y-83966905D01*
X168897142Y-83966905D02*
X168782857Y-84128810D01*
X168782857Y-84128810D02*
X168725714Y-84290715D01*
X168725714Y-84290715D02*
X168668571Y-84614524D01*
X168668571Y-84614524D02*
X168668571Y-84857381D01*
X168668571Y-84857381D02*
X168725714Y-85181191D01*
X168725714Y-85181191D02*
X168782857Y-85343096D01*
X168782857Y-85343096D02*
X168897142Y-85505001D01*
X168897142Y-85505001D02*
X169068571Y-85585953D01*
X169068571Y-85585953D02*
X169182857Y-85585953D01*
X169182857Y-85585953D02*
X169354285Y-85505001D01*
X169354285Y-85505001D02*
X169411428Y-85424048D01*
X169411428Y-85424048D02*
X169411428Y-84857381D01*
X169411428Y-84857381D02*
X169182857Y-84857381D01*
X169925714Y-85585953D02*
X169925714Y-83885953D01*
X169925714Y-83885953D02*
X170611428Y-85585953D01*
X170611428Y-85585953D02*
X170611428Y-83885953D01*
X171182857Y-85585953D02*
X171182857Y-83885953D01*
X171182857Y-83885953D02*
X171468571Y-83885953D01*
X171468571Y-83885953D02*
X171640000Y-83966905D01*
X171640000Y-83966905D02*
X171754285Y-84128810D01*
X171754285Y-84128810D02*
X171811428Y-84290715D01*
X171811428Y-84290715D02*
X171868571Y-84614524D01*
X171868571Y-84614524D02*
X171868571Y-84857381D01*
X171868571Y-84857381D02*
X171811428Y-85181191D01*
X171811428Y-85181191D02*
X171754285Y-85343096D01*
X171754285Y-85343096D02*
X171640000Y-85505001D01*
X171640000Y-85505001D02*
X171468571Y-85585953D01*
X171468571Y-85585953D02*
X171182857Y-85585953D01*
X168725714Y-88339953D02*
X168725714Y-86639953D01*
X169297143Y-88339953D02*
X169297143Y-86639953D01*
X169297143Y-86639953D02*
X169982857Y-88339953D01*
X169982857Y-88339953D02*
X169982857Y-86639953D01*
X170382857Y-86639953D02*
X171068572Y-86639953D01*
X170725714Y-88339953D02*
X170725714Y-86639953D01*
X168668571Y-91013001D02*
X168840000Y-91093953D01*
X168840000Y-91093953D02*
X169125714Y-91093953D01*
X169125714Y-91093953D02*
X169240000Y-91013001D01*
X169240000Y-91013001D02*
X169297142Y-90932048D01*
X169297142Y-90932048D02*
X169354285Y-90770143D01*
X169354285Y-90770143D02*
X169354285Y-90608239D01*
X169354285Y-90608239D02*
X169297142Y-90446334D01*
X169297142Y-90446334D02*
X169240000Y-90365381D01*
X169240000Y-90365381D02*
X169125714Y-90284429D01*
X169125714Y-90284429D02*
X168897142Y-90203477D01*
X168897142Y-90203477D02*
X168782857Y-90122524D01*
X168782857Y-90122524D02*
X168725714Y-90041572D01*
X168725714Y-90041572D02*
X168668571Y-89879667D01*
X168668571Y-89879667D02*
X168668571Y-89717762D01*
X168668571Y-89717762D02*
X168725714Y-89555858D01*
X168725714Y-89555858D02*
X168782857Y-89474905D01*
X168782857Y-89474905D02*
X168897142Y-89393953D01*
X168897142Y-89393953D02*
X169182857Y-89393953D01*
X169182857Y-89393953D02*
X169354285Y-89474905D01*
X170554285Y-90932048D02*
X170497142Y-91013001D01*
X170497142Y-91013001D02*
X170325714Y-91093953D01*
X170325714Y-91093953D02*
X170211428Y-91093953D01*
X170211428Y-91093953D02*
X170039999Y-91013001D01*
X170039999Y-91013001D02*
X169925714Y-90851096D01*
X169925714Y-90851096D02*
X169868571Y-90689191D01*
X169868571Y-90689191D02*
X169811428Y-90365381D01*
X169811428Y-90365381D02*
X169811428Y-90122524D01*
X169811428Y-90122524D02*
X169868571Y-89798715D01*
X169868571Y-89798715D02*
X169925714Y-89636810D01*
X169925714Y-89636810D02*
X170039999Y-89474905D01*
X170039999Y-89474905D02*
X170211428Y-89393953D01*
X170211428Y-89393953D02*
X170325714Y-89393953D01*
X170325714Y-89393953D02*
X170497142Y-89474905D01*
X170497142Y-89474905D02*
X170554285Y-89555858D01*
X171639999Y-91093953D02*
X171068571Y-91093953D01*
X171068571Y-91093953D02*
X171068571Y-89393953D01*
X168668571Y-93767001D02*
X168840000Y-93847953D01*
X168840000Y-93847953D02*
X169125714Y-93847953D01*
X169125714Y-93847953D02*
X169240000Y-93767001D01*
X169240000Y-93767001D02*
X169297142Y-93686048D01*
X169297142Y-93686048D02*
X169354285Y-93524143D01*
X169354285Y-93524143D02*
X169354285Y-93362239D01*
X169354285Y-93362239D02*
X169297142Y-93200334D01*
X169297142Y-93200334D02*
X169240000Y-93119381D01*
X169240000Y-93119381D02*
X169125714Y-93038429D01*
X169125714Y-93038429D02*
X168897142Y-92957477D01*
X168897142Y-92957477D02*
X168782857Y-92876524D01*
X168782857Y-92876524D02*
X168725714Y-92795572D01*
X168725714Y-92795572D02*
X168668571Y-92633667D01*
X168668571Y-92633667D02*
X168668571Y-92471762D01*
X168668571Y-92471762D02*
X168725714Y-92309858D01*
X168725714Y-92309858D02*
X168782857Y-92228905D01*
X168782857Y-92228905D02*
X168897142Y-92147953D01*
X168897142Y-92147953D02*
X169182857Y-92147953D01*
X169182857Y-92147953D02*
X169354285Y-92228905D01*
X169868571Y-93847953D02*
X169868571Y-92147953D01*
X169868571Y-92147953D02*
X170154285Y-92147953D01*
X170154285Y-92147953D02*
X170325714Y-92228905D01*
X170325714Y-92228905D02*
X170439999Y-92390810D01*
X170439999Y-92390810D02*
X170497142Y-92552715D01*
X170497142Y-92552715D02*
X170554285Y-92876524D01*
X170554285Y-92876524D02*
X170554285Y-93119381D01*
X170554285Y-93119381D02*
X170497142Y-93443191D01*
X170497142Y-93443191D02*
X170439999Y-93605096D01*
X170439999Y-93605096D02*
X170325714Y-93767001D01*
X170325714Y-93767001D02*
X170154285Y-93847953D01*
X170154285Y-93847953D02*
X169868571Y-93847953D01*
X171011428Y-93362239D02*
X171582857Y-93362239D01*
X170897142Y-93847953D02*
X171297142Y-92147953D01*
X171297142Y-92147953D02*
X171697142Y-93847953D01*
X168611428Y-94901953D02*
X169354285Y-94901953D01*
X169354285Y-94901953D02*
X168954285Y-95549572D01*
X168954285Y-95549572D02*
X169125714Y-95549572D01*
X169125714Y-95549572D02*
X169240000Y-95630524D01*
X169240000Y-95630524D02*
X169297142Y-95711477D01*
X169297142Y-95711477D02*
X169354285Y-95873381D01*
X169354285Y-95873381D02*
X169354285Y-96278143D01*
X169354285Y-96278143D02*
X169297142Y-96440048D01*
X169297142Y-96440048D02*
X169240000Y-96521001D01*
X169240000Y-96521001D02*
X169125714Y-96601953D01*
X169125714Y-96601953D02*
X168782857Y-96601953D01*
X168782857Y-96601953D02*
X168668571Y-96521001D01*
X168668571Y-96521001D02*
X168611428Y-96440048D01*
X169754285Y-95468620D02*
X170039999Y-96601953D01*
X170039999Y-96601953D02*
X170325714Y-95468620D01*
X170668571Y-94901953D02*
X171411428Y-94901953D01*
X171411428Y-94901953D02*
X171011428Y-95549572D01*
X171011428Y-95549572D02*
X171182857Y-95549572D01*
X171182857Y-95549572D02*
X171297143Y-95630524D01*
X171297143Y-95630524D02*
X171354285Y-95711477D01*
X171354285Y-95711477D02*
X171411428Y-95873381D01*
X171411428Y-95873381D02*
X171411428Y-96278143D01*
X171411428Y-96278143D02*
X171354285Y-96440048D01*
X171354285Y-96440048D02*
X171297143Y-96521001D01*
X171297143Y-96521001D02*
X171182857Y-96601953D01*
X171182857Y-96601953D02*
X170840000Y-96601953D01*
X170840000Y-96601953D02*
X170725714Y-96521001D01*
X170725714Y-96521001D02*
X170668571Y-96440048D01*
D11*
X99565000Y-99559523D02*
X99612619Y-99416666D01*
X99612619Y-99416666D02*
X99612619Y-99178571D01*
X99612619Y-99178571D02*
X99565000Y-99083333D01*
X99565000Y-99083333D02*
X99517380Y-99035714D01*
X99517380Y-99035714D02*
X99422142Y-98988095D01*
X99422142Y-98988095D02*
X99326904Y-98988095D01*
X99326904Y-98988095D02*
X99231666Y-99035714D01*
X99231666Y-99035714D02*
X99184047Y-99083333D01*
X99184047Y-99083333D02*
X99136428Y-99178571D01*
X99136428Y-99178571D02*
X99088809Y-99369047D01*
X99088809Y-99369047D02*
X99041190Y-99464285D01*
X99041190Y-99464285D02*
X98993571Y-99511904D01*
X98993571Y-99511904D02*
X98898333Y-99559523D01*
X98898333Y-99559523D02*
X98803095Y-99559523D01*
X98803095Y-99559523D02*
X98707857Y-99511904D01*
X98707857Y-99511904D02*
X98660238Y-99464285D01*
X98660238Y-99464285D02*
X98612619Y-99369047D01*
X98612619Y-99369047D02*
X98612619Y-99130952D01*
X98612619Y-99130952D02*
X98660238Y-98988095D01*
X99517380Y-97988095D02*
X99565000Y-98035714D01*
X99565000Y-98035714D02*
X99612619Y-98178571D01*
X99612619Y-98178571D02*
X99612619Y-98273809D01*
X99612619Y-98273809D02*
X99565000Y-98416666D01*
X99565000Y-98416666D02*
X99469761Y-98511904D01*
X99469761Y-98511904D02*
X99374523Y-98559523D01*
X99374523Y-98559523D02*
X99184047Y-98607142D01*
X99184047Y-98607142D02*
X99041190Y-98607142D01*
X99041190Y-98607142D02*
X98850714Y-98559523D01*
X98850714Y-98559523D02*
X98755476Y-98511904D01*
X98755476Y-98511904D02*
X98660238Y-98416666D01*
X98660238Y-98416666D02*
X98612619Y-98273809D01*
X98612619Y-98273809D02*
X98612619Y-98178571D01*
X98612619Y-98178571D02*
X98660238Y-98035714D01*
X98660238Y-98035714D02*
X98707857Y-97988095D01*
X99612619Y-97559523D02*
X98612619Y-97559523D01*
X99612619Y-96988095D02*
X99041190Y-97416666D01*
X98612619Y-96988095D02*
X99184047Y-97559523D01*
X102015000Y-82989523D02*
X102062619Y-82846666D01*
X102062619Y-82846666D02*
X102062619Y-82608571D01*
X102062619Y-82608571D02*
X102015000Y-82513333D01*
X102015000Y-82513333D02*
X101967380Y-82465714D01*
X101967380Y-82465714D02*
X101872142Y-82418095D01*
X101872142Y-82418095D02*
X101776904Y-82418095D01*
X101776904Y-82418095D02*
X101681666Y-82465714D01*
X101681666Y-82465714D02*
X101634047Y-82513333D01*
X101634047Y-82513333D02*
X101586428Y-82608571D01*
X101586428Y-82608571D02*
X101538809Y-82799047D01*
X101538809Y-82799047D02*
X101491190Y-82894285D01*
X101491190Y-82894285D02*
X101443571Y-82941904D01*
X101443571Y-82941904D02*
X101348333Y-82989523D01*
X101348333Y-82989523D02*
X101253095Y-82989523D01*
X101253095Y-82989523D02*
X101157857Y-82941904D01*
X101157857Y-82941904D02*
X101110238Y-82894285D01*
X101110238Y-82894285D02*
X101062619Y-82799047D01*
X101062619Y-82799047D02*
X101062619Y-82560952D01*
X101062619Y-82560952D02*
X101110238Y-82418095D01*
X101967380Y-81418095D02*
X102015000Y-81465714D01*
X102015000Y-81465714D02*
X102062619Y-81608571D01*
X102062619Y-81608571D02*
X102062619Y-81703809D01*
X102062619Y-81703809D02*
X102015000Y-81846666D01*
X102015000Y-81846666D02*
X101919761Y-81941904D01*
X101919761Y-81941904D02*
X101824523Y-81989523D01*
X101824523Y-81989523D02*
X101634047Y-82037142D01*
X101634047Y-82037142D02*
X101491190Y-82037142D01*
X101491190Y-82037142D02*
X101300714Y-81989523D01*
X101300714Y-81989523D02*
X101205476Y-81941904D01*
X101205476Y-81941904D02*
X101110238Y-81846666D01*
X101110238Y-81846666D02*
X101062619Y-81703809D01*
X101062619Y-81703809D02*
X101062619Y-81608571D01*
X101062619Y-81608571D02*
X101110238Y-81465714D01*
X101110238Y-81465714D02*
X101157857Y-81418095D01*
X102062619Y-80513333D02*
X102062619Y-80989523D01*
X102062619Y-80989523D02*
X101062619Y-80989523D01*
X91706904Y-99559523D02*
X91706904Y-99083333D01*
X91992619Y-99654761D02*
X90992619Y-99321428D01*
X90992619Y-99321428D02*
X91992619Y-98988095D01*
X91992619Y-98654761D02*
X90992619Y-98654761D01*
X90992619Y-98654761D02*
X91992619Y-98083333D01*
X91992619Y-98083333D02*
X90992619Y-98083333D01*
X96977380Y-98940476D02*
X97025000Y-98988095D01*
X97025000Y-98988095D02*
X97072619Y-99130952D01*
X97072619Y-99130952D02*
X97072619Y-99226190D01*
X97072619Y-99226190D02*
X97025000Y-99369047D01*
X97025000Y-99369047D02*
X96929761Y-99464285D01*
X96929761Y-99464285D02*
X96834523Y-99511904D01*
X96834523Y-99511904D02*
X96644047Y-99559523D01*
X96644047Y-99559523D02*
X96501190Y-99559523D01*
X96501190Y-99559523D02*
X96310714Y-99511904D01*
X96310714Y-99511904D02*
X96215476Y-99464285D01*
X96215476Y-99464285D02*
X96120238Y-99369047D01*
X96120238Y-99369047D02*
X96072619Y-99226190D01*
X96072619Y-99226190D02*
X96072619Y-99130952D01*
X96072619Y-99130952D02*
X96120238Y-98988095D01*
X96120238Y-98988095D02*
X96167857Y-98940476D01*
X97025000Y-98559523D02*
X97072619Y-98416666D01*
X97072619Y-98416666D02*
X97072619Y-98178571D01*
X97072619Y-98178571D02*
X97025000Y-98083333D01*
X97025000Y-98083333D02*
X96977380Y-98035714D01*
X96977380Y-98035714D02*
X96882142Y-97988095D01*
X96882142Y-97988095D02*
X96786904Y-97988095D01*
X96786904Y-97988095D02*
X96691666Y-98035714D01*
X96691666Y-98035714D02*
X96644047Y-98083333D01*
X96644047Y-98083333D02*
X96596428Y-98178571D01*
X96596428Y-98178571D02*
X96548809Y-98369047D01*
X96548809Y-98369047D02*
X96501190Y-98464285D01*
X96501190Y-98464285D02*
X96453571Y-98511904D01*
X96453571Y-98511904D02*
X96358333Y-98559523D01*
X96358333Y-98559523D02*
X96263095Y-98559523D01*
X96263095Y-98559523D02*
X96167857Y-98511904D01*
X96167857Y-98511904D02*
X96120238Y-98464285D01*
X96120238Y-98464285D02*
X96072619Y-98369047D01*
X96072619Y-98369047D02*
X96072619Y-98130952D01*
X96072619Y-98130952D02*
X96120238Y-97988095D01*
X106232619Y-99607142D02*
X106232619Y-98988095D01*
X106232619Y-98988095D02*
X106613571Y-99321428D01*
X106613571Y-99321428D02*
X106613571Y-99178571D01*
X106613571Y-99178571D02*
X106661190Y-99083333D01*
X106661190Y-99083333D02*
X106708809Y-99035714D01*
X106708809Y-99035714D02*
X106804047Y-98988095D01*
X106804047Y-98988095D02*
X107042142Y-98988095D01*
X107042142Y-98988095D02*
X107137380Y-99035714D01*
X107137380Y-99035714D02*
X107185000Y-99083333D01*
X107185000Y-99083333D02*
X107232619Y-99178571D01*
X107232619Y-99178571D02*
X107232619Y-99464285D01*
X107232619Y-99464285D02*
X107185000Y-99559523D01*
X107185000Y-99559523D02*
X107137380Y-99607142D01*
X106565952Y-98654761D02*
X107232619Y-98416666D01*
X107232619Y-98416666D02*
X106565952Y-98178571D01*
X106232619Y-97892856D02*
X106232619Y-97273809D01*
X106232619Y-97273809D02*
X106613571Y-97607142D01*
X106613571Y-97607142D02*
X106613571Y-97464285D01*
X106613571Y-97464285D02*
X106661190Y-97369047D01*
X106661190Y-97369047D02*
X106708809Y-97321428D01*
X106708809Y-97321428D02*
X106804047Y-97273809D01*
X106804047Y-97273809D02*
X107042142Y-97273809D01*
X107042142Y-97273809D02*
X107137380Y-97321428D01*
X107137380Y-97321428D02*
X107185000Y-97369047D01*
X107185000Y-97369047D02*
X107232619Y-97464285D01*
X107232619Y-97464285D02*
X107232619Y-97749999D01*
X107232619Y-97749999D02*
X107185000Y-97845237D01*
X107185000Y-97845237D02*
X107137380Y-97892856D01*
X104692619Y-99511904D02*
X103692619Y-99511904D01*
X103692619Y-99511904D02*
X104406904Y-99178571D01*
X104406904Y-99178571D02*
X103692619Y-98845238D01*
X103692619Y-98845238D02*
X104692619Y-98845238D01*
X103692619Y-98178571D02*
X103692619Y-97988095D01*
X103692619Y-97988095D02*
X103740238Y-97892857D01*
X103740238Y-97892857D02*
X103835476Y-97797619D01*
X103835476Y-97797619D02*
X104025952Y-97750000D01*
X104025952Y-97750000D02*
X104359285Y-97750000D01*
X104359285Y-97750000D02*
X104549761Y-97797619D01*
X104549761Y-97797619D02*
X104645000Y-97892857D01*
X104645000Y-97892857D02*
X104692619Y-97988095D01*
X104692619Y-97988095D02*
X104692619Y-98178571D01*
X104692619Y-98178571D02*
X104645000Y-98273809D01*
X104645000Y-98273809D02*
X104549761Y-98369047D01*
X104549761Y-98369047D02*
X104359285Y-98416666D01*
X104359285Y-98416666D02*
X104025952Y-98416666D01*
X104025952Y-98416666D02*
X103835476Y-98369047D01*
X103835476Y-98369047D02*
X103740238Y-98273809D01*
X103740238Y-98273809D02*
X103692619Y-98178571D01*
X104645000Y-97369047D02*
X104692619Y-97226190D01*
X104692619Y-97226190D02*
X104692619Y-96988095D01*
X104692619Y-96988095D02*
X104645000Y-96892857D01*
X104645000Y-96892857D02*
X104597380Y-96845238D01*
X104597380Y-96845238D02*
X104502142Y-96797619D01*
X104502142Y-96797619D02*
X104406904Y-96797619D01*
X104406904Y-96797619D02*
X104311666Y-96845238D01*
X104311666Y-96845238D02*
X104264047Y-96892857D01*
X104264047Y-96892857D02*
X104216428Y-96988095D01*
X104216428Y-96988095D02*
X104168809Y-97178571D01*
X104168809Y-97178571D02*
X104121190Y-97273809D01*
X104121190Y-97273809D02*
X104073571Y-97321428D01*
X104073571Y-97321428D02*
X103978333Y-97369047D01*
X103978333Y-97369047D02*
X103883095Y-97369047D01*
X103883095Y-97369047D02*
X103787857Y-97321428D01*
X103787857Y-97321428D02*
X103740238Y-97273809D01*
X103740238Y-97273809D02*
X103692619Y-97178571D01*
X103692619Y-97178571D02*
X103692619Y-96940476D01*
X103692619Y-96940476D02*
X103740238Y-96797619D01*
X104692619Y-96369047D02*
X103692619Y-96369047D01*
D12*
G36*
X126924051Y-69299874D02*
G01*
X126990600Y-69366424D01*
X127063571Y-69512366D01*
X127063571Y-70024777D01*
X126990600Y-70170716D01*
X126924049Y-70237268D01*
X126778111Y-70310238D01*
X126456174Y-70310238D01*
X126361190Y-70262746D01*
X126361190Y-69274396D01*
X126456175Y-69226904D01*
X126778111Y-69226904D01*
X126924051Y-69299874D01*
G37*
G36*
X136352623Y-68633208D02*
G01*
X136504272Y-68784857D01*
X136587381Y-69117292D01*
X136587381Y-69753183D01*
X136504272Y-70085617D01*
X136352621Y-70237268D01*
X136206683Y-70310238D01*
X135884746Y-70310238D01*
X135738805Y-70237267D01*
X135587157Y-70085618D01*
X135504048Y-69753183D01*
X135504048Y-69117292D01*
X135587157Y-68784857D01*
X135738807Y-68633207D01*
X135884747Y-68560238D01*
X136206683Y-68560238D01*
X136352623Y-68633208D01*
G37*
G36*
X131400242Y-68633208D02*
G01*
X131466792Y-68699759D01*
X131539762Y-68845699D01*
X131539762Y-69072396D01*
X131466791Y-69218335D01*
X131400240Y-69284887D01*
X131254302Y-69357857D01*
X130646905Y-69357857D01*
X130646905Y-68560238D01*
X131254302Y-68560238D01*
X131400242Y-68633208D01*
G37*
G36*
X125114527Y-68633208D02*
G01*
X125181077Y-68699759D01*
X125254047Y-68845699D01*
X125254047Y-69072396D01*
X125181076Y-69218335D01*
X125114525Y-69284887D01*
X124968587Y-69357857D01*
X124718835Y-69357857D01*
X124688758Y-69354740D01*
X124682590Y-69357857D01*
X124361190Y-69357857D01*
X124361190Y-68560238D01*
X124968587Y-68560238D01*
X125114527Y-68633208D01*
G37*
G36*
X137979048Y-71340714D02*
G01*
X123099286Y-71340714D01*
X123099286Y-69501397D01*
X124107239Y-69501397D01*
X124111190Y-69510049D01*
X124111190Y-70453210D01*
X124126594Y-70505671D01*
X124182071Y-70553742D01*
X124254730Y-70564189D01*
X124321503Y-70533695D01*
X124361190Y-70471941D01*
X124361190Y-69607857D01*
X124647298Y-69607857D01*
X125286949Y-70521644D01*
X125329653Y-70555788D01*
X125402668Y-70563355D01*
X125468184Y-70530246D01*
X125505399Y-70466973D01*
X125502499Y-70393623D01*
X124952462Y-69607857D01*
X124991370Y-69607857D01*
X125021169Y-69611074D01*
X125044016Y-69599650D01*
X125068528Y-69592453D01*
X125076261Y-69583527D01*
X125230457Y-69506430D01*
X125251007Y-69501960D01*
X125275358Y-69477608D01*
X125300581Y-69454146D01*
X125301185Y-69451780D01*
X125361115Y-69391850D01*
X125379198Y-69381110D01*
X125394603Y-69350298D01*
X125411109Y-69320071D01*
X125410934Y-69317636D01*
X125468886Y-69201733D01*
X126105994Y-69201733D01*
X126111190Y-69217368D01*
X126111190Y-70337792D01*
X126109974Y-70372275D01*
X126111190Y-70374322D01*
X126111190Y-71119876D01*
X126126594Y-71172337D01*
X126182071Y-71220408D01*
X126254730Y-71230855D01*
X126321503Y-71200361D01*
X126361190Y-71138607D01*
X126361190Y-70542254D01*
X126364749Y-70544034D01*
X126389963Y-70560238D01*
X126415509Y-70560238D01*
X126440651Y-70564762D01*
X126451559Y-70560238D01*
X126800894Y-70560238D01*
X126830693Y-70563455D01*
X126853540Y-70552031D01*
X126878052Y-70544834D01*
X126885785Y-70535908D01*
X127039981Y-70458811D01*
X127060531Y-70454341D01*
X127061662Y-70453210D01*
X127920714Y-70453210D01*
X127936118Y-70505671D01*
X127991595Y-70553742D01*
X128064254Y-70564189D01*
X128131027Y-70533695D01*
X128170714Y-70471941D01*
X128170714Y-69501397D01*
X130392954Y-69501397D01*
X130396905Y-69510049D01*
X130396905Y-70453210D01*
X130412309Y-70505671D01*
X130467786Y-70553742D01*
X130540445Y-70564189D01*
X130607218Y-70533695D01*
X130646905Y-70471941D01*
X130646905Y-70453210D01*
X132396905Y-70453210D01*
X132412309Y-70505671D01*
X132467786Y-70553742D01*
X132540445Y-70564189D01*
X132607218Y-70533695D01*
X132646905Y-70471941D01*
X132646905Y-69572805D01*
X133248878Y-69572805D01*
X133254048Y-69593485D01*
X133254048Y-69596067D01*
X133258392Y-69610863D01*
X133347618Y-69967766D01*
X133346069Y-69982121D01*
X133356346Y-70002675D01*
X133357377Y-70006799D01*
X133364353Y-70018690D01*
X133450713Y-70191409D01*
X133455183Y-70211958D01*
X133479528Y-70236304D01*
X133502997Y-70261533D01*
X133505362Y-70262137D01*
X133666855Y-70423632D01*
X133685652Y-70446979D01*
X133709888Y-70455057D01*
X133732307Y-70467299D01*
X133744085Y-70466456D01*
X133991321Y-70548868D01*
X134009012Y-70560238D01*
X134043449Y-70560238D01*
X134077876Y-70561483D01*
X134079976Y-70560238D01*
X134220520Y-70560238D01*
X134240900Y-70565430D01*
X134273580Y-70554536D01*
X134306624Y-70544834D01*
X134308222Y-70542989D01*
X134555051Y-70460712D01*
X134584341Y-70454341D01*
X134602404Y-70436276D01*
X134623381Y-70421699D01*
X134627895Y-70410785D01*
X134718240Y-70320440D01*
X134744443Y-70272452D01*
X134739206Y-70199233D01*
X134695215Y-70140468D01*
X134626437Y-70114816D01*
X134554707Y-70130420D01*
X134454381Y-70230746D01*
X134215907Y-70310238D01*
X134066000Y-70310238D01*
X133827521Y-70230745D01*
X133672256Y-70075480D01*
X133592226Y-69915420D01*
X133554191Y-69763281D01*
X135248878Y-69763281D01*
X135254048Y-69783961D01*
X135254048Y-69786543D01*
X135258392Y-69801339D01*
X135352555Y-70177988D01*
X135359945Y-70211958D01*
X135374574Y-70226587D01*
X135385045Y-70244434D01*
X135399997Y-70252010D01*
X135565292Y-70417307D01*
X135576032Y-70435389D01*
X135606841Y-70450793D01*
X135637069Y-70467299D01*
X135639503Y-70467124D01*
X135793321Y-70544034D01*
X135818535Y-70560238D01*
X135844081Y-70560238D01*
X135869223Y-70564762D01*
X135880131Y-70560238D01*
X136229466Y-70560238D01*
X136259265Y-70563455D01*
X136282112Y-70552031D01*
X136306624Y-70544834D01*
X136314357Y-70535908D01*
X136468553Y-70458811D01*
X136489103Y-70454341D01*
X136513456Y-70429987D01*
X136538677Y-70406527D01*
X136539281Y-70404161D01*
X136704168Y-70239273D01*
X136729509Y-70215447D01*
X136734527Y-70195371D01*
X136744442Y-70177215D01*
X136743246Y-70160497D01*
X136828660Y-69818843D01*
X136837381Y-69805274D01*
X136837381Y-69783961D01*
X136838008Y-69781453D01*
X136837381Y-69766030D01*
X136837381Y-69122476D01*
X136842551Y-69107194D01*
X136837381Y-69086514D01*
X136837381Y-69083932D01*
X136833036Y-69069135D01*
X136738874Y-68692489D01*
X136731484Y-68658517D01*
X136716854Y-68643887D01*
X136706384Y-68626041D01*
X136691430Y-68618463D01*
X136526137Y-68453170D01*
X136515397Y-68435087D01*
X136484583Y-68419680D01*
X136454359Y-68403176D01*
X136451923Y-68403350D01*
X136298107Y-68326441D01*
X136272894Y-68310238D01*
X136247348Y-68310238D01*
X136222207Y-68305714D01*
X136211299Y-68310238D01*
X135861969Y-68310238D01*
X135832165Y-68307020D01*
X135809314Y-68318445D01*
X135784805Y-68325642D01*
X135777071Y-68334566D01*
X135622876Y-68411664D01*
X135602327Y-68416135D01*
X135577975Y-68440486D01*
X135552752Y-68463949D01*
X135552146Y-68466315D01*
X135387261Y-68631200D01*
X135361920Y-68655028D01*
X135356901Y-68675101D01*
X135346986Y-68693260D01*
X135348181Y-68709980D01*
X135262768Y-69051631D01*
X135254048Y-69065201D01*
X135254048Y-69086514D01*
X135253421Y-69089022D01*
X135254048Y-69104445D01*
X135254048Y-69747999D01*
X135248878Y-69763281D01*
X133554191Y-69763281D01*
X133504048Y-69562707D01*
X133504048Y-69307768D01*
X133592226Y-68955054D01*
X133672256Y-68794995D01*
X133827522Y-68639730D01*
X134065999Y-68560238D01*
X134215906Y-68560238D01*
X134454383Y-68639730D01*
X134541463Y-68726811D01*
X134589451Y-68753014D01*
X134662670Y-68747777D01*
X134721435Y-68703786D01*
X134747088Y-68635008D01*
X134731484Y-68563279D01*
X134615052Y-68446847D01*
X134596253Y-68423497D01*
X134572016Y-68415417D01*
X134549597Y-68403176D01*
X134537817Y-68404018D01*
X134290585Y-68321607D01*
X134272894Y-68310238D01*
X134238457Y-68310238D01*
X134204030Y-68308993D01*
X134201930Y-68310238D01*
X134061386Y-68310238D01*
X134041006Y-68305046D01*
X134008325Y-68315939D01*
X133975282Y-68325642D01*
X133973683Y-68327486D01*
X133726853Y-68409763D01*
X133697565Y-68416135D01*
X133679502Y-68434197D01*
X133658524Y-68448777D01*
X133654008Y-68459691D01*
X133492218Y-68621481D01*
X133474135Y-68632222D01*
X133458728Y-68663035D01*
X133442224Y-68693260D01*
X133442398Y-68695695D01*
X133372438Y-68835613D01*
X133361920Y-68845504D01*
X133356346Y-68867798D01*
X133354445Y-68871601D01*
X133352003Y-68885171D01*
X133262768Y-69242107D01*
X133254048Y-69255677D01*
X133254048Y-69276990D01*
X133253421Y-69279498D01*
X133254048Y-69294921D01*
X133254048Y-69557523D01*
X133248878Y-69572805D01*
X132646905Y-69572805D01*
X132646905Y-68417266D01*
X132631501Y-68364805D01*
X132576024Y-68316734D01*
X132503365Y-68306287D01*
X132436592Y-68336781D01*
X132396905Y-68398535D01*
X132396905Y-70453210D01*
X130646905Y-70453210D01*
X130646905Y-69607857D01*
X131277085Y-69607857D01*
X131306884Y-69611074D01*
X131329731Y-69599650D01*
X131354243Y-69592453D01*
X131361976Y-69583527D01*
X131516172Y-69506430D01*
X131536722Y-69501960D01*
X131561073Y-69477608D01*
X131586296Y-69454146D01*
X131586900Y-69451780D01*
X131646830Y-69391850D01*
X131664913Y-69381110D01*
X131680318Y-69350298D01*
X131696824Y-69320071D01*
X131696649Y-69317636D01*
X131773558Y-69163820D01*
X131789762Y-69138607D01*
X131789762Y-69113061D01*
X131794286Y-69087919D01*
X131789762Y-69077011D01*
X131789762Y-68822921D01*
X131792980Y-68793117D01*
X131781554Y-68770266D01*
X131774358Y-68745757D01*
X131765433Y-68738023D01*
X131688335Y-68583828D01*
X131683865Y-68563279D01*
X131659513Y-68538927D01*
X131636051Y-68513704D01*
X131633684Y-68513098D01*
X131573756Y-68453170D01*
X131563016Y-68435087D01*
X131532202Y-68419680D01*
X131501978Y-68403176D01*
X131499542Y-68403350D01*
X131345726Y-68326441D01*
X131320513Y-68310238D01*
X131294967Y-68310238D01*
X131269826Y-68305714D01*
X131258918Y-68310238D01*
X130530844Y-68310238D01*
X130503365Y-68306287D01*
X130478110Y-68317820D01*
X130451472Y-68325642D01*
X130445243Y-68332829D01*
X130436592Y-68336781D01*
X130421581Y-68360137D01*
X130403401Y-68381119D01*
X130402047Y-68390533D01*
X130396905Y-68398535D01*
X130396905Y-68426299D01*
X130392954Y-68453778D01*
X130396905Y-68462430D01*
X130396905Y-69473918D01*
X130392954Y-69501397D01*
X128170714Y-69501397D01*
X128170714Y-69083932D01*
X128155310Y-69031471D01*
X128099833Y-68983400D01*
X128027174Y-68972953D01*
X127960401Y-69003447D01*
X127920714Y-69065201D01*
X127920714Y-70453210D01*
X127061662Y-70453210D01*
X127084882Y-70429989D01*
X127110105Y-70406527D01*
X127110709Y-70404161D01*
X127170639Y-70344231D01*
X127188722Y-70333491D01*
X127204127Y-70302679D01*
X127220633Y-70272452D01*
X127220458Y-70270017D01*
X127297367Y-70116201D01*
X127313571Y-70090988D01*
X127313571Y-70065442D01*
X127318095Y-70040300D01*
X127313571Y-70029392D01*
X127313571Y-69489588D01*
X127316789Y-69459784D01*
X127305363Y-69436933D01*
X127298167Y-69412424D01*
X127289242Y-69404690D01*
X127212144Y-69250494D01*
X127207674Y-69229945D01*
X127183322Y-69205593D01*
X127159860Y-69180370D01*
X127157493Y-69179764D01*
X127097565Y-69119836D01*
X127086825Y-69101753D01*
X127056011Y-69086346D01*
X127025787Y-69069842D01*
X127023351Y-69070016D01*
X126869535Y-68993107D01*
X126844322Y-68976904D01*
X126818776Y-68976904D01*
X126793635Y-68972380D01*
X126782727Y-68976904D01*
X126433397Y-68976904D01*
X126403593Y-68973686D01*
X126380742Y-68985111D01*
X126356233Y-68992308D01*
X126348499Y-69001232D01*
X126324650Y-69013157D01*
X126290309Y-68983400D01*
X126217650Y-68972953D01*
X126150877Y-69003447D01*
X126111190Y-69065201D01*
X126111190Y-69181414D01*
X126105994Y-69201733D01*
X125468886Y-69201733D01*
X125487843Y-69163820D01*
X125504047Y-69138607D01*
X125504047Y-69113061D01*
X125508571Y-69087919D01*
X125504047Y-69077011D01*
X125504047Y-68822921D01*
X125507265Y-68793117D01*
X125495839Y-68770266D01*
X125488643Y-68745757D01*
X125479718Y-68738023D01*
X125402620Y-68583828D01*
X125398150Y-68563279D01*
X125373798Y-68538927D01*
X125357292Y-68521182D01*
X127820531Y-68521182D01*
X127826432Y-68548308D01*
X127828413Y-68576003D01*
X127834113Y-68583617D01*
X127836135Y-68592911D01*
X127855765Y-68612541D01*
X127872404Y-68634768D01*
X127881315Y-68638091D01*
X127934766Y-68691542D01*
X127936118Y-68696147D01*
X127953700Y-68711382D01*
X127967642Y-68730006D01*
X127980900Y-68734951D01*
X127991595Y-68744218D01*
X128005601Y-68746231D01*
X128018022Y-68753014D01*
X128027509Y-68752335D01*
X128036420Y-68755659D01*
X128050247Y-68752651D01*
X128064254Y-68754665D01*
X128077126Y-68748786D01*
X128091241Y-68747777D01*
X128098855Y-68742076D01*
X128108149Y-68740055D01*
X128118154Y-68730049D01*
X128131027Y-68724171D01*
X128138677Y-68712266D01*
X128150006Y-68703786D01*
X128153329Y-68694874D01*
X128223020Y-68625184D01*
X128245244Y-68608548D01*
X128254945Y-68582537D01*
X128268252Y-68558168D01*
X128267573Y-68548680D01*
X128270897Y-68539770D01*
X128264995Y-68512643D01*
X128263015Y-68484949D01*
X128257314Y-68477334D01*
X128255293Y-68468041D01*
X128235662Y-68448410D01*
X128219024Y-68426184D01*
X128210111Y-68422859D01*
X128156662Y-68369410D01*
X128155310Y-68364805D01*
X128137727Y-68349569D01*
X128123786Y-68330946D01*
X128110527Y-68326000D01*
X128099833Y-68316734D01*
X128085826Y-68314720D01*
X128073406Y-68307938D01*
X128063918Y-68308616D01*
X128055008Y-68305293D01*
X128041180Y-68308300D01*
X128027174Y-68306287D01*
X128014301Y-68312165D01*
X128000187Y-68313175D01*
X127992572Y-68318875D01*
X127983279Y-68320897D01*
X127973273Y-68330902D01*
X127960401Y-68336781D01*
X127952750Y-68348685D01*
X127941422Y-68357166D01*
X127938097Y-68366078D01*
X127868410Y-68435765D01*
X127846184Y-68452404D01*
X127836481Y-68478417D01*
X127823176Y-68502784D01*
X127823854Y-68512271D01*
X127820531Y-68521182D01*
X125357292Y-68521182D01*
X125350336Y-68513704D01*
X125347969Y-68513098D01*
X125288041Y-68453170D01*
X125277301Y-68435087D01*
X125246487Y-68419680D01*
X125216263Y-68403176D01*
X125213827Y-68403350D01*
X125060011Y-68326441D01*
X125034798Y-68310238D01*
X125009252Y-68310238D01*
X124984111Y-68305714D01*
X124973203Y-68310238D01*
X124245129Y-68310238D01*
X124217650Y-68306287D01*
X124192395Y-68317820D01*
X124165757Y-68325642D01*
X124159528Y-68332829D01*
X124150877Y-68336781D01*
X124135866Y-68360137D01*
X124117686Y-68381119D01*
X124116332Y-68390533D01*
X124111190Y-68398535D01*
X124111190Y-68426299D01*
X124107239Y-68453778D01*
X124111190Y-68462430D01*
X124111190Y-69473918D01*
X124107239Y-69501397D01*
X123099286Y-69501397D01*
X123099286Y-67394286D01*
X137979048Y-67394286D01*
X137979048Y-71340714D01*
G37*
D11*
X94442619Y-82465713D02*
X93442619Y-82465713D01*
X94442619Y-81989523D02*
X93442619Y-81989523D01*
X93442619Y-81989523D02*
X94442619Y-81418095D01*
X94442619Y-81418095D02*
X93442619Y-81418095D01*
X93442619Y-81084761D02*
X93442619Y-80513333D01*
X94442619Y-80799047D02*
X93442619Y-80799047D01*
X108730238Y-82703809D02*
X108682619Y-82799047D01*
X108682619Y-82799047D02*
X108682619Y-82941904D01*
X108682619Y-82941904D02*
X108730238Y-83084761D01*
X108730238Y-83084761D02*
X108825476Y-83179999D01*
X108825476Y-83179999D02*
X108920714Y-83227618D01*
X108920714Y-83227618D02*
X109111190Y-83275237D01*
X109111190Y-83275237D02*
X109254047Y-83275237D01*
X109254047Y-83275237D02*
X109444523Y-83227618D01*
X109444523Y-83227618D02*
X109539761Y-83179999D01*
X109539761Y-83179999D02*
X109635000Y-83084761D01*
X109635000Y-83084761D02*
X109682619Y-82941904D01*
X109682619Y-82941904D02*
X109682619Y-82846666D01*
X109682619Y-82846666D02*
X109635000Y-82703809D01*
X109635000Y-82703809D02*
X109587380Y-82656190D01*
X109587380Y-82656190D02*
X109254047Y-82656190D01*
X109254047Y-82656190D02*
X109254047Y-82846666D01*
X109682619Y-82227618D02*
X108682619Y-82227618D01*
X108682619Y-82227618D02*
X109682619Y-81656190D01*
X109682619Y-81656190D02*
X108682619Y-81656190D01*
X109682619Y-81179999D02*
X108682619Y-81179999D01*
X108682619Y-81179999D02*
X108682619Y-80941904D01*
X108682619Y-80941904D02*
X108730238Y-80799047D01*
X108730238Y-80799047D02*
X108825476Y-80703809D01*
X108825476Y-80703809D02*
X108920714Y-80656190D01*
X108920714Y-80656190D02*
X109111190Y-80608571D01*
X109111190Y-80608571D02*
X109254047Y-80608571D01*
X109254047Y-80608571D02*
X109444523Y-80656190D01*
X109444523Y-80656190D02*
X109539761Y-80703809D01*
X109539761Y-80703809D02*
X109635000Y-80799047D01*
X109635000Y-80799047D02*
X109682619Y-80941904D01*
X109682619Y-80941904D02*
X109682619Y-81179999D01*
X94532619Y-98940476D02*
X94056428Y-99273809D01*
X94532619Y-99511904D02*
X93532619Y-99511904D01*
X93532619Y-99511904D02*
X93532619Y-99130952D01*
X93532619Y-99130952D02*
X93580238Y-99035714D01*
X93580238Y-99035714D02*
X93627857Y-98988095D01*
X93627857Y-98988095D02*
X93723095Y-98940476D01*
X93723095Y-98940476D02*
X93865952Y-98940476D01*
X93865952Y-98940476D02*
X93961190Y-98988095D01*
X93961190Y-98988095D02*
X94008809Y-99035714D01*
X94008809Y-99035714D02*
X94056428Y-99130952D01*
X94056428Y-99130952D02*
X94056428Y-99511904D01*
X94485000Y-98559523D02*
X94532619Y-98416666D01*
X94532619Y-98416666D02*
X94532619Y-98178571D01*
X94532619Y-98178571D02*
X94485000Y-98083333D01*
X94485000Y-98083333D02*
X94437380Y-98035714D01*
X94437380Y-98035714D02*
X94342142Y-97988095D01*
X94342142Y-97988095D02*
X94246904Y-97988095D01*
X94246904Y-97988095D02*
X94151666Y-98035714D01*
X94151666Y-98035714D02*
X94104047Y-98083333D01*
X94104047Y-98083333D02*
X94056428Y-98178571D01*
X94056428Y-98178571D02*
X94008809Y-98369047D01*
X94008809Y-98369047D02*
X93961190Y-98464285D01*
X93961190Y-98464285D02*
X93913571Y-98511904D01*
X93913571Y-98511904D02*
X93818333Y-98559523D01*
X93818333Y-98559523D02*
X93723095Y-98559523D01*
X93723095Y-98559523D02*
X93627857Y-98511904D01*
X93627857Y-98511904D02*
X93580238Y-98464285D01*
X93580238Y-98464285D02*
X93532619Y-98369047D01*
X93532619Y-98369047D02*
X93532619Y-98130952D01*
X93532619Y-98130952D02*
X93580238Y-97988095D01*
X93532619Y-97702380D02*
X93532619Y-97130952D01*
X94532619Y-97416666D02*
X93532619Y-97416666D01*
X108820238Y-98988095D02*
X108772619Y-99083333D01*
X108772619Y-99083333D02*
X108772619Y-99226190D01*
X108772619Y-99226190D02*
X108820238Y-99369047D01*
X108820238Y-99369047D02*
X108915476Y-99464285D01*
X108915476Y-99464285D02*
X109010714Y-99511904D01*
X109010714Y-99511904D02*
X109201190Y-99559523D01*
X109201190Y-99559523D02*
X109344047Y-99559523D01*
X109344047Y-99559523D02*
X109534523Y-99511904D01*
X109534523Y-99511904D02*
X109629761Y-99464285D01*
X109629761Y-99464285D02*
X109725000Y-99369047D01*
X109725000Y-99369047D02*
X109772619Y-99226190D01*
X109772619Y-99226190D02*
X109772619Y-99130952D01*
X109772619Y-99130952D02*
X109725000Y-98988095D01*
X109725000Y-98988095D02*
X109677380Y-98940476D01*
X109677380Y-98940476D02*
X109344047Y-98940476D01*
X109344047Y-98940476D02*
X109344047Y-99130952D01*
X109772619Y-98511904D02*
X108772619Y-98511904D01*
X108772619Y-98511904D02*
X109772619Y-97940476D01*
X109772619Y-97940476D02*
X108772619Y-97940476D01*
X109772619Y-97464285D02*
X108772619Y-97464285D01*
X108772619Y-97464285D02*
X108772619Y-97226190D01*
X108772619Y-97226190D02*
X108820238Y-97083333D01*
X108820238Y-97083333D02*
X108915476Y-96988095D01*
X108915476Y-96988095D02*
X109010714Y-96940476D01*
X109010714Y-96940476D02*
X109201190Y-96892857D01*
X109201190Y-96892857D02*
X109344047Y-96892857D01*
X109344047Y-96892857D02*
X109534523Y-96940476D01*
X109534523Y-96940476D02*
X109629761Y-96988095D01*
X109629761Y-96988095D02*
X109725000Y-97083333D01*
X109725000Y-97083333D02*
X109772619Y-97226190D01*
X109772619Y-97226190D02*
X109772619Y-97464285D01*
D12*
G36*
X99670242Y-88779874D02*
G01*
X99736791Y-88846424D01*
X99809762Y-88992366D01*
X99809762Y-89504777D01*
X99736791Y-89650716D01*
X99670240Y-89717268D01*
X99524302Y-89790238D01*
X99297603Y-89790238D01*
X99151664Y-89717268D01*
X99085112Y-89650716D01*
X99012143Y-89504777D01*
X99012143Y-88992366D01*
X99085113Y-88846424D01*
X99151664Y-88779873D01*
X99297604Y-88706904D01*
X99524302Y-88706904D01*
X99670242Y-88779874D01*
G37*
G36*
X101676764Y-89072111D02*
G01*
X101736792Y-89132140D01*
X101809762Y-89278080D01*
X101809762Y-89504777D01*
X101736791Y-89650716D01*
X101670240Y-89717268D01*
X101524302Y-89790238D01*
X100916905Y-89790238D01*
X100916905Y-88992619D01*
X101438287Y-88992619D01*
X101676764Y-89072111D01*
G37*
G36*
X101575004Y-88113208D02*
G01*
X101641554Y-88179759D01*
X101714524Y-88325699D01*
X101714524Y-88457158D01*
X101641553Y-88603098D01*
X101575003Y-88669648D01*
X101431206Y-88741547D01*
X101426411Y-88741374D01*
X101424311Y-88742619D01*
X100916905Y-88742619D01*
X100916905Y-88040238D01*
X101429064Y-88040238D01*
X101575004Y-88113208D01*
G37*
G36*
X107201429Y-90820714D02*
G01*
X91369286Y-90820714D01*
X91369286Y-88744688D01*
X92378890Y-88744688D01*
X92381190Y-88776845D01*
X92381190Y-89933210D01*
X92396594Y-89985671D01*
X92452071Y-90033742D01*
X92524730Y-90044189D01*
X92591503Y-90013695D01*
X92631190Y-89951941D01*
X92631190Y-88824156D01*
X92675473Y-88779873D01*
X92821413Y-88706904D01*
X93048111Y-88706904D01*
X93174925Y-88770311D01*
X93238333Y-88897128D01*
X93238333Y-89933210D01*
X93253737Y-89985671D01*
X93309214Y-90033742D01*
X93381873Y-90044189D01*
X93448646Y-90013695D01*
X93488333Y-89951941D01*
X93488333Y-88897128D01*
X93551740Y-88770311D01*
X93678556Y-88706904D01*
X93905252Y-88706904D01*
X94032068Y-88770311D01*
X94095476Y-88897128D01*
X94095476Y-89933210D01*
X94110880Y-89985671D01*
X94166357Y-90033742D01*
X94239016Y-90044189D01*
X94305789Y-90013695D01*
X94345476Y-89951941D01*
X94345476Y-89933210D01*
X95047857Y-89933210D01*
X95063261Y-89985671D01*
X95118738Y-90033742D01*
X95191397Y-90044189D01*
X95258170Y-90013695D01*
X95297857Y-89951941D01*
X95297857Y-89316117D01*
X95997938Y-89316117D01*
X96000238Y-89348274D01*
X96000238Y-89933210D01*
X96015642Y-89985671D01*
X96071119Y-90033742D01*
X96143778Y-90044189D01*
X96210551Y-90013695D01*
X96250238Y-89951941D01*
X96250238Y-89395585D01*
X96302189Y-89343633D01*
X96797926Y-90004615D01*
X96841726Y-90037342D01*
X96914950Y-90042512D01*
X96979345Y-90007274D01*
X97014467Y-89942815D01*
X97009165Y-89869600D01*
X96480761Y-89165061D01*
X96668980Y-88976842D01*
X97614762Y-88976842D01*
X97619286Y-88987750D01*
X97619286Y-89933210D01*
X97634690Y-89985671D01*
X97690167Y-90033742D01*
X97762826Y-90044189D01*
X97829599Y-90013695D01*
X97869286Y-89951941D01*
X97869286Y-88992366D01*
X97877048Y-88976842D01*
X98757619Y-88976842D01*
X98762143Y-88987750D01*
X98762143Y-89527560D01*
X98758926Y-89557359D01*
X98770349Y-89580206D01*
X98777547Y-89604718D01*
X98786472Y-89612451D01*
X98863568Y-89766645D01*
X98868039Y-89787196D01*
X98892396Y-89811553D01*
X98915854Y-89836771D01*
X98918218Y-89837375D01*
X98978148Y-89897305D01*
X98988889Y-89915389D01*
X99019698Y-89930793D01*
X99049926Y-89947300D01*
X99052362Y-89947125D01*
X99206178Y-90024034D01*
X99231392Y-90040238D01*
X99256938Y-90040238D01*
X99282080Y-90044762D01*
X99292988Y-90040238D01*
X99547085Y-90040238D01*
X99576884Y-90043455D01*
X99599731Y-90032031D01*
X99624243Y-90024834D01*
X99631976Y-90015908D01*
X99786172Y-89938811D01*
X99806722Y-89934341D01*
X99807285Y-89933778D01*
X100662954Y-89933778D01*
X100674487Y-89959032D01*
X100682309Y-89985671D01*
X100689496Y-89991899D01*
X100693448Y-90000551D01*
X100716804Y-90015561D01*
X100737786Y-90033742D01*
X100747200Y-90035095D01*
X100755202Y-90040238D01*
X100782966Y-90040238D01*
X100810445Y-90044189D01*
X100819097Y-90040238D01*
X101547085Y-90040238D01*
X101576884Y-90043455D01*
X101599731Y-90032031D01*
X101624243Y-90024834D01*
X101631976Y-90015908D01*
X101786172Y-89938811D01*
X101806722Y-89934341D01*
X101831073Y-89909989D01*
X101856296Y-89886527D01*
X101856900Y-89884161D01*
X101916830Y-89824231D01*
X101934913Y-89813491D01*
X101950318Y-89782679D01*
X101966824Y-89752452D01*
X101966649Y-89750017D01*
X102043558Y-89596201D01*
X102059762Y-89570988D01*
X102059762Y-89557359D01*
X102663688Y-89557359D01*
X102675111Y-89580206D01*
X102682309Y-89604718D01*
X102691234Y-89612451D01*
X102768330Y-89766645D01*
X102772801Y-89787196D01*
X102797158Y-89811553D01*
X102820616Y-89836771D01*
X102822980Y-89837375D01*
X102882910Y-89897305D01*
X102893651Y-89915389D01*
X102924460Y-89930793D01*
X102954688Y-89947300D01*
X102957124Y-89947125D01*
X103110940Y-90024034D01*
X103136154Y-90040238D01*
X103161700Y-90040238D01*
X103186842Y-90044762D01*
X103197750Y-90040238D01*
X103547085Y-90040238D01*
X103576884Y-90043455D01*
X103599731Y-90032031D01*
X103624243Y-90024834D01*
X103631976Y-90015908D01*
X103786172Y-89938811D01*
X103806722Y-89934341D01*
X103831073Y-89909989D01*
X103856296Y-89886527D01*
X103856900Y-89884161D01*
X103916830Y-89824231D01*
X103934913Y-89813491D01*
X103950318Y-89782679D01*
X103966824Y-89752452D01*
X103966649Y-89750017D01*
X104043558Y-89596201D01*
X104059762Y-89570988D01*
X104059762Y-89545442D01*
X104064286Y-89520300D01*
X104059762Y-89509392D01*
X104059762Y-88310174D01*
X104662381Y-88310174D01*
X104666905Y-88321082D01*
X104666905Y-88479941D01*
X104663688Y-88509740D01*
X104675111Y-88532587D01*
X104682309Y-88557099D01*
X104691234Y-88564832D01*
X104768331Y-88719028D01*
X104772802Y-88739577D01*
X104797147Y-88763922D01*
X104820616Y-88789152D01*
X104822981Y-88789756D01*
X104882912Y-88849687D01*
X104893651Y-88867769D01*
X104924454Y-88883171D01*
X104954689Y-88899680D01*
X104957123Y-88899505D01*
X105097042Y-88969466D01*
X105106933Y-88979985D01*
X105129225Y-88985558D01*
X105133029Y-88987460D01*
X105146603Y-88989902D01*
X105510183Y-89080797D01*
X105670242Y-89160827D01*
X105736792Y-89227378D01*
X105809762Y-89373318D01*
X105809762Y-89504777D01*
X105736791Y-89650716D01*
X105670240Y-89717268D01*
X105524302Y-89790238D01*
X105097904Y-89790238D01*
X104814384Y-89695731D01*
X104759744Y-89693755D01*
X104696596Y-89731184D01*
X104663708Y-89796811D01*
X104671522Y-89869800D01*
X104717557Y-89926979D01*
X105023224Y-90028868D01*
X105040916Y-90040238D01*
X105075353Y-90040238D01*
X105109780Y-90041483D01*
X105111880Y-90040238D01*
X105547085Y-90040238D01*
X105576884Y-90043455D01*
X105599731Y-90032031D01*
X105624243Y-90024834D01*
X105631976Y-90015908D01*
X105786172Y-89938811D01*
X105806722Y-89934341D01*
X105831073Y-89909989D01*
X105856296Y-89886527D01*
X105856900Y-89884161D01*
X105916830Y-89824231D01*
X105934913Y-89813491D01*
X105950318Y-89782679D01*
X105966824Y-89752452D01*
X105966649Y-89750017D01*
X106043558Y-89596201D01*
X106059762Y-89570988D01*
X106059762Y-89545442D01*
X106064286Y-89520300D01*
X106059762Y-89509392D01*
X106059762Y-89350540D01*
X106062980Y-89320736D01*
X106051554Y-89297885D01*
X106044358Y-89273376D01*
X106035433Y-89265642D01*
X105958335Y-89111447D01*
X105953865Y-89090898D01*
X105929513Y-89066546D01*
X105906051Y-89041323D01*
X105903684Y-89040717D01*
X105843756Y-88980789D01*
X105833016Y-88962706D01*
X105802202Y-88947299D01*
X105771978Y-88930795D01*
X105769542Y-88930969D01*
X105629624Y-88861009D01*
X105619734Y-88850491D01*
X105597439Y-88844917D01*
X105593637Y-88843016D01*
X105580065Y-88840573D01*
X105216485Y-88749678D01*
X105056423Y-88669646D01*
X104989875Y-88603098D01*
X104916905Y-88457158D01*
X104916905Y-88325698D01*
X104989875Y-88179757D01*
X105056426Y-88113207D01*
X105202366Y-88040238D01*
X105628763Y-88040238D01*
X105912283Y-88134745D01*
X105966923Y-88136721D01*
X106030071Y-88099292D01*
X106062959Y-88033665D01*
X106055145Y-87960676D01*
X106009110Y-87903497D01*
X105703442Y-87801607D01*
X105685751Y-87790238D01*
X105651314Y-87790238D01*
X105616887Y-87788993D01*
X105614787Y-87790238D01*
X105179588Y-87790238D01*
X105149784Y-87787020D01*
X105126933Y-87798445D01*
X105102424Y-87805642D01*
X105094690Y-87814566D01*
X104940495Y-87891664D01*
X104919946Y-87896135D01*
X104895594Y-87920486D01*
X104870371Y-87943949D01*
X104869765Y-87946315D01*
X104809837Y-88006243D01*
X104791754Y-88016984D01*
X104776347Y-88047797D01*
X104759843Y-88078022D01*
X104760017Y-88080457D01*
X104683108Y-88234273D01*
X104666905Y-88259487D01*
X104666905Y-88285033D01*
X104662381Y-88310174D01*
X104059762Y-88310174D01*
X104059762Y-87897266D01*
X104044358Y-87844805D01*
X103988881Y-87796734D01*
X103916222Y-87786287D01*
X103849449Y-87816781D01*
X103809762Y-87878535D01*
X103809762Y-89504777D01*
X103736791Y-89650716D01*
X103670240Y-89717268D01*
X103524302Y-89790238D01*
X103202365Y-89790238D01*
X103056426Y-89717268D01*
X102989874Y-89650716D01*
X102916905Y-89504777D01*
X102916905Y-87897266D01*
X102901501Y-87844805D01*
X102846024Y-87796734D01*
X102773365Y-87786287D01*
X102706592Y-87816781D01*
X102666905Y-87878535D01*
X102666905Y-89527560D01*
X102663688Y-89557359D01*
X102059762Y-89557359D01*
X102059762Y-89545442D01*
X102064286Y-89520300D01*
X102059762Y-89509392D01*
X102059762Y-89255302D01*
X102062980Y-89225498D01*
X102051554Y-89202647D01*
X102044358Y-89178138D01*
X102035433Y-89170404D01*
X101958335Y-89016209D01*
X101953865Y-88995660D01*
X101929513Y-88971308D01*
X101906051Y-88946085D01*
X101903684Y-88945479D01*
X101837433Y-88879228D01*
X101818634Y-88855878D01*
X101794397Y-88847798D01*
X101771978Y-88835557D01*
X101761928Y-88836275D01*
X101821593Y-88776611D01*
X101839675Y-88765872D01*
X101855074Y-88735072D01*
X101871586Y-88704834D01*
X101871411Y-88702398D01*
X101948320Y-88548582D01*
X101964524Y-88523369D01*
X101964524Y-88497823D01*
X101969048Y-88472681D01*
X101964524Y-88461773D01*
X101964524Y-88302921D01*
X101967742Y-88273117D01*
X101956316Y-88250266D01*
X101949120Y-88225757D01*
X101940195Y-88218023D01*
X101863097Y-88063828D01*
X101858627Y-88043279D01*
X101834275Y-88018927D01*
X101810813Y-87993704D01*
X101808446Y-87993098D01*
X101748518Y-87933170D01*
X101737778Y-87915087D01*
X101706964Y-87899680D01*
X101676740Y-87883176D01*
X101674304Y-87883350D01*
X101520488Y-87806441D01*
X101495275Y-87790238D01*
X101469729Y-87790238D01*
X101444588Y-87785714D01*
X101433680Y-87790238D01*
X100800844Y-87790238D01*
X100773365Y-87786287D01*
X100748110Y-87797820D01*
X100721472Y-87805642D01*
X100715243Y-87812829D01*
X100706592Y-87816781D01*
X100691581Y-87840137D01*
X100673401Y-87861119D01*
X100672047Y-87870533D01*
X100666905Y-87878535D01*
X100666905Y-87906299D01*
X100662954Y-87933778D01*
X100666905Y-87942430D01*
X100666905Y-88858680D01*
X100662954Y-88886159D01*
X100666905Y-88894811D01*
X100666905Y-89906299D01*
X100662954Y-89933778D01*
X99807285Y-89933778D01*
X99831073Y-89909989D01*
X99856296Y-89886527D01*
X99856900Y-89884161D01*
X99916830Y-89824231D01*
X99934913Y-89813491D01*
X99950318Y-89782679D01*
X99966824Y-89752452D01*
X99966649Y-89750017D01*
X100043558Y-89596201D01*
X100059762Y-89570988D01*
X100059762Y-89545442D01*
X100064286Y-89520300D01*
X100059762Y-89509392D01*
X100059762Y-88969588D01*
X100062980Y-88939784D01*
X100051554Y-88916933D01*
X100044358Y-88892424D01*
X100035433Y-88884690D01*
X99958335Y-88730494D01*
X99953865Y-88709945D01*
X99929513Y-88685593D01*
X99906051Y-88660370D01*
X99903684Y-88659764D01*
X99843756Y-88599836D01*
X99833016Y-88581753D01*
X99802202Y-88566346D01*
X99771978Y-88549842D01*
X99769542Y-88550016D01*
X99615726Y-88473107D01*
X99590513Y-88456904D01*
X99564967Y-88456904D01*
X99539826Y-88452380D01*
X99528918Y-88456904D01*
X99274826Y-88456904D01*
X99245022Y-88453686D01*
X99222171Y-88465111D01*
X99197662Y-88472308D01*
X99189928Y-88481232D01*
X99035733Y-88558330D01*
X99015184Y-88562801D01*
X98990832Y-88587152D01*
X98965609Y-88610615D01*
X98965003Y-88612981D01*
X98905075Y-88672909D01*
X98886992Y-88683650D01*
X98871585Y-88714462D01*
X98855081Y-88744688D01*
X98855255Y-88747123D01*
X98778346Y-88900940D01*
X98762143Y-88926154D01*
X98762143Y-88951700D01*
X98757619Y-88976842D01*
X97877048Y-88976842D01*
X97942256Y-88846424D01*
X98008807Y-88779873D01*
X98154747Y-88706904D01*
X98333687Y-88706904D01*
X98386148Y-88691500D01*
X98434219Y-88636023D01*
X98444666Y-88563364D01*
X98414172Y-88496591D01*
X98352418Y-88456904D01*
X98131969Y-88456904D01*
X98102165Y-88453686D01*
X98079314Y-88465111D01*
X98054805Y-88472308D01*
X98047071Y-88481232D01*
X97892876Y-88558330D01*
X97872327Y-88562801D01*
X97869286Y-88565842D01*
X97869286Y-88563932D01*
X97853882Y-88511471D01*
X97798405Y-88463400D01*
X97725746Y-88452953D01*
X97658973Y-88483447D01*
X97619286Y-88545201D01*
X97619286Y-88951700D01*
X97614762Y-88976842D01*
X96668980Y-88976842D01*
X96988239Y-88657584D01*
X97014442Y-88609597D01*
X97009206Y-88536377D01*
X96965215Y-88477612D01*
X96896437Y-88451959D01*
X96824707Y-88467563D01*
X96250238Y-89042033D01*
X96250238Y-87897266D01*
X96234834Y-87844805D01*
X96179357Y-87796734D01*
X96106698Y-87786287D01*
X96039925Y-87816781D01*
X96000238Y-87878535D01*
X96000238Y-89311905D01*
X95997938Y-89316117D01*
X95297857Y-89316117D01*
X95297857Y-88563932D01*
X95282453Y-88511471D01*
X95226976Y-88463400D01*
X95154317Y-88452953D01*
X95087544Y-88483447D01*
X95047857Y-88545201D01*
X95047857Y-89933210D01*
X94345476Y-89933210D01*
X94345476Y-88874350D01*
X94348694Y-88844546D01*
X94337268Y-88821695D01*
X94330072Y-88797186D01*
X94321147Y-88789452D01*
X94251282Y-88649723D01*
X94251454Y-88644867D01*
X94235018Y-88617195D01*
X94229004Y-88605166D01*
X94225877Y-88601805D01*
X94213968Y-88581753D01*
X94201363Y-88575450D01*
X94191765Y-88565132D01*
X94169170Y-88559354D01*
X93996677Y-88473107D01*
X93971464Y-88456904D01*
X93945918Y-88456904D01*
X93920776Y-88452380D01*
X93909868Y-88456904D01*
X93655778Y-88456904D01*
X93625974Y-88453686D01*
X93603123Y-88465111D01*
X93578614Y-88472308D01*
X93570880Y-88481232D01*
X93431152Y-88551097D01*
X93426296Y-88550926D01*
X93398624Y-88567361D01*
X93386595Y-88573376D01*
X93383234Y-88576502D01*
X93363182Y-88588412D01*
X93362084Y-88590607D01*
X93356825Y-88581753D01*
X93344220Y-88575450D01*
X93334622Y-88565132D01*
X93312027Y-88559354D01*
X93139535Y-88473107D01*
X93114322Y-88456904D01*
X93088776Y-88456904D01*
X93063635Y-88452380D01*
X93052727Y-88456904D01*
X92798635Y-88456904D01*
X92768831Y-88453686D01*
X92745980Y-88465111D01*
X92721471Y-88472308D01*
X92713737Y-88481232D01*
X92620583Y-88527810D01*
X92615786Y-88511471D01*
X92560309Y-88463400D01*
X92487650Y-88452953D01*
X92420877Y-88483447D01*
X92381190Y-88545201D01*
X92381190Y-88740476D01*
X92378890Y-88744688D01*
X91369286Y-88744688D01*
X91369286Y-88001182D01*
X94947674Y-88001182D01*
X94953575Y-88028308D01*
X94955556Y-88056003D01*
X94961256Y-88063617D01*
X94963278Y-88072911D01*
X94982908Y-88092541D01*
X94999547Y-88114768D01*
X95008458Y-88118091D01*
X95061909Y-88171542D01*
X95063261Y-88176147D01*
X95080843Y-88191382D01*
X95094785Y-88210006D01*
X95108043Y-88214951D01*
X95118738Y-88224218D01*
X95132744Y-88226231D01*
X95145165Y-88233014D01*
X95154652Y-88232335D01*
X95163563Y-88235659D01*
X95177390Y-88232651D01*
X95191397Y-88234665D01*
X95204269Y-88228786D01*
X95218384Y-88227777D01*
X95225998Y-88222076D01*
X95235292Y-88220055D01*
X95245297Y-88210049D01*
X95258170Y-88204171D01*
X95265820Y-88192266D01*
X95277149Y-88183786D01*
X95280472Y-88174874D01*
X95350163Y-88105184D01*
X95372387Y-88088548D01*
X95382088Y-88062537D01*
X95395395Y-88038168D01*
X95394716Y-88028680D01*
X95398040Y-88019770D01*
X95392138Y-87992643D01*
X95390158Y-87964949D01*
X95384457Y-87957334D01*
X95382436Y-87948041D01*
X95362805Y-87928410D01*
X95346167Y-87906184D01*
X95337254Y-87902859D01*
X95283805Y-87849410D01*
X95282453Y-87844805D01*
X95264870Y-87829569D01*
X95250929Y-87810946D01*
X95237670Y-87806000D01*
X95226976Y-87796734D01*
X95212969Y-87794720D01*
X95200549Y-87787938D01*
X95191061Y-87788616D01*
X95182151Y-87785293D01*
X95168323Y-87788300D01*
X95154317Y-87786287D01*
X95141444Y-87792165D01*
X95127330Y-87793175D01*
X95119715Y-87798875D01*
X95110422Y-87800897D01*
X95100416Y-87810902D01*
X95087544Y-87816781D01*
X95079893Y-87828685D01*
X95068565Y-87837166D01*
X95065240Y-87846078D01*
X94995553Y-87915765D01*
X94973327Y-87932404D01*
X94963624Y-87958417D01*
X94950319Y-87982784D01*
X94950997Y-87992271D01*
X94947674Y-88001182D01*
X91369286Y-88001182D01*
X91369286Y-86874286D01*
X107201429Y-86874286D01*
X107201429Y-90820714D01*
G37*
D11*
X104555000Y-83037142D02*
X104602619Y-82894285D01*
X104602619Y-82894285D02*
X104602619Y-82656190D01*
X104602619Y-82656190D02*
X104555000Y-82560952D01*
X104555000Y-82560952D02*
X104507380Y-82513333D01*
X104507380Y-82513333D02*
X104412142Y-82465714D01*
X104412142Y-82465714D02*
X104316904Y-82465714D01*
X104316904Y-82465714D02*
X104221666Y-82513333D01*
X104221666Y-82513333D02*
X104174047Y-82560952D01*
X104174047Y-82560952D02*
X104126428Y-82656190D01*
X104126428Y-82656190D02*
X104078809Y-82846666D01*
X104078809Y-82846666D02*
X104031190Y-82941904D01*
X104031190Y-82941904D02*
X103983571Y-82989523D01*
X103983571Y-82989523D02*
X103888333Y-83037142D01*
X103888333Y-83037142D02*
X103793095Y-83037142D01*
X103793095Y-83037142D02*
X103697857Y-82989523D01*
X103697857Y-82989523D02*
X103650238Y-82941904D01*
X103650238Y-82941904D02*
X103602619Y-82846666D01*
X103602619Y-82846666D02*
X103602619Y-82608571D01*
X103602619Y-82608571D02*
X103650238Y-82465714D01*
X104602619Y-82037142D02*
X103602619Y-82037142D01*
X103602619Y-82037142D02*
X103602619Y-81799047D01*
X103602619Y-81799047D02*
X103650238Y-81656190D01*
X103650238Y-81656190D02*
X103745476Y-81560952D01*
X103745476Y-81560952D02*
X103840714Y-81513333D01*
X103840714Y-81513333D02*
X104031190Y-81465714D01*
X104031190Y-81465714D02*
X104174047Y-81465714D01*
X104174047Y-81465714D02*
X104364523Y-81513333D01*
X104364523Y-81513333D02*
X104459761Y-81560952D01*
X104459761Y-81560952D02*
X104555000Y-81656190D01*
X104555000Y-81656190D02*
X104602619Y-81799047D01*
X104602619Y-81799047D02*
X104602619Y-82037142D01*
X104316904Y-81084761D02*
X104316904Y-80608571D01*
X104602619Y-81179999D02*
X103602619Y-80846666D01*
X103602619Y-80846666D02*
X104602619Y-80513333D01*
X102152619Y-99511904D02*
X101152619Y-99511904D01*
X101152619Y-99511904D02*
X101866904Y-99178571D01*
X101866904Y-99178571D02*
X101152619Y-98845238D01*
X101152619Y-98845238D02*
X102152619Y-98845238D01*
X102152619Y-98369047D02*
X101152619Y-98369047D01*
X102105000Y-97940476D02*
X102152619Y-97797619D01*
X102152619Y-97797619D02*
X102152619Y-97559524D01*
X102152619Y-97559524D02*
X102105000Y-97464286D01*
X102105000Y-97464286D02*
X102057380Y-97416667D01*
X102057380Y-97416667D02*
X101962142Y-97369048D01*
X101962142Y-97369048D02*
X101866904Y-97369048D01*
X101866904Y-97369048D02*
X101771666Y-97416667D01*
X101771666Y-97416667D02*
X101724047Y-97464286D01*
X101724047Y-97464286D02*
X101676428Y-97559524D01*
X101676428Y-97559524D02*
X101628809Y-97750000D01*
X101628809Y-97750000D02*
X101581190Y-97845238D01*
X101581190Y-97845238D02*
X101533571Y-97892857D01*
X101533571Y-97892857D02*
X101438333Y-97940476D01*
X101438333Y-97940476D02*
X101343095Y-97940476D01*
X101343095Y-97940476D02*
X101247857Y-97892857D01*
X101247857Y-97892857D02*
X101200238Y-97845238D01*
X101200238Y-97845238D02*
X101152619Y-97750000D01*
X101152619Y-97750000D02*
X101152619Y-97511905D01*
X101152619Y-97511905D02*
X101200238Y-97369048D01*
X101152619Y-96750000D02*
X101152619Y-96559524D01*
X101152619Y-96559524D02*
X101200238Y-96464286D01*
X101200238Y-96464286D02*
X101295476Y-96369048D01*
X101295476Y-96369048D02*
X101485952Y-96321429D01*
X101485952Y-96321429D02*
X101819285Y-96321429D01*
X101819285Y-96321429D02*
X102009761Y-96369048D01*
X102009761Y-96369048D02*
X102105000Y-96464286D01*
X102105000Y-96464286D02*
X102152619Y-96559524D01*
X102152619Y-96559524D02*
X102152619Y-96750000D01*
X102152619Y-96750000D02*
X102105000Y-96845238D01*
X102105000Y-96845238D02*
X102009761Y-96940476D01*
X102009761Y-96940476D02*
X101819285Y-96988095D01*
X101819285Y-96988095D02*
X101485952Y-96988095D01*
X101485952Y-96988095D02*
X101295476Y-96940476D01*
X101295476Y-96940476D02*
X101200238Y-96845238D01*
X101200238Y-96845238D02*
X101152619Y-96750000D01*
X91902619Y-83465713D02*
X90902619Y-83465713D01*
X90902619Y-83465713D02*
X90902619Y-83084761D01*
X90902619Y-83084761D02*
X90950238Y-82989523D01*
X90950238Y-82989523D02*
X90997857Y-82941904D01*
X90997857Y-82941904D02*
X91093095Y-82894285D01*
X91093095Y-82894285D02*
X91235952Y-82894285D01*
X91235952Y-82894285D02*
X91331190Y-82941904D01*
X91331190Y-82941904D02*
X91378809Y-82989523D01*
X91378809Y-82989523D02*
X91426428Y-83084761D01*
X91426428Y-83084761D02*
X91426428Y-83465713D01*
X90902619Y-82560951D02*
X91902619Y-82322856D01*
X91902619Y-82322856D02*
X91188333Y-82132380D01*
X91188333Y-82132380D02*
X91902619Y-81941904D01*
X91902619Y-81941904D02*
X90902619Y-81703809D01*
X91902619Y-81322856D02*
X90902619Y-81322856D01*
X90902619Y-81322856D02*
X91616904Y-80989523D01*
X91616904Y-80989523D02*
X90902619Y-80656190D01*
X90902619Y-80656190D02*
X91902619Y-80656190D01*
X106142619Y-81513333D02*
X106142619Y-81989523D01*
X106142619Y-81989523D02*
X106618809Y-82037142D01*
X106618809Y-82037142D02*
X106571190Y-81989523D01*
X106571190Y-81989523D02*
X106523571Y-81894285D01*
X106523571Y-81894285D02*
X106523571Y-81656190D01*
X106523571Y-81656190D02*
X106571190Y-81560952D01*
X106571190Y-81560952D02*
X106618809Y-81513333D01*
X106618809Y-81513333D02*
X106714047Y-81465714D01*
X106714047Y-81465714D02*
X106952142Y-81465714D01*
X106952142Y-81465714D02*
X107047380Y-81513333D01*
X107047380Y-81513333D02*
X107095000Y-81560952D01*
X107095000Y-81560952D02*
X107142619Y-81656190D01*
X107142619Y-81656190D02*
X107142619Y-81894285D01*
X107142619Y-81894285D02*
X107095000Y-81989523D01*
X107095000Y-81989523D02*
X107047380Y-82037142D01*
X106142619Y-81179999D02*
X107142619Y-80846666D01*
X107142619Y-80846666D02*
X106142619Y-80513333D01*
D10*
%TO.C,J6*%
X101932619Y-44563333D02*
X102646904Y-44563333D01*
X102646904Y-44563333D02*
X102789761Y-44610952D01*
X102789761Y-44610952D02*
X102885000Y-44706190D01*
X102885000Y-44706190D02*
X102932619Y-44849047D01*
X102932619Y-44849047D02*
X102932619Y-44944285D01*
X101932619Y-43658571D02*
X101932619Y-43849047D01*
X101932619Y-43849047D02*
X101980238Y-43944285D01*
X101980238Y-43944285D02*
X102027857Y-43991904D01*
X102027857Y-43991904D02*
X102170714Y-44087142D01*
X102170714Y-44087142D02*
X102361190Y-44134761D01*
X102361190Y-44134761D02*
X102742142Y-44134761D01*
X102742142Y-44134761D02*
X102837380Y-44087142D01*
X102837380Y-44087142D02*
X102885000Y-44039523D01*
X102885000Y-44039523D02*
X102932619Y-43944285D01*
X102932619Y-43944285D02*
X102932619Y-43753809D01*
X102932619Y-43753809D02*
X102885000Y-43658571D01*
X102885000Y-43658571D02*
X102837380Y-43610952D01*
X102837380Y-43610952D02*
X102742142Y-43563333D01*
X102742142Y-43563333D02*
X102504047Y-43563333D01*
X102504047Y-43563333D02*
X102408809Y-43610952D01*
X102408809Y-43610952D02*
X102361190Y-43658571D01*
X102361190Y-43658571D02*
X102313571Y-43753809D01*
X102313571Y-43753809D02*
X102313571Y-43944285D01*
X102313571Y-43944285D02*
X102361190Y-44039523D01*
X102361190Y-44039523D02*
X102408809Y-44087142D01*
X102408809Y-44087142D02*
X102504047Y-44134761D01*
%TO.C,J7*%
X101932619Y-137563333D02*
X102646904Y-137563333D01*
X102646904Y-137563333D02*
X102789761Y-137610952D01*
X102789761Y-137610952D02*
X102885000Y-137706190D01*
X102885000Y-137706190D02*
X102932619Y-137849047D01*
X102932619Y-137849047D02*
X102932619Y-137944285D01*
X101932619Y-137182380D02*
X101932619Y-136515714D01*
X101932619Y-136515714D02*
X102932619Y-136944285D01*
%TO.C,R11*%
X141307142Y-95522619D02*
X140973809Y-95046428D01*
X140735714Y-95522619D02*
X140735714Y-94522619D01*
X140735714Y-94522619D02*
X141116666Y-94522619D01*
X141116666Y-94522619D02*
X141211904Y-94570238D01*
X141211904Y-94570238D02*
X141259523Y-94617857D01*
X141259523Y-94617857D02*
X141307142Y-94713095D01*
X141307142Y-94713095D02*
X141307142Y-94855952D01*
X141307142Y-94855952D02*
X141259523Y-94951190D01*
X141259523Y-94951190D02*
X141211904Y-94998809D01*
X141211904Y-94998809D02*
X141116666Y-95046428D01*
X141116666Y-95046428D02*
X140735714Y-95046428D01*
X142259523Y-95522619D02*
X141688095Y-95522619D01*
X141973809Y-95522619D02*
X141973809Y-94522619D01*
X141973809Y-94522619D02*
X141878571Y-94665476D01*
X141878571Y-94665476D02*
X141783333Y-94760714D01*
X141783333Y-94760714D02*
X141688095Y-94808333D01*
X143211904Y-95522619D02*
X142640476Y-95522619D01*
X142926190Y-95522619D02*
X142926190Y-94522619D01*
X142926190Y-94522619D02*
X142830952Y-94665476D01*
X142830952Y-94665476D02*
X142735714Y-94760714D01*
X142735714Y-94760714D02*
X142640476Y-94808333D01*
%TO.C,U3*%
X141192619Y-72331904D02*
X142002142Y-72331904D01*
X142002142Y-72331904D02*
X142097380Y-72284285D01*
X142097380Y-72284285D02*
X142145000Y-72236666D01*
X142145000Y-72236666D02*
X142192619Y-72141428D01*
X142192619Y-72141428D02*
X142192619Y-71950952D01*
X142192619Y-71950952D02*
X142145000Y-71855714D01*
X142145000Y-71855714D02*
X142097380Y-71808095D01*
X142097380Y-71808095D02*
X142002142Y-71760476D01*
X142002142Y-71760476D02*
X141192619Y-71760476D01*
X141192619Y-71379523D02*
X141192619Y-70760476D01*
X141192619Y-70760476D02*
X141573571Y-71093809D01*
X141573571Y-71093809D02*
X141573571Y-70950952D01*
X141573571Y-70950952D02*
X141621190Y-70855714D01*
X141621190Y-70855714D02*
X141668809Y-70808095D01*
X141668809Y-70808095D02*
X141764047Y-70760476D01*
X141764047Y-70760476D02*
X142002142Y-70760476D01*
X142002142Y-70760476D02*
X142097380Y-70808095D01*
X142097380Y-70808095D02*
X142145000Y-70855714D01*
X142145000Y-70855714D02*
X142192619Y-70950952D01*
X142192619Y-70950952D02*
X142192619Y-71236666D01*
X142192619Y-71236666D02*
X142145000Y-71331904D01*
X142145000Y-71331904D02*
X142097380Y-71379523D01*
X137792990Y-58088888D02*
X137766053Y-58008075D01*
X137766053Y-58008075D02*
X137685240Y-57927263D01*
X137685240Y-57927263D02*
X137577491Y-57873388D01*
X137577491Y-57873388D02*
X137469741Y-57873388D01*
X137469741Y-57873388D02*
X137388929Y-57900326D01*
X137388929Y-57900326D02*
X137254242Y-57981138D01*
X137254242Y-57981138D02*
X137173430Y-58061950D01*
X137173430Y-58061950D02*
X137092617Y-58196637D01*
X137092617Y-58196637D02*
X137065680Y-58277449D01*
X137065680Y-58277449D02*
X137065680Y-58385199D01*
X137065680Y-58385199D02*
X137119555Y-58492949D01*
X137119555Y-58492949D02*
X137173430Y-58546823D01*
X137173430Y-58546823D02*
X137281179Y-58600698D01*
X137281179Y-58600698D02*
X137335054Y-58600698D01*
X137335054Y-58600698D02*
X137523616Y-58412136D01*
X137523616Y-58412136D02*
X137415866Y-58304387D01*
X137523616Y-58897010D02*
X138089301Y-58331324D01*
X138089301Y-58331324D02*
X138304801Y-58546823D01*
X138304801Y-58546823D02*
X138331738Y-58627636D01*
X138331738Y-58627636D02*
X138331738Y-58681510D01*
X138331738Y-58681510D02*
X138304801Y-58762323D01*
X138304801Y-58762323D02*
X138223988Y-58843135D01*
X138223988Y-58843135D02*
X138143176Y-58870072D01*
X138143176Y-58870072D02*
X138089301Y-58870072D01*
X138089301Y-58870072D02*
X138008489Y-58843135D01*
X138008489Y-58843135D02*
X137792990Y-58627636D01*
X138116239Y-59489632D02*
X138223988Y-59597382D01*
X138223988Y-59597382D02*
X138304801Y-59624319D01*
X138304801Y-59624319D02*
X138358675Y-59624319D01*
X138358675Y-59624319D02*
X138493362Y-59597382D01*
X138493362Y-59597382D02*
X138628049Y-59516570D01*
X138628049Y-59516570D02*
X138843549Y-59301071D01*
X138843549Y-59301071D02*
X138870486Y-59220258D01*
X138870486Y-59220258D02*
X138870486Y-59166384D01*
X138870486Y-59166384D02*
X138843549Y-59085571D01*
X138843549Y-59085571D02*
X138735799Y-58977822D01*
X138735799Y-58977822D02*
X138654987Y-58950884D01*
X138654987Y-58950884D02*
X138601112Y-58950884D01*
X138601112Y-58950884D02*
X138520300Y-58977822D01*
X138520300Y-58977822D02*
X138385613Y-59112509D01*
X138385613Y-59112509D02*
X138358675Y-59193321D01*
X138358675Y-59193321D02*
X138358675Y-59247196D01*
X138358675Y-59247196D02*
X138385613Y-59328008D01*
X138385613Y-59328008D02*
X138493362Y-59435758D01*
X138493362Y-59435758D02*
X138574175Y-59462695D01*
X138574175Y-59462695D02*
X138628049Y-59462695D01*
X138628049Y-59462695D02*
X138708862Y-59435758D01*
X132433615Y-83673513D02*
X132406678Y-83592701D01*
X132406678Y-83592701D02*
X132325866Y-83511889D01*
X132325866Y-83511889D02*
X132218116Y-83458014D01*
X132218116Y-83458014D02*
X132110367Y-83458014D01*
X132110367Y-83458014D02*
X132029554Y-83484951D01*
X132029554Y-83484951D02*
X131894867Y-83565764D01*
X131894867Y-83565764D02*
X131814055Y-83646576D01*
X131814055Y-83646576D02*
X131733243Y-83781263D01*
X131733243Y-83781263D02*
X131706306Y-83862075D01*
X131706306Y-83862075D02*
X131706306Y-83969825D01*
X131706306Y-83969825D02*
X131760180Y-84077574D01*
X131760180Y-84077574D02*
X131814055Y-84131449D01*
X131814055Y-84131449D02*
X131921805Y-84185324D01*
X131921805Y-84185324D02*
X131975680Y-84185324D01*
X131975680Y-84185324D02*
X132164241Y-83996762D01*
X132164241Y-83996762D02*
X132056492Y-83889012D01*
X132164241Y-84481635D02*
X132729927Y-83915950D01*
X132729927Y-83915950D02*
X132945426Y-84131449D01*
X132945426Y-84131449D02*
X132972363Y-84212261D01*
X132972363Y-84212261D02*
X132972363Y-84266136D01*
X132972363Y-84266136D02*
X132945426Y-84346948D01*
X132945426Y-84346948D02*
X132864614Y-84427760D01*
X132864614Y-84427760D02*
X132783802Y-84454698D01*
X132783802Y-84454698D02*
X132729927Y-84454698D01*
X132729927Y-84454698D02*
X132649115Y-84427760D01*
X132649115Y-84427760D02*
X132433615Y-84212261D01*
X133214800Y-84508573D02*
X133268675Y-84508573D01*
X133268675Y-84508573D02*
X133349487Y-84535510D01*
X133349487Y-84535510D02*
X133484174Y-84670197D01*
X133484174Y-84670197D02*
X133511112Y-84751009D01*
X133511112Y-84751009D02*
X133511112Y-84804884D01*
X133511112Y-84804884D02*
X133484174Y-84885696D01*
X133484174Y-84885696D02*
X133430299Y-84939571D01*
X133430299Y-84939571D02*
X133322550Y-84993446D01*
X133322550Y-84993446D02*
X132676052Y-84993446D01*
X132676052Y-84993446D02*
X133026238Y-85343632D01*
X133564986Y-85882380D02*
X133241738Y-85559131D01*
X133403362Y-85720756D02*
X133969048Y-85155070D01*
X133969048Y-85155070D02*
X133834361Y-85182008D01*
X133834361Y-85182008D02*
X133726611Y-85182008D01*
X133726611Y-85182008D02*
X133645799Y-85155070D01*
X153032990Y-58088888D02*
X153006053Y-58008075D01*
X153006053Y-58008075D02*
X152925240Y-57927263D01*
X152925240Y-57927263D02*
X152817491Y-57873388D01*
X152817491Y-57873388D02*
X152709741Y-57873388D01*
X152709741Y-57873388D02*
X152628929Y-57900326D01*
X152628929Y-57900326D02*
X152494242Y-57981138D01*
X152494242Y-57981138D02*
X152413430Y-58061950D01*
X152413430Y-58061950D02*
X152332617Y-58196637D01*
X152332617Y-58196637D02*
X152305680Y-58277449D01*
X152305680Y-58277449D02*
X152305680Y-58385199D01*
X152305680Y-58385199D02*
X152359555Y-58492949D01*
X152359555Y-58492949D02*
X152413430Y-58546823D01*
X152413430Y-58546823D02*
X152521179Y-58600698D01*
X152521179Y-58600698D02*
X152575054Y-58600698D01*
X152575054Y-58600698D02*
X152763616Y-58412136D01*
X152763616Y-58412136D02*
X152655866Y-58304387D01*
X152763616Y-58897010D02*
X153329301Y-58331324D01*
X153329301Y-58331324D02*
X153544801Y-58546823D01*
X153544801Y-58546823D02*
X153571738Y-58627636D01*
X153571738Y-58627636D02*
X153571738Y-58681510D01*
X153571738Y-58681510D02*
X153544801Y-58762323D01*
X153544801Y-58762323D02*
X153463988Y-58843135D01*
X153463988Y-58843135D02*
X153383176Y-58870072D01*
X153383176Y-58870072D02*
X153329301Y-58870072D01*
X153329301Y-58870072D02*
X153248489Y-58843135D01*
X153248489Y-58843135D02*
X153032990Y-58627636D01*
X153948862Y-59328008D02*
X153571738Y-59705132D01*
X154029674Y-58977822D02*
X153490926Y-59247196D01*
X153490926Y-59247196D02*
X153841112Y-59597382D01*
X132443615Y-57565513D02*
X132416678Y-57484701D01*
X132416678Y-57484701D02*
X132335866Y-57403889D01*
X132335866Y-57403889D02*
X132228116Y-57350014D01*
X132228116Y-57350014D02*
X132120367Y-57350014D01*
X132120367Y-57350014D02*
X132039554Y-57376951D01*
X132039554Y-57376951D02*
X131904867Y-57457764D01*
X131904867Y-57457764D02*
X131824055Y-57538576D01*
X131824055Y-57538576D02*
X131743243Y-57673263D01*
X131743243Y-57673263D02*
X131716306Y-57754075D01*
X131716306Y-57754075D02*
X131716306Y-57861825D01*
X131716306Y-57861825D02*
X131770180Y-57969574D01*
X131770180Y-57969574D02*
X131824055Y-58023449D01*
X131824055Y-58023449D02*
X131931805Y-58077324D01*
X131931805Y-58077324D02*
X131985680Y-58077324D01*
X131985680Y-58077324D02*
X132174241Y-57888762D01*
X132174241Y-57888762D02*
X132066492Y-57781012D01*
X132174241Y-58373635D02*
X132739927Y-57807950D01*
X132739927Y-57807950D02*
X132955426Y-58023449D01*
X132955426Y-58023449D02*
X132982363Y-58104261D01*
X132982363Y-58104261D02*
X132982363Y-58158136D01*
X132982363Y-58158136D02*
X132955426Y-58238948D01*
X132955426Y-58238948D02*
X132874614Y-58319760D01*
X132874614Y-58319760D02*
X132793802Y-58346698D01*
X132793802Y-58346698D02*
X132739927Y-58346698D01*
X132739927Y-58346698D02*
X132659115Y-58319760D01*
X132659115Y-58319760D02*
X132443615Y-58104261D01*
X133036238Y-59235632D02*
X132712989Y-58912383D01*
X132874614Y-59074008D02*
X133440299Y-58508322D01*
X133440299Y-58508322D02*
X133305612Y-58535260D01*
X133305612Y-58535260D02*
X133197863Y-58535260D01*
X133197863Y-58535260D02*
X133117051Y-58508322D01*
X133952110Y-59020133D02*
X134005985Y-59074008D01*
X134005985Y-59074008D02*
X134032922Y-59154820D01*
X134032922Y-59154820D02*
X134032922Y-59208695D01*
X134032922Y-59208695D02*
X134005985Y-59289507D01*
X134005985Y-59289507D02*
X133925173Y-59424194D01*
X133925173Y-59424194D02*
X133790486Y-59558881D01*
X133790486Y-59558881D02*
X133655799Y-59639693D01*
X133655799Y-59639693D02*
X133574986Y-59666631D01*
X133574986Y-59666631D02*
X133521112Y-59666631D01*
X133521112Y-59666631D02*
X133440299Y-59639693D01*
X133440299Y-59639693D02*
X133386425Y-59585818D01*
X133386425Y-59585818D02*
X133359487Y-59505006D01*
X133359487Y-59505006D02*
X133359487Y-59451131D01*
X133359487Y-59451131D02*
X133386425Y-59370319D01*
X133386425Y-59370319D02*
X133467237Y-59235632D01*
X133467237Y-59235632D02*
X133601924Y-59100945D01*
X133601924Y-59100945D02*
X133736611Y-59020133D01*
X133736611Y-59020133D02*
X133817423Y-58993196D01*
X133817423Y-58993196D02*
X133871298Y-58993196D01*
X133871298Y-58993196D02*
X133952110Y-59020133D01*
X145133615Y-83673513D02*
X145106678Y-83592701D01*
X145106678Y-83592701D02*
X145025866Y-83511889D01*
X145025866Y-83511889D02*
X144918116Y-83458014D01*
X144918116Y-83458014D02*
X144810367Y-83458014D01*
X144810367Y-83458014D02*
X144729554Y-83484951D01*
X144729554Y-83484951D02*
X144594867Y-83565764D01*
X144594867Y-83565764D02*
X144514055Y-83646576D01*
X144514055Y-83646576D02*
X144433243Y-83781263D01*
X144433243Y-83781263D02*
X144406306Y-83862075D01*
X144406306Y-83862075D02*
X144406306Y-83969825D01*
X144406306Y-83969825D02*
X144460180Y-84077574D01*
X144460180Y-84077574D02*
X144514055Y-84131449D01*
X144514055Y-84131449D02*
X144621805Y-84185324D01*
X144621805Y-84185324D02*
X144675680Y-84185324D01*
X144675680Y-84185324D02*
X144864241Y-83996762D01*
X144864241Y-83996762D02*
X144756492Y-83889012D01*
X144864241Y-84481635D02*
X145429927Y-83915950D01*
X145429927Y-83915950D02*
X145645426Y-84131449D01*
X145645426Y-84131449D02*
X145672363Y-84212261D01*
X145672363Y-84212261D02*
X145672363Y-84266136D01*
X145672363Y-84266136D02*
X145645426Y-84346948D01*
X145645426Y-84346948D02*
X145564614Y-84427760D01*
X145564614Y-84427760D02*
X145483802Y-84454698D01*
X145483802Y-84454698D02*
X145429927Y-84454698D01*
X145429927Y-84454698D02*
X145349115Y-84427760D01*
X145349115Y-84427760D02*
X145133615Y-84212261D01*
X145914800Y-84508573D02*
X145968675Y-84508573D01*
X145968675Y-84508573D02*
X146049487Y-84535510D01*
X146049487Y-84535510D02*
X146184174Y-84670197D01*
X146184174Y-84670197D02*
X146211112Y-84751009D01*
X146211112Y-84751009D02*
X146211112Y-84804884D01*
X146211112Y-84804884D02*
X146184174Y-84885696D01*
X146184174Y-84885696D02*
X146130299Y-84939571D01*
X146130299Y-84939571D02*
X146022550Y-84993446D01*
X146022550Y-84993446D02*
X145376052Y-84993446D01*
X145376052Y-84993446D02*
X145726238Y-85343632D01*
X146480486Y-84966509D02*
X146857609Y-85343632D01*
X146857609Y-85343632D02*
X146049487Y-85666881D01*
X158112990Y-57988888D02*
X158086053Y-57908075D01*
X158086053Y-57908075D02*
X158005240Y-57827263D01*
X158005240Y-57827263D02*
X157897491Y-57773388D01*
X157897491Y-57773388D02*
X157789741Y-57773388D01*
X157789741Y-57773388D02*
X157708929Y-57800326D01*
X157708929Y-57800326D02*
X157574242Y-57881138D01*
X157574242Y-57881138D02*
X157493430Y-57961950D01*
X157493430Y-57961950D02*
X157412617Y-58096637D01*
X157412617Y-58096637D02*
X157385680Y-58177449D01*
X157385680Y-58177449D02*
X157385680Y-58285199D01*
X157385680Y-58285199D02*
X157439555Y-58392949D01*
X157439555Y-58392949D02*
X157493430Y-58446823D01*
X157493430Y-58446823D02*
X157601179Y-58500698D01*
X157601179Y-58500698D02*
X157655054Y-58500698D01*
X157655054Y-58500698D02*
X157843616Y-58312136D01*
X157843616Y-58312136D02*
X157735866Y-58204387D01*
X157843616Y-58797010D02*
X158409301Y-58231324D01*
X158409301Y-58231324D02*
X158624801Y-58446823D01*
X158624801Y-58446823D02*
X158651738Y-58527636D01*
X158651738Y-58527636D02*
X158651738Y-58581510D01*
X158651738Y-58581510D02*
X158624801Y-58662323D01*
X158624801Y-58662323D02*
X158543988Y-58743135D01*
X158543988Y-58743135D02*
X158463176Y-58770072D01*
X158463176Y-58770072D02*
X158409301Y-58770072D01*
X158409301Y-58770072D02*
X158328489Y-58743135D01*
X158328489Y-58743135D02*
X158112990Y-58527636D01*
X158894175Y-58823947D02*
X158948049Y-58823947D01*
X158948049Y-58823947D02*
X159028862Y-58850884D01*
X159028862Y-58850884D02*
X159163549Y-58985571D01*
X159163549Y-58985571D02*
X159190486Y-59066384D01*
X159190486Y-59066384D02*
X159190486Y-59120258D01*
X159190486Y-59120258D02*
X159163549Y-59201071D01*
X159163549Y-59201071D02*
X159109674Y-59254945D01*
X159109674Y-59254945D02*
X159001924Y-59308820D01*
X159001924Y-59308820D02*
X158355427Y-59308820D01*
X158355427Y-59308820D02*
X158705613Y-59659006D01*
X160626053Y-58061950D02*
X160599115Y-57981138D01*
X160599115Y-57981138D02*
X160518303Y-57900326D01*
X160518303Y-57900326D02*
X160410553Y-57846451D01*
X160410553Y-57846451D02*
X160302804Y-57846451D01*
X160302804Y-57846451D02*
X160221992Y-57873389D01*
X160221992Y-57873389D02*
X160087305Y-57954201D01*
X160087305Y-57954201D02*
X160006492Y-58035013D01*
X160006492Y-58035013D02*
X159925680Y-58169700D01*
X159925680Y-58169700D02*
X159898743Y-58250512D01*
X159898743Y-58250512D02*
X159898743Y-58358262D01*
X159898743Y-58358262D02*
X159952618Y-58466011D01*
X159952618Y-58466011D02*
X160006492Y-58519886D01*
X160006492Y-58519886D02*
X160114242Y-58573761D01*
X160114242Y-58573761D02*
X160168117Y-58573761D01*
X160168117Y-58573761D02*
X160356679Y-58385199D01*
X160356679Y-58385199D02*
X160248929Y-58277450D01*
X160356679Y-58870072D02*
X160922364Y-58304387D01*
X160922364Y-58304387D02*
X160679927Y-59193321D01*
X160679927Y-59193321D02*
X161245613Y-58627636D01*
X160949301Y-59462695D02*
X161514987Y-58897010D01*
X161514987Y-58897010D02*
X161649674Y-59031697D01*
X161649674Y-59031697D02*
X161703549Y-59139446D01*
X161703549Y-59139446D02*
X161703549Y-59247196D01*
X161703549Y-59247196D02*
X161676611Y-59328008D01*
X161676611Y-59328008D02*
X161595799Y-59462695D01*
X161595799Y-59462695D02*
X161514987Y-59543507D01*
X161514987Y-59543507D02*
X161380300Y-59624319D01*
X161380300Y-59624319D02*
X161299488Y-59651257D01*
X161299488Y-59651257D02*
X161191738Y-59651257D01*
X161191738Y-59651257D02*
X161083988Y-59597382D01*
X161083988Y-59597382D02*
X160949301Y-59462695D01*
X129903615Y-83673513D02*
X129876678Y-83592701D01*
X129876678Y-83592701D02*
X129795866Y-83511889D01*
X129795866Y-83511889D02*
X129688116Y-83458014D01*
X129688116Y-83458014D02*
X129580367Y-83458014D01*
X129580367Y-83458014D02*
X129499554Y-83484951D01*
X129499554Y-83484951D02*
X129364867Y-83565764D01*
X129364867Y-83565764D02*
X129284055Y-83646576D01*
X129284055Y-83646576D02*
X129203243Y-83781263D01*
X129203243Y-83781263D02*
X129176306Y-83862075D01*
X129176306Y-83862075D02*
X129176306Y-83969825D01*
X129176306Y-83969825D02*
X129230180Y-84077574D01*
X129230180Y-84077574D02*
X129284055Y-84131449D01*
X129284055Y-84131449D02*
X129391805Y-84185324D01*
X129391805Y-84185324D02*
X129445680Y-84185324D01*
X129445680Y-84185324D02*
X129634241Y-83996762D01*
X129634241Y-83996762D02*
X129526492Y-83889012D01*
X129634241Y-84481635D02*
X130199927Y-83915950D01*
X130199927Y-83915950D02*
X130415426Y-84131449D01*
X130415426Y-84131449D02*
X130442363Y-84212261D01*
X130442363Y-84212261D02*
X130442363Y-84266136D01*
X130442363Y-84266136D02*
X130415426Y-84346948D01*
X130415426Y-84346948D02*
X130334614Y-84427760D01*
X130334614Y-84427760D02*
X130253802Y-84454698D01*
X130253802Y-84454698D02*
X130199927Y-84454698D01*
X130199927Y-84454698D02*
X130119115Y-84427760D01*
X130119115Y-84427760D02*
X129903615Y-84212261D01*
X130684800Y-84508573D02*
X130738675Y-84508573D01*
X130738675Y-84508573D02*
X130819487Y-84535510D01*
X130819487Y-84535510D02*
X130954174Y-84670197D01*
X130954174Y-84670197D02*
X130981112Y-84751009D01*
X130981112Y-84751009D02*
X130981112Y-84804884D01*
X130981112Y-84804884D02*
X130954174Y-84885696D01*
X130954174Y-84885696D02*
X130900299Y-84939571D01*
X130900299Y-84939571D02*
X130792550Y-84993446D01*
X130792550Y-84993446D02*
X130146052Y-84993446D01*
X130146052Y-84993446D02*
X130496238Y-85343632D01*
X131412110Y-85128133D02*
X131465985Y-85182008D01*
X131465985Y-85182008D02*
X131492922Y-85262820D01*
X131492922Y-85262820D02*
X131492922Y-85316695D01*
X131492922Y-85316695D02*
X131465985Y-85397507D01*
X131465985Y-85397507D02*
X131385173Y-85532194D01*
X131385173Y-85532194D02*
X131250486Y-85666881D01*
X131250486Y-85666881D02*
X131115799Y-85747693D01*
X131115799Y-85747693D02*
X131034986Y-85774631D01*
X131034986Y-85774631D02*
X130981112Y-85774631D01*
X130981112Y-85774631D02*
X130900299Y-85747693D01*
X130900299Y-85747693D02*
X130846425Y-85693818D01*
X130846425Y-85693818D02*
X130819487Y-85613006D01*
X130819487Y-85613006D02*
X130819487Y-85559131D01*
X130819487Y-85559131D02*
X130846425Y-85478319D01*
X130846425Y-85478319D02*
X130927237Y-85343632D01*
X130927237Y-85343632D02*
X131061924Y-85208945D01*
X131061924Y-85208945D02*
X131196611Y-85128133D01*
X131196611Y-85128133D02*
X131277423Y-85101196D01*
X131277423Y-85101196D02*
X131331298Y-85101196D01*
X131331298Y-85101196D02*
X131412110Y-85128133D01*
X127363615Y-57419513D02*
X127336678Y-57338701D01*
X127336678Y-57338701D02*
X127255866Y-57257889D01*
X127255866Y-57257889D02*
X127148116Y-57204014D01*
X127148116Y-57204014D02*
X127040367Y-57204014D01*
X127040367Y-57204014D02*
X126959554Y-57230951D01*
X126959554Y-57230951D02*
X126824867Y-57311764D01*
X126824867Y-57311764D02*
X126744055Y-57392576D01*
X126744055Y-57392576D02*
X126663243Y-57527263D01*
X126663243Y-57527263D02*
X126636306Y-57608075D01*
X126636306Y-57608075D02*
X126636306Y-57715825D01*
X126636306Y-57715825D02*
X126690180Y-57823574D01*
X126690180Y-57823574D02*
X126744055Y-57877449D01*
X126744055Y-57877449D02*
X126851805Y-57931324D01*
X126851805Y-57931324D02*
X126905680Y-57931324D01*
X126905680Y-57931324D02*
X127094241Y-57742762D01*
X127094241Y-57742762D02*
X126986492Y-57635012D01*
X127094241Y-58227635D02*
X127659927Y-57661950D01*
X127659927Y-57661950D02*
X127875426Y-57877449D01*
X127875426Y-57877449D02*
X127902363Y-57958261D01*
X127902363Y-57958261D02*
X127902363Y-58012136D01*
X127902363Y-58012136D02*
X127875426Y-58092948D01*
X127875426Y-58092948D02*
X127794614Y-58173760D01*
X127794614Y-58173760D02*
X127713802Y-58200698D01*
X127713802Y-58200698D02*
X127659927Y-58200698D01*
X127659927Y-58200698D02*
X127579115Y-58173760D01*
X127579115Y-58173760D02*
X127363615Y-57958261D01*
X127956238Y-59089632D02*
X127632989Y-58766383D01*
X127794614Y-58928008D02*
X128360299Y-58362322D01*
X128360299Y-58362322D02*
X128225612Y-58389260D01*
X128225612Y-58389260D02*
X128117863Y-58389260D01*
X128117863Y-58389260D02*
X128037051Y-58362322D01*
X128683548Y-58793321D02*
X128737423Y-58793321D01*
X128737423Y-58793321D02*
X128818235Y-58820258D01*
X128818235Y-58820258D02*
X128952922Y-58954945D01*
X128952922Y-58954945D02*
X128979860Y-59035757D01*
X128979860Y-59035757D02*
X128979860Y-59089632D01*
X128979860Y-59089632D02*
X128952922Y-59170444D01*
X128952922Y-59170444D02*
X128899048Y-59224319D01*
X128899048Y-59224319D02*
X128791298Y-59278194D01*
X128791298Y-59278194D02*
X128144800Y-59278194D01*
X128144800Y-59278194D02*
X128494986Y-59628380D01*
X115862000Y-67679524D02*
X115900095Y-67565238D01*
X115900095Y-67565238D02*
X115900095Y-67374762D01*
X115900095Y-67374762D02*
X115862000Y-67298571D01*
X115862000Y-67298571D02*
X115823904Y-67260476D01*
X115823904Y-67260476D02*
X115747714Y-67222381D01*
X115747714Y-67222381D02*
X115671523Y-67222381D01*
X115671523Y-67222381D02*
X115595333Y-67260476D01*
X115595333Y-67260476D02*
X115557238Y-67298571D01*
X115557238Y-67298571D02*
X115519142Y-67374762D01*
X115519142Y-67374762D02*
X115481047Y-67527143D01*
X115481047Y-67527143D02*
X115442952Y-67603333D01*
X115442952Y-67603333D02*
X115404857Y-67641428D01*
X115404857Y-67641428D02*
X115328666Y-67679524D01*
X115328666Y-67679524D02*
X115252476Y-67679524D01*
X115252476Y-67679524D02*
X115176285Y-67641428D01*
X115176285Y-67641428D02*
X115138190Y-67603333D01*
X115138190Y-67603333D02*
X115100095Y-67527143D01*
X115100095Y-67527143D02*
X115100095Y-67336666D01*
X115100095Y-67336666D02*
X115138190Y-67222381D01*
X115100095Y-66955714D02*
X115900095Y-66765238D01*
X115900095Y-66765238D02*
X115328666Y-66612857D01*
X115328666Y-66612857D02*
X115900095Y-66460476D01*
X115900095Y-66460476D02*
X115100095Y-66270000D01*
X115823904Y-65508094D02*
X115862000Y-65546190D01*
X115862000Y-65546190D02*
X115900095Y-65660475D01*
X115900095Y-65660475D02*
X115900095Y-65736666D01*
X115900095Y-65736666D02*
X115862000Y-65850952D01*
X115862000Y-65850952D02*
X115785809Y-65927142D01*
X115785809Y-65927142D02*
X115709619Y-65965237D01*
X115709619Y-65965237D02*
X115557238Y-66003333D01*
X115557238Y-66003333D02*
X115442952Y-66003333D01*
X115442952Y-66003333D02*
X115290571Y-65965237D01*
X115290571Y-65965237D02*
X115214380Y-65927142D01*
X115214380Y-65927142D02*
X115138190Y-65850952D01*
X115138190Y-65850952D02*
X115100095Y-65736666D01*
X115100095Y-65736666D02*
X115100095Y-65660475D01*
X115100095Y-65660475D02*
X115138190Y-65546190D01*
X115138190Y-65546190D02*
X115176285Y-65508094D01*
X115900095Y-64784285D02*
X115900095Y-65165237D01*
X115900095Y-65165237D02*
X115100095Y-65165237D01*
X115900095Y-64517618D02*
X115100095Y-64517618D01*
X115900095Y-64060475D02*
X115442952Y-64403333D01*
X115100095Y-64060475D02*
X115557238Y-64517618D01*
X127363615Y-83673513D02*
X127336678Y-83592701D01*
X127336678Y-83592701D02*
X127255866Y-83511889D01*
X127255866Y-83511889D02*
X127148116Y-83458014D01*
X127148116Y-83458014D02*
X127040367Y-83458014D01*
X127040367Y-83458014D02*
X126959554Y-83484951D01*
X126959554Y-83484951D02*
X126824867Y-83565764D01*
X126824867Y-83565764D02*
X126744055Y-83646576D01*
X126744055Y-83646576D02*
X126663243Y-83781263D01*
X126663243Y-83781263D02*
X126636306Y-83862075D01*
X126636306Y-83862075D02*
X126636306Y-83969825D01*
X126636306Y-83969825D02*
X126690180Y-84077574D01*
X126690180Y-84077574D02*
X126744055Y-84131449D01*
X126744055Y-84131449D02*
X126851805Y-84185324D01*
X126851805Y-84185324D02*
X126905680Y-84185324D01*
X126905680Y-84185324D02*
X127094241Y-83996762D01*
X127094241Y-83996762D02*
X126986492Y-83889012D01*
X127094241Y-84481635D02*
X127659927Y-83915950D01*
X127659927Y-83915950D02*
X127875426Y-84131449D01*
X127875426Y-84131449D02*
X127902363Y-84212261D01*
X127902363Y-84212261D02*
X127902363Y-84266136D01*
X127902363Y-84266136D02*
X127875426Y-84346948D01*
X127875426Y-84346948D02*
X127794614Y-84427760D01*
X127794614Y-84427760D02*
X127713802Y-84454698D01*
X127713802Y-84454698D02*
X127659927Y-84454698D01*
X127659927Y-84454698D02*
X127579115Y-84427760D01*
X127579115Y-84427760D02*
X127363615Y-84212261D01*
X127956238Y-85343632D02*
X127632989Y-85020383D01*
X127794614Y-85182008D02*
X128360299Y-84616322D01*
X128360299Y-84616322D02*
X128225612Y-84643260D01*
X128225612Y-84643260D02*
X128117863Y-84643260D01*
X128117863Y-84643260D02*
X128037051Y-84616322D01*
X128225612Y-85613006D02*
X128333362Y-85720756D01*
X128333362Y-85720756D02*
X128414174Y-85747693D01*
X128414174Y-85747693D02*
X128468049Y-85747693D01*
X128468049Y-85747693D02*
X128602736Y-85720756D01*
X128602736Y-85720756D02*
X128737423Y-85639944D01*
X128737423Y-85639944D02*
X128952922Y-85424444D01*
X128952922Y-85424444D02*
X128979860Y-85343632D01*
X128979860Y-85343632D02*
X128979860Y-85289757D01*
X128979860Y-85289757D02*
X128952922Y-85208945D01*
X128952922Y-85208945D02*
X128845173Y-85101196D01*
X128845173Y-85101196D02*
X128764361Y-85074258D01*
X128764361Y-85074258D02*
X128710486Y-85074258D01*
X128710486Y-85074258D02*
X128629673Y-85101196D01*
X128629673Y-85101196D02*
X128494986Y-85235883D01*
X128494986Y-85235883D02*
X128468049Y-85316695D01*
X128468049Y-85316695D02*
X128468049Y-85370570D01*
X128468049Y-85370570D02*
X128494986Y-85451382D01*
X128494986Y-85451382D02*
X128602736Y-85559131D01*
X128602736Y-85559131D02*
X128683548Y-85586069D01*
X128683548Y-85586069D02*
X128737423Y-85586069D01*
X128737423Y-85586069D02*
X128818235Y-85559131D01*
X137523615Y-83673513D02*
X137496678Y-83592701D01*
X137496678Y-83592701D02*
X137415866Y-83511889D01*
X137415866Y-83511889D02*
X137308116Y-83458014D01*
X137308116Y-83458014D02*
X137200367Y-83458014D01*
X137200367Y-83458014D02*
X137119554Y-83484951D01*
X137119554Y-83484951D02*
X136984867Y-83565764D01*
X136984867Y-83565764D02*
X136904055Y-83646576D01*
X136904055Y-83646576D02*
X136823243Y-83781263D01*
X136823243Y-83781263D02*
X136796306Y-83862075D01*
X136796306Y-83862075D02*
X136796306Y-83969825D01*
X136796306Y-83969825D02*
X136850180Y-84077574D01*
X136850180Y-84077574D02*
X136904055Y-84131449D01*
X136904055Y-84131449D02*
X137011805Y-84185324D01*
X137011805Y-84185324D02*
X137065680Y-84185324D01*
X137065680Y-84185324D02*
X137254241Y-83996762D01*
X137254241Y-83996762D02*
X137146492Y-83889012D01*
X137254241Y-84481635D02*
X137819927Y-83915950D01*
X137819927Y-83915950D02*
X138035426Y-84131449D01*
X138035426Y-84131449D02*
X138062363Y-84212261D01*
X138062363Y-84212261D02*
X138062363Y-84266136D01*
X138062363Y-84266136D02*
X138035426Y-84346948D01*
X138035426Y-84346948D02*
X137954614Y-84427760D01*
X137954614Y-84427760D02*
X137873802Y-84454698D01*
X137873802Y-84454698D02*
X137819927Y-84454698D01*
X137819927Y-84454698D02*
X137739115Y-84427760D01*
X137739115Y-84427760D02*
X137523615Y-84212261D01*
X138304800Y-84508573D02*
X138358675Y-84508573D01*
X138358675Y-84508573D02*
X138439487Y-84535510D01*
X138439487Y-84535510D02*
X138574174Y-84670197D01*
X138574174Y-84670197D02*
X138601112Y-84751009D01*
X138601112Y-84751009D02*
X138601112Y-84804884D01*
X138601112Y-84804884D02*
X138574174Y-84885696D01*
X138574174Y-84885696D02*
X138520299Y-84939571D01*
X138520299Y-84939571D02*
X138412550Y-84993446D01*
X138412550Y-84993446D02*
X137766052Y-84993446D01*
X137766052Y-84993446D02*
X138116238Y-85343632D01*
X138843548Y-85047321D02*
X138897423Y-85047321D01*
X138897423Y-85047321D02*
X138978235Y-85074258D01*
X138978235Y-85074258D02*
X139112922Y-85208945D01*
X139112922Y-85208945D02*
X139139860Y-85289757D01*
X139139860Y-85289757D02*
X139139860Y-85343632D01*
X139139860Y-85343632D02*
X139112922Y-85424444D01*
X139112922Y-85424444D02*
X139059048Y-85478319D01*
X139059048Y-85478319D02*
X138951298Y-85532194D01*
X138951298Y-85532194D02*
X138304800Y-85532194D01*
X138304800Y-85532194D02*
X138654986Y-85882380D01*
X142902990Y-58188888D02*
X142876053Y-58108075D01*
X142876053Y-58108075D02*
X142795240Y-58027263D01*
X142795240Y-58027263D02*
X142687491Y-57973388D01*
X142687491Y-57973388D02*
X142579741Y-57973388D01*
X142579741Y-57973388D02*
X142498929Y-58000326D01*
X142498929Y-58000326D02*
X142364242Y-58081138D01*
X142364242Y-58081138D02*
X142283430Y-58161950D01*
X142283430Y-58161950D02*
X142202617Y-58296637D01*
X142202617Y-58296637D02*
X142175680Y-58377449D01*
X142175680Y-58377449D02*
X142175680Y-58485199D01*
X142175680Y-58485199D02*
X142229555Y-58592949D01*
X142229555Y-58592949D02*
X142283430Y-58646823D01*
X142283430Y-58646823D02*
X142391179Y-58700698D01*
X142391179Y-58700698D02*
X142445054Y-58700698D01*
X142445054Y-58700698D02*
X142633616Y-58512136D01*
X142633616Y-58512136D02*
X142525866Y-58404387D01*
X142633616Y-58997010D02*
X143199301Y-58431324D01*
X143199301Y-58431324D02*
X143414801Y-58646823D01*
X143414801Y-58646823D02*
X143441738Y-58727636D01*
X143441738Y-58727636D02*
X143441738Y-58781510D01*
X143441738Y-58781510D02*
X143414801Y-58862323D01*
X143414801Y-58862323D02*
X143333988Y-58943135D01*
X143333988Y-58943135D02*
X143253176Y-58970072D01*
X143253176Y-58970072D02*
X143199301Y-58970072D01*
X143199301Y-58970072D02*
X143118489Y-58943135D01*
X143118489Y-58943135D02*
X142902990Y-58727636D01*
X143711112Y-58943135D02*
X144088236Y-59320258D01*
X144088236Y-59320258D02*
X143280114Y-59643507D01*
X117203615Y-57565513D02*
X117176678Y-57484701D01*
X117176678Y-57484701D02*
X117095866Y-57403889D01*
X117095866Y-57403889D02*
X116988116Y-57350014D01*
X116988116Y-57350014D02*
X116880367Y-57350014D01*
X116880367Y-57350014D02*
X116799554Y-57376951D01*
X116799554Y-57376951D02*
X116664867Y-57457764D01*
X116664867Y-57457764D02*
X116584055Y-57538576D01*
X116584055Y-57538576D02*
X116503243Y-57673263D01*
X116503243Y-57673263D02*
X116476306Y-57754075D01*
X116476306Y-57754075D02*
X116476306Y-57861825D01*
X116476306Y-57861825D02*
X116530180Y-57969574D01*
X116530180Y-57969574D02*
X116584055Y-58023449D01*
X116584055Y-58023449D02*
X116691805Y-58077324D01*
X116691805Y-58077324D02*
X116745680Y-58077324D01*
X116745680Y-58077324D02*
X116934241Y-57888762D01*
X116934241Y-57888762D02*
X116826492Y-57781012D01*
X116934241Y-58373635D02*
X117499927Y-57807950D01*
X117499927Y-57807950D02*
X117715426Y-58023449D01*
X117715426Y-58023449D02*
X117742363Y-58104261D01*
X117742363Y-58104261D02*
X117742363Y-58158136D01*
X117742363Y-58158136D02*
X117715426Y-58238948D01*
X117715426Y-58238948D02*
X117634614Y-58319760D01*
X117634614Y-58319760D02*
X117553802Y-58346698D01*
X117553802Y-58346698D02*
X117499927Y-58346698D01*
X117499927Y-58346698D02*
X117419115Y-58319760D01*
X117419115Y-58319760D02*
X117203615Y-58104261D01*
X117796238Y-59235632D02*
X117472989Y-58912383D01*
X117634614Y-59074008D02*
X118200299Y-58508322D01*
X118200299Y-58508322D02*
X118065612Y-58535260D01*
X118065612Y-58535260D02*
X117957863Y-58535260D01*
X117957863Y-58535260D02*
X117877051Y-58508322D01*
X118873735Y-59181757D02*
X118604361Y-58912383D01*
X118604361Y-58912383D02*
X118308049Y-59154820D01*
X118308049Y-59154820D02*
X118361924Y-59154820D01*
X118361924Y-59154820D02*
X118442736Y-59181757D01*
X118442736Y-59181757D02*
X118577423Y-59316444D01*
X118577423Y-59316444D02*
X118604361Y-59397257D01*
X118604361Y-59397257D02*
X118604361Y-59451131D01*
X118604361Y-59451131D02*
X118577423Y-59531944D01*
X118577423Y-59531944D02*
X118442736Y-59666631D01*
X118442736Y-59666631D02*
X118361924Y-59693568D01*
X118361924Y-59693568D02*
X118308049Y-59693568D01*
X118308049Y-59693568D02*
X118227237Y-59666631D01*
X118227237Y-59666631D02*
X118092550Y-59531944D01*
X118092550Y-59531944D02*
X118065612Y-59451131D01*
X118065612Y-59451131D02*
X118065612Y-59397257D01*
X147926053Y-58061950D02*
X147899115Y-57981138D01*
X147899115Y-57981138D02*
X147818303Y-57900326D01*
X147818303Y-57900326D02*
X147710553Y-57846451D01*
X147710553Y-57846451D02*
X147602804Y-57846451D01*
X147602804Y-57846451D02*
X147521992Y-57873389D01*
X147521992Y-57873389D02*
X147387305Y-57954201D01*
X147387305Y-57954201D02*
X147306492Y-58035013D01*
X147306492Y-58035013D02*
X147225680Y-58169700D01*
X147225680Y-58169700D02*
X147198743Y-58250512D01*
X147198743Y-58250512D02*
X147198743Y-58358262D01*
X147198743Y-58358262D02*
X147252618Y-58466011D01*
X147252618Y-58466011D02*
X147306492Y-58519886D01*
X147306492Y-58519886D02*
X147414242Y-58573761D01*
X147414242Y-58573761D02*
X147468117Y-58573761D01*
X147468117Y-58573761D02*
X147656679Y-58385199D01*
X147656679Y-58385199D02*
X147548929Y-58277450D01*
X147656679Y-58870072D02*
X148222364Y-58304387D01*
X148222364Y-58304387D02*
X147979927Y-59193321D01*
X147979927Y-59193321D02*
X148545613Y-58627636D01*
X148249301Y-59462695D02*
X148814987Y-58897010D01*
X148814987Y-58897010D02*
X148949674Y-59031697D01*
X148949674Y-59031697D02*
X149003549Y-59139446D01*
X149003549Y-59139446D02*
X149003549Y-59247196D01*
X149003549Y-59247196D02*
X148976611Y-59328008D01*
X148976611Y-59328008D02*
X148895799Y-59462695D01*
X148895799Y-59462695D02*
X148814987Y-59543507D01*
X148814987Y-59543507D02*
X148680300Y-59624319D01*
X148680300Y-59624319D02*
X148599488Y-59651257D01*
X148599488Y-59651257D02*
X148491738Y-59651257D01*
X148491738Y-59651257D02*
X148383988Y-59597382D01*
X148383988Y-59597382D02*
X148249301Y-59462695D01*
X142603615Y-83673513D02*
X142576678Y-83592701D01*
X142576678Y-83592701D02*
X142495866Y-83511889D01*
X142495866Y-83511889D02*
X142388116Y-83458014D01*
X142388116Y-83458014D02*
X142280367Y-83458014D01*
X142280367Y-83458014D02*
X142199554Y-83484951D01*
X142199554Y-83484951D02*
X142064867Y-83565764D01*
X142064867Y-83565764D02*
X141984055Y-83646576D01*
X141984055Y-83646576D02*
X141903243Y-83781263D01*
X141903243Y-83781263D02*
X141876306Y-83862075D01*
X141876306Y-83862075D02*
X141876306Y-83969825D01*
X141876306Y-83969825D02*
X141930180Y-84077574D01*
X141930180Y-84077574D02*
X141984055Y-84131449D01*
X141984055Y-84131449D02*
X142091805Y-84185324D01*
X142091805Y-84185324D02*
X142145680Y-84185324D01*
X142145680Y-84185324D02*
X142334241Y-83996762D01*
X142334241Y-83996762D02*
X142226492Y-83889012D01*
X142334241Y-84481635D02*
X142899927Y-83915950D01*
X142899927Y-83915950D02*
X143115426Y-84131449D01*
X143115426Y-84131449D02*
X143142363Y-84212261D01*
X143142363Y-84212261D02*
X143142363Y-84266136D01*
X143142363Y-84266136D02*
X143115426Y-84346948D01*
X143115426Y-84346948D02*
X143034614Y-84427760D01*
X143034614Y-84427760D02*
X142953802Y-84454698D01*
X142953802Y-84454698D02*
X142899927Y-84454698D01*
X142899927Y-84454698D02*
X142819115Y-84427760D01*
X142819115Y-84427760D02*
X142603615Y-84212261D01*
X143384800Y-84508573D02*
X143438675Y-84508573D01*
X143438675Y-84508573D02*
X143519487Y-84535510D01*
X143519487Y-84535510D02*
X143654174Y-84670197D01*
X143654174Y-84670197D02*
X143681112Y-84751009D01*
X143681112Y-84751009D02*
X143681112Y-84804884D01*
X143681112Y-84804884D02*
X143654174Y-84885696D01*
X143654174Y-84885696D02*
X143600299Y-84939571D01*
X143600299Y-84939571D02*
X143492550Y-84993446D01*
X143492550Y-84993446D02*
X142846052Y-84993446D01*
X142846052Y-84993446D02*
X143196238Y-85343632D01*
X144246797Y-85262820D02*
X144139048Y-85155070D01*
X144139048Y-85155070D02*
X144058235Y-85128133D01*
X144058235Y-85128133D02*
X144004361Y-85128133D01*
X144004361Y-85128133D02*
X143869673Y-85155070D01*
X143869673Y-85155070D02*
X143734986Y-85235883D01*
X143734986Y-85235883D02*
X143519487Y-85451382D01*
X143519487Y-85451382D02*
X143492550Y-85532194D01*
X143492550Y-85532194D02*
X143492550Y-85586069D01*
X143492550Y-85586069D02*
X143519487Y-85666881D01*
X143519487Y-85666881D02*
X143627237Y-85774631D01*
X143627237Y-85774631D02*
X143708049Y-85801568D01*
X143708049Y-85801568D02*
X143761924Y-85801568D01*
X143761924Y-85801568D02*
X143842736Y-85774631D01*
X143842736Y-85774631D02*
X143977423Y-85639944D01*
X143977423Y-85639944D02*
X144004361Y-85559131D01*
X144004361Y-85559131D02*
X144004361Y-85505257D01*
X144004361Y-85505257D02*
X143977423Y-85424444D01*
X143977423Y-85424444D02*
X143869673Y-85316695D01*
X143869673Y-85316695D02*
X143788861Y-85289757D01*
X143788861Y-85289757D02*
X143734986Y-85289757D01*
X143734986Y-85289757D02*
X143654174Y-85316695D01*
X145412990Y-58088888D02*
X145386053Y-58008075D01*
X145386053Y-58008075D02*
X145305240Y-57927263D01*
X145305240Y-57927263D02*
X145197491Y-57873388D01*
X145197491Y-57873388D02*
X145089741Y-57873388D01*
X145089741Y-57873388D02*
X145008929Y-57900326D01*
X145008929Y-57900326D02*
X144874242Y-57981138D01*
X144874242Y-57981138D02*
X144793430Y-58061950D01*
X144793430Y-58061950D02*
X144712617Y-58196637D01*
X144712617Y-58196637D02*
X144685680Y-58277449D01*
X144685680Y-58277449D02*
X144685680Y-58385199D01*
X144685680Y-58385199D02*
X144739555Y-58492949D01*
X144739555Y-58492949D02*
X144793430Y-58546823D01*
X144793430Y-58546823D02*
X144901179Y-58600698D01*
X144901179Y-58600698D02*
X144955054Y-58600698D01*
X144955054Y-58600698D02*
X145143616Y-58412136D01*
X145143616Y-58412136D02*
X145035866Y-58304387D01*
X145143616Y-58897010D02*
X145709301Y-58331324D01*
X145709301Y-58331324D02*
X145924801Y-58546823D01*
X145924801Y-58546823D02*
X145951738Y-58627636D01*
X145951738Y-58627636D02*
X145951738Y-58681510D01*
X145951738Y-58681510D02*
X145924801Y-58762323D01*
X145924801Y-58762323D02*
X145843988Y-58843135D01*
X145843988Y-58843135D02*
X145763176Y-58870072D01*
X145763176Y-58870072D02*
X145709301Y-58870072D01*
X145709301Y-58870072D02*
X145628489Y-58843135D01*
X145628489Y-58843135D02*
X145412990Y-58627636D01*
X146517423Y-59139446D02*
X146409674Y-59031697D01*
X146409674Y-59031697D02*
X146328862Y-59004759D01*
X146328862Y-59004759D02*
X146274987Y-59004759D01*
X146274987Y-59004759D02*
X146140300Y-59031697D01*
X146140300Y-59031697D02*
X146005613Y-59112509D01*
X146005613Y-59112509D02*
X145790114Y-59328008D01*
X145790114Y-59328008D02*
X145763176Y-59408820D01*
X145763176Y-59408820D02*
X145763176Y-59462695D01*
X145763176Y-59462695D02*
X145790114Y-59543507D01*
X145790114Y-59543507D02*
X145897863Y-59651257D01*
X145897863Y-59651257D02*
X145978675Y-59678194D01*
X145978675Y-59678194D02*
X146032550Y-59678194D01*
X146032550Y-59678194D02*
X146113362Y-59651257D01*
X146113362Y-59651257D02*
X146248049Y-59516570D01*
X146248049Y-59516570D02*
X146274987Y-59435758D01*
X146274987Y-59435758D02*
X146274987Y-59381883D01*
X146274987Y-59381883D02*
X146248049Y-59301071D01*
X146248049Y-59301071D02*
X146140300Y-59193321D01*
X146140300Y-59193321D02*
X146059488Y-59166384D01*
X146059488Y-59166384D02*
X146005613Y-59166384D01*
X146005613Y-59166384D02*
X145924801Y-59193321D01*
X157765900Y-83497923D02*
X158116086Y-83848109D01*
X158116086Y-83848109D02*
X157712025Y-83875046D01*
X157712025Y-83875046D02*
X157792837Y-83955859D01*
X157792837Y-83955859D02*
X157819775Y-84036671D01*
X157819775Y-84036671D02*
X157819775Y-84090546D01*
X157819775Y-84090546D02*
X157792837Y-84171358D01*
X157792837Y-84171358D02*
X157658150Y-84306045D01*
X157658150Y-84306045D02*
X157577338Y-84332982D01*
X157577338Y-84332982D02*
X157523463Y-84332982D01*
X157523463Y-84332982D02*
X157442651Y-84306045D01*
X157442651Y-84306045D02*
X157281027Y-84144420D01*
X157281027Y-84144420D02*
X157254089Y-84063608D01*
X157254089Y-84063608D02*
X157254089Y-84009733D01*
X158277711Y-84009733D02*
X157900587Y-84763981D01*
X157900587Y-84763981D02*
X158654834Y-84386857D01*
X158789521Y-84521544D02*
X159139707Y-84871730D01*
X159139707Y-84871730D02*
X158735646Y-84898668D01*
X158735646Y-84898668D02*
X158816458Y-84979480D01*
X158816458Y-84979480D02*
X158843396Y-85060292D01*
X158843396Y-85060292D02*
X158843396Y-85114167D01*
X158843396Y-85114167D02*
X158816458Y-85194979D01*
X158816458Y-85194979D02*
X158681771Y-85329666D01*
X158681771Y-85329666D02*
X158600959Y-85356603D01*
X158600959Y-85356603D02*
X158547084Y-85356603D01*
X158547084Y-85356603D02*
X158466272Y-85329666D01*
X158466272Y-85329666D02*
X158304648Y-85168042D01*
X158304648Y-85168042D02*
X158277710Y-85087229D01*
X158277710Y-85087229D02*
X158277710Y-85033355D01*
X158627897Y-85599040D02*
X159058895Y-86030039D01*
X159543769Y-85814539D02*
X159732330Y-86003101D01*
X159516831Y-86380225D02*
X159247457Y-86110851D01*
X159247457Y-86110851D02*
X159813143Y-85545165D01*
X159813143Y-85545165D02*
X160082517Y-85814539D01*
X159759268Y-86622662D02*
X160324954Y-86056976D01*
X160324954Y-86056976D02*
X160082517Y-86945911D01*
X160082517Y-86945911D02*
X160648202Y-86380225D01*
X124823615Y-57565513D02*
X124796678Y-57484701D01*
X124796678Y-57484701D02*
X124715866Y-57403889D01*
X124715866Y-57403889D02*
X124608116Y-57350014D01*
X124608116Y-57350014D02*
X124500367Y-57350014D01*
X124500367Y-57350014D02*
X124419554Y-57376951D01*
X124419554Y-57376951D02*
X124284867Y-57457764D01*
X124284867Y-57457764D02*
X124204055Y-57538576D01*
X124204055Y-57538576D02*
X124123243Y-57673263D01*
X124123243Y-57673263D02*
X124096306Y-57754075D01*
X124096306Y-57754075D02*
X124096306Y-57861825D01*
X124096306Y-57861825D02*
X124150180Y-57969574D01*
X124150180Y-57969574D02*
X124204055Y-58023449D01*
X124204055Y-58023449D02*
X124311805Y-58077324D01*
X124311805Y-58077324D02*
X124365680Y-58077324D01*
X124365680Y-58077324D02*
X124554241Y-57888762D01*
X124554241Y-57888762D02*
X124446492Y-57781012D01*
X124554241Y-58373635D02*
X125119927Y-57807950D01*
X125119927Y-57807950D02*
X125335426Y-58023449D01*
X125335426Y-58023449D02*
X125362363Y-58104261D01*
X125362363Y-58104261D02*
X125362363Y-58158136D01*
X125362363Y-58158136D02*
X125335426Y-58238948D01*
X125335426Y-58238948D02*
X125254614Y-58319760D01*
X125254614Y-58319760D02*
X125173802Y-58346698D01*
X125173802Y-58346698D02*
X125119927Y-58346698D01*
X125119927Y-58346698D02*
X125039115Y-58319760D01*
X125039115Y-58319760D02*
X124823615Y-58104261D01*
X125416238Y-59235632D02*
X125092989Y-58912383D01*
X125254614Y-59074008D02*
X125820299Y-58508322D01*
X125820299Y-58508322D02*
X125685612Y-58535260D01*
X125685612Y-58535260D02*
X125577863Y-58535260D01*
X125577863Y-58535260D02*
X125497051Y-58508322D01*
X126170486Y-58858509D02*
X126520672Y-59208695D01*
X126520672Y-59208695D02*
X126116611Y-59235632D01*
X126116611Y-59235632D02*
X126197423Y-59316444D01*
X126197423Y-59316444D02*
X126224361Y-59397257D01*
X126224361Y-59397257D02*
X126224361Y-59451131D01*
X126224361Y-59451131D02*
X126197423Y-59531944D01*
X126197423Y-59531944D02*
X126062736Y-59666631D01*
X126062736Y-59666631D02*
X125981924Y-59693568D01*
X125981924Y-59693568D02*
X125928049Y-59693568D01*
X125928049Y-59693568D02*
X125847237Y-59666631D01*
X125847237Y-59666631D02*
X125685612Y-59505006D01*
X125685612Y-59505006D02*
X125658675Y-59424194D01*
X125658675Y-59424194D02*
X125658675Y-59370319D01*
X119743615Y-57519513D02*
X119716678Y-57438701D01*
X119716678Y-57438701D02*
X119635866Y-57357889D01*
X119635866Y-57357889D02*
X119528116Y-57304014D01*
X119528116Y-57304014D02*
X119420367Y-57304014D01*
X119420367Y-57304014D02*
X119339554Y-57330951D01*
X119339554Y-57330951D02*
X119204867Y-57411764D01*
X119204867Y-57411764D02*
X119124055Y-57492576D01*
X119124055Y-57492576D02*
X119043243Y-57627263D01*
X119043243Y-57627263D02*
X119016306Y-57708075D01*
X119016306Y-57708075D02*
X119016306Y-57815825D01*
X119016306Y-57815825D02*
X119070180Y-57923574D01*
X119070180Y-57923574D02*
X119124055Y-57977449D01*
X119124055Y-57977449D02*
X119231805Y-58031324D01*
X119231805Y-58031324D02*
X119285680Y-58031324D01*
X119285680Y-58031324D02*
X119474241Y-57842762D01*
X119474241Y-57842762D02*
X119366492Y-57735012D01*
X119474241Y-58327635D02*
X120039927Y-57761950D01*
X120039927Y-57761950D02*
X120255426Y-57977449D01*
X120255426Y-57977449D02*
X120282363Y-58058261D01*
X120282363Y-58058261D02*
X120282363Y-58112136D01*
X120282363Y-58112136D02*
X120255426Y-58192948D01*
X120255426Y-58192948D02*
X120174614Y-58273760D01*
X120174614Y-58273760D02*
X120093802Y-58300698D01*
X120093802Y-58300698D02*
X120039927Y-58300698D01*
X120039927Y-58300698D02*
X119959115Y-58273760D01*
X119959115Y-58273760D02*
X119743615Y-58058261D01*
X120336238Y-59189632D02*
X120012989Y-58866383D01*
X120174614Y-59028008D02*
X120740299Y-58462322D01*
X120740299Y-58462322D02*
X120605612Y-58489260D01*
X120605612Y-58489260D02*
X120497863Y-58489260D01*
X120497863Y-58489260D02*
X120417051Y-58462322D01*
X121198235Y-59297382D02*
X120821112Y-59674505D01*
X121279048Y-58947196D02*
X120740299Y-59216570D01*
X120740299Y-59216570D02*
X121090486Y-59566756D01*
X139780773Y-84414167D02*
X139861585Y-83956231D01*
X139457524Y-84090918D02*
X140023210Y-83525233D01*
X140023210Y-83525233D02*
X140238709Y-83740732D01*
X140238709Y-83740732D02*
X140265646Y-83821544D01*
X140265646Y-83821544D02*
X140265646Y-83875419D01*
X140265646Y-83875419D02*
X140238709Y-83956231D01*
X140238709Y-83956231D02*
X140157897Y-84037043D01*
X140157897Y-84037043D02*
X140077085Y-84063981D01*
X140077085Y-84063981D02*
X140023210Y-84063981D01*
X140023210Y-84063981D02*
X139942398Y-84037043D01*
X139942398Y-84037043D02*
X139726898Y-83821544D01*
X140588895Y-84090918D02*
X140130959Y-84548854D01*
X140130959Y-84548854D02*
X140104022Y-84629666D01*
X140104022Y-84629666D02*
X140104022Y-84683541D01*
X140104022Y-84683541D02*
X140130959Y-84764353D01*
X140130959Y-84764353D02*
X140238709Y-84872103D01*
X140238709Y-84872103D02*
X140319521Y-84899040D01*
X140319521Y-84899040D02*
X140373396Y-84899040D01*
X140373396Y-84899040D02*
X140454208Y-84872103D01*
X140454208Y-84872103D02*
X140912144Y-84414167D01*
X140615832Y-85249226D02*
X141181518Y-84683541D01*
X141181518Y-84683541D02*
X140939081Y-85572475D01*
X140939081Y-85572475D02*
X141504767Y-85006789D01*
X163202990Y-57988888D02*
X163176053Y-57908075D01*
X163176053Y-57908075D02*
X163095240Y-57827263D01*
X163095240Y-57827263D02*
X162987491Y-57773388D01*
X162987491Y-57773388D02*
X162879741Y-57773388D01*
X162879741Y-57773388D02*
X162798929Y-57800326D01*
X162798929Y-57800326D02*
X162664242Y-57881138D01*
X162664242Y-57881138D02*
X162583430Y-57961950D01*
X162583430Y-57961950D02*
X162502617Y-58096637D01*
X162502617Y-58096637D02*
X162475680Y-58177449D01*
X162475680Y-58177449D02*
X162475680Y-58285199D01*
X162475680Y-58285199D02*
X162529555Y-58392949D01*
X162529555Y-58392949D02*
X162583430Y-58446823D01*
X162583430Y-58446823D02*
X162691179Y-58500698D01*
X162691179Y-58500698D02*
X162745054Y-58500698D01*
X162745054Y-58500698D02*
X162933616Y-58312136D01*
X162933616Y-58312136D02*
X162825866Y-58204387D01*
X162933616Y-58797010D02*
X163499301Y-58231324D01*
X163499301Y-58231324D02*
X163714801Y-58446823D01*
X163714801Y-58446823D02*
X163741738Y-58527636D01*
X163741738Y-58527636D02*
X163741738Y-58581510D01*
X163741738Y-58581510D02*
X163714801Y-58662323D01*
X163714801Y-58662323D02*
X163633988Y-58743135D01*
X163633988Y-58743135D02*
X163553176Y-58770072D01*
X163553176Y-58770072D02*
X163499301Y-58770072D01*
X163499301Y-58770072D02*
X163418489Y-58743135D01*
X163418489Y-58743135D02*
X163202990Y-58527636D01*
X163795613Y-59659006D02*
X163472364Y-59335758D01*
X163633988Y-59497382D02*
X164199674Y-58931697D01*
X164199674Y-58931697D02*
X164064987Y-58958634D01*
X164064987Y-58958634D02*
X163957237Y-58958634D01*
X163957237Y-58958634D02*
X163876425Y-58931697D01*
X165196898Y-83528921D02*
X164819775Y-84283168D01*
X164819775Y-84283168D02*
X165574022Y-83906045D01*
X165681771Y-84552542D02*
X165735646Y-84660292D01*
X165735646Y-84660292D02*
X165735646Y-84714167D01*
X165735646Y-84714167D02*
X165708709Y-84794979D01*
X165708709Y-84794979D02*
X165627896Y-84875791D01*
X165627896Y-84875791D02*
X165547084Y-84902728D01*
X165547084Y-84902728D02*
X165493209Y-84902728D01*
X165493209Y-84902728D02*
X165412397Y-84875791D01*
X165412397Y-84875791D02*
X165196898Y-84660292D01*
X165196898Y-84660292D02*
X165762583Y-84094606D01*
X165762583Y-84094606D02*
X165951145Y-84283168D01*
X165951145Y-84283168D02*
X165978083Y-84363980D01*
X165978083Y-84363980D02*
X165978083Y-84417855D01*
X165978083Y-84417855D02*
X165951145Y-84498667D01*
X165951145Y-84498667D02*
X165897270Y-84552542D01*
X165897270Y-84552542D02*
X165816458Y-84579480D01*
X165816458Y-84579480D02*
X165762583Y-84579480D01*
X165762583Y-84579480D02*
X165681771Y-84552542D01*
X165681771Y-84552542D02*
X165493209Y-84363980D01*
X166328269Y-84660292D02*
X165870333Y-85118228D01*
X165870333Y-85118228D02*
X165843396Y-85199040D01*
X165843396Y-85199040D02*
X165843396Y-85252915D01*
X165843396Y-85252915D02*
X165870333Y-85333727D01*
X165870333Y-85333727D02*
X165978083Y-85441476D01*
X165978083Y-85441476D02*
X166058895Y-85468414D01*
X166058895Y-85468414D02*
X166112770Y-85468414D01*
X166112770Y-85468414D02*
X166193582Y-85441476D01*
X166193582Y-85441476D02*
X166651518Y-84983541D01*
X166355206Y-85764725D02*
X166409081Y-85872475D01*
X166409081Y-85872475D02*
X166543768Y-86007162D01*
X166543768Y-86007162D02*
X166624580Y-86034099D01*
X166624580Y-86034099D02*
X166678455Y-86034099D01*
X166678455Y-86034099D02*
X166759267Y-86007162D01*
X166759267Y-86007162D02*
X166813142Y-85953287D01*
X166813142Y-85953287D02*
X166840079Y-85872475D01*
X166840079Y-85872475D02*
X166840079Y-85818600D01*
X166840079Y-85818600D02*
X166813142Y-85737788D01*
X166813142Y-85737788D02*
X166732330Y-85603101D01*
X166732330Y-85603101D02*
X166705392Y-85522288D01*
X166705392Y-85522288D02*
X166705392Y-85468414D01*
X166705392Y-85468414D02*
X166732330Y-85387601D01*
X166732330Y-85387601D02*
X166786205Y-85333727D01*
X166786205Y-85333727D02*
X166867017Y-85306789D01*
X166867017Y-85306789D02*
X166920892Y-85306789D01*
X166920892Y-85306789D02*
X167001704Y-85333727D01*
X167001704Y-85333727D02*
X167136391Y-85468414D01*
X167136391Y-85468414D02*
X167190266Y-85576163D01*
X155572990Y-58088888D02*
X155546053Y-58008075D01*
X155546053Y-58008075D02*
X155465240Y-57927263D01*
X155465240Y-57927263D02*
X155357491Y-57873388D01*
X155357491Y-57873388D02*
X155249741Y-57873388D01*
X155249741Y-57873388D02*
X155168929Y-57900326D01*
X155168929Y-57900326D02*
X155034242Y-57981138D01*
X155034242Y-57981138D02*
X154953430Y-58061950D01*
X154953430Y-58061950D02*
X154872617Y-58196637D01*
X154872617Y-58196637D02*
X154845680Y-58277449D01*
X154845680Y-58277449D02*
X154845680Y-58385199D01*
X154845680Y-58385199D02*
X154899555Y-58492949D01*
X154899555Y-58492949D02*
X154953430Y-58546823D01*
X154953430Y-58546823D02*
X155061179Y-58600698D01*
X155061179Y-58600698D02*
X155115054Y-58600698D01*
X155115054Y-58600698D02*
X155303616Y-58412136D01*
X155303616Y-58412136D02*
X155195866Y-58304387D01*
X155303616Y-58897010D02*
X155869301Y-58331324D01*
X155869301Y-58331324D02*
X156084801Y-58546823D01*
X156084801Y-58546823D02*
X156111738Y-58627636D01*
X156111738Y-58627636D02*
X156111738Y-58681510D01*
X156111738Y-58681510D02*
X156084801Y-58762323D01*
X156084801Y-58762323D02*
X156003988Y-58843135D01*
X156003988Y-58843135D02*
X155923176Y-58870072D01*
X155923176Y-58870072D02*
X155869301Y-58870072D01*
X155869301Y-58870072D02*
X155788489Y-58843135D01*
X155788489Y-58843135D02*
X155572990Y-58627636D01*
X156381112Y-58843135D02*
X156731298Y-59193321D01*
X156731298Y-59193321D02*
X156327237Y-59220258D01*
X156327237Y-59220258D02*
X156408049Y-59301071D01*
X156408049Y-59301071D02*
X156434987Y-59381883D01*
X156434987Y-59381883D02*
X156434987Y-59435758D01*
X156434987Y-59435758D02*
X156408049Y-59516570D01*
X156408049Y-59516570D02*
X156273362Y-59651257D01*
X156273362Y-59651257D02*
X156192550Y-59678194D01*
X156192550Y-59678194D02*
X156138675Y-59678194D01*
X156138675Y-59678194D02*
X156057863Y-59651257D01*
X156057863Y-59651257D02*
X155896239Y-59489632D01*
X155896239Y-59489632D02*
X155869301Y-59408820D01*
X155869301Y-59408820D02*
X155869301Y-59354945D01*
X119743615Y-83673513D02*
X119716678Y-83592701D01*
X119716678Y-83592701D02*
X119635866Y-83511889D01*
X119635866Y-83511889D02*
X119528116Y-83458014D01*
X119528116Y-83458014D02*
X119420367Y-83458014D01*
X119420367Y-83458014D02*
X119339554Y-83484951D01*
X119339554Y-83484951D02*
X119204867Y-83565764D01*
X119204867Y-83565764D02*
X119124055Y-83646576D01*
X119124055Y-83646576D02*
X119043243Y-83781263D01*
X119043243Y-83781263D02*
X119016306Y-83862075D01*
X119016306Y-83862075D02*
X119016306Y-83969825D01*
X119016306Y-83969825D02*
X119070180Y-84077574D01*
X119070180Y-84077574D02*
X119124055Y-84131449D01*
X119124055Y-84131449D02*
X119231805Y-84185324D01*
X119231805Y-84185324D02*
X119285680Y-84185324D01*
X119285680Y-84185324D02*
X119474241Y-83996762D01*
X119474241Y-83996762D02*
X119366492Y-83889012D01*
X119474241Y-84481635D02*
X120039927Y-83915950D01*
X120039927Y-83915950D02*
X120255426Y-84131449D01*
X120255426Y-84131449D02*
X120282363Y-84212261D01*
X120282363Y-84212261D02*
X120282363Y-84266136D01*
X120282363Y-84266136D02*
X120255426Y-84346948D01*
X120255426Y-84346948D02*
X120174614Y-84427760D01*
X120174614Y-84427760D02*
X120093802Y-84454698D01*
X120093802Y-84454698D02*
X120039927Y-84454698D01*
X120039927Y-84454698D02*
X119959115Y-84427760D01*
X119959115Y-84427760D02*
X119743615Y-84212261D01*
X120336238Y-85343632D02*
X120012989Y-85020383D01*
X120174614Y-85182008D02*
X120740299Y-84616322D01*
X120740299Y-84616322D02*
X120605612Y-84643260D01*
X120605612Y-84643260D02*
X120497863Y-84643260D01*
X120497863Y-84643260D02*
X120417051Y-84616322D01*
X121090486Y-84966509D02*
X121467609Y-85343632D01*
X121467609Y-85343632D02*
X120659487Y-85666881D01*
X155233616Y-83465638D02*
X155583802Y-83815825D01*
X155583802Y-83815825D02*
X155179741Y-83842762D01*
X155179741Y-83842762D02*
X155260553Y-83923574D01*
X155260553Y-83923574D02*
X155287490Y-84004386D01*
X155287490Y-84004386D02*
X155287490Y-84058261D01*
X155287490Y-84058261D02*
X155260553Y-84139073D01*
X155260553Y-84139073D02*
X155125866Y-84273760D01*
X155125866Y-84273760D02*
X155045054Y-84300698D01*
X155045054Y-84300698D02*
X154991179Y-84300698D01*
X154991179Y-84300698D02*
X154910367Y-84273760D01*
X154910367Y-84273760D02*
X154748742Y-84112136D01*
X154748742Y-84112136D02*
X154721805Y-84031324D01*
X154721805Y-84031324D02*
X154721805Y-83977449D01*
X155745426Y-83977449D02*
X155368303Y-84731696D01*
X155368303Y-84731696D02*
X156122550Y-84354573D01*
X156257237Y-84489260D02*
X156607423Y-84839446D01*
X156607423Y-84839446D02*
X156203362Y-84866383D01*
X156203362Y-84866383D02*
X156284174Y-84947195D01*
X156284174Y-84947195D02*
X156311112Y-85028008D01*
X156311112Y-85028008D02*
X156311112Y-85081882D01*
X156311112Y-85081882D02*
X156284174Y-85162695D01*
X156284174Y-85162695D02*
X156149487Y-85297382D01*
X156149487Y-85297382D02*
X156068675Y-85324319D01*
X156068675Y-85324319D02*
X156014800Y-85324319D01*
X156014800Y-85324319D02*
X155933988Y-85297382D01*
X155933988Y-85297382D02*
X155772364Y-85135757D01*
X155772364Y-85135757D02*
X155745426Y-85054945D01*
X155745426Y-85054945D02*
X155745426Y-85001070D01*
X124823615Y-83673513D02*
X124796678Y-83592701D01*
X124796678Y-83592701D02*
X124715866Y-83511889D01*
X124715866Y-83511889D02*
X124608116Y-83458014D01*
X124608116Y-83458014D02*
X124500367Y-83458014D01*
X124500367Y-83458014D02*
X124419554Y-83484951D01*
X124419554Y-83484951D02*
X124284867Y-83565764D01*
X124284867Y-83565764D02*
X124204055Y-83646576D01*
X124204055Y-83646576D02*
X124123243Y-83781263D01*
X124123243Y-83781263D02*
X124096306Y-83862075D01*
X124096306Y-83862075D02*
X124096306Y-83969825D01*
X124096306Y-83969825D02*
X124150180Y-84077574D01*
X124150180Y-84077574D02*
X124204055Y-84131449D01*
X124204055Y-84131449D02*
X124311805Y-84185324D01*
X124311805Y-84185324D02*
X124365680Y-84185324D01*
X124365680Y-84185324D02*
X124554241Y-83996762D01*
X124554241Y-83996762D02*
X124446492Y-83889012D01*
X124554241Y-84481635D02*
X125119927Y-83915950D01*
X125119927Y-83915950D02*
X125335426Y-84131449D01*
X125335426Y-84131449D02*
X125362363Y-84212261D01*
X125362363Y-84212261D02*
X125362363Y-84266136D01*
X125362363Y-84266136D02*
X125335426Y-84346948D01*
X125335426Y-84346948D02*
X125254614Y-84427760D01*
X125254614Y-84427760D02*
X125173802Y-84454698D01*
X125173802Y-84454698D02*
X125119927Y-84454698D01*
X125119927Y-84454698D02*
X125039115Y-84427760D01*
X125039115Y-84427760D02*
X124823615Y-84212261D01*
X125416238Y-85343632D02*
X125092989Y-85020383D01*
X125254614Y-85182008D02*
X125820299Y-84616322D01*
X125820299Y-84616322D02*
X125685612Y-84643260D01*
X125685612Y-84643260D02*
X125577863Y-84643260D01*
X125577863Y-84643260D02*
X125497051Y-84616322D01*
X126062736Y-85343632D02*
X126035799Y-85262820D01*
X126035799Y-85262820D02*
X126035799Y-85208945D01*
X126035799Y-85208945D02*
X126062736Y-85128133D01*
X126062736Y-85128133D02*
X126089673Y-85101196D01*
X126089673Y-85101196D02*
X126170486Y-85074258D01*
X126170486Y-85074258D02*
X126224361Y-85074258D01*
X126224361Y-85074258D02*
X126305173Y-85101196D01*
X126305173Y-85101196D02*
X126412922Y-85208945D01*
X126412922Y-85208945D02*
X126439860Y-85289757D01*
X126439860Y-85289757D02*
X126439860Y-85343632D01*
X126439860Y-85343632D02*
X126412922Y-85424444D01*
X126412922Y-85424444D02*
X126385985Y-85451382D01*
X126385985Y-85451382D02*
X126305173Y-85478319D01*
X126305173Y-85478319D02*
X126251298Y-85478319D01*
X126251298Y-85478319D02*
X126170486Y-85451382D01*
X126170486Y-85451382D02*
X126062736Y-85343632D01*
X126062736Y-85343632D02*
X125981924Y-85316695D01*
X125981924Y-85316695D02*
X125928049Y-85316695D01*
X125928049Y-85316695D02*
X125847237Y-85343632D01*
X125847237Y-85343632D02*
X125739487Y-85451382D01*
X125739487Y-85451382D02*
X125712550Y-85532194D01*
X125712550Y-85532194D02*
X125712550Y-85586069D01*
X125712550Y-85586069D02*
X125739487Y-85666881D01*
X125739487Y-85666881D02*
X125847237Y-85774631D01*
X125847237Y-85774631D02*
X125928049Y-85801568D01*
X125928049Y-85801568D02*
X125981924Y-85801568D01*
X125981924Y-85801568D02*
X126062736Y-85774631D01*
X126062736Y-85774631D02*
X126170486Y-85666881D01*
X126170486Y-85666881D02*
X126197423Y-85586069D01*
X126197423Y-85586069D02*
X126197423Y-85532194D01*
X126197423Y-85532194D02*
X126170486Y-85451382D01*
X146983244Y-83727389D02*
X147252618Y-83996763D01*
X146767745Y-83835138D02*
X147521992Y-83458015D01*
X147521992Y-83458015D02*
X147144868Y-84212262D01*
X148168489Y-84158387D02*
X148141552Y-84077575D01*
X148141552Y-84077575D02*
X148060740Y-83996762D01*
X148060740Y-83996762D02*
X147952990Y-83942888D01*
X147952990Y-83942888D02*
X147845240Y-83942888D01*
X147845240Y-83942888D02*
X147764428Y-83969825D01*
X147764428Y-83969825D02*
X147629741Y-84050637D01*
X147629741Y-84050637D02*
X147548929Y-84131449D01*
X147548929Y-84131449D02*
X147468117Y-84266136D01*
X147468117Y-84266136D02*
X147441179Y-84346949D01*
X147441179Y-84346949D02*
X147441179Y-84454698D01*
X147441179Y-84454698D02*
X147495054Y-84562448D01*
X147495054Y-84562448D02*
X147548929Y-84616323D01*
X147548929Y-84616323D02*
X147656679Y-84670197D01*
X147656679Y-84670197D02*
X147710553Y-84670197D01*
X147710553Y-84670197D02*
X147899115Y-84481636D01*
X147899115Y-84481636D02*
X147791366Y-84373886D01*
X147899115Y-84966509D02*
X148464801Y-84400823D01*
X148464801Y-84400823D02*
X148222364Y-85289758D01*
X148222364Y-85289758D02*
X148788049Y-84724072D01*
X148491738Y-85559132D02*
X149057423Y-84993446D01*
X149057423Y-84993446D02*
X149192110Y-85128133D01*
X149192110Y-85128133D02*
X149245985Y-85235883D01*
X149245985Y-85235883D02*
X149245985Y-85343632D01*
X149245985Y-85343632D02*
X149219048Y-85424445D01*
X149219048Y-85424445D02*
X149138235Y-85559132D01*
X149138235Y-85559132D02*
X149057423Y-85639944D01*
X149057423Y-85639944D02*
X148922736Y-85720756D01*
X148922736Y-85720756D02*
X148841924Y-85747693D01*
X148841924Y-85747693D02*
X148734174Y-85747693D01*
X148734174Y-85747693D02*
X148626425Y-85693819D01*
X148626425Y-85693819D02*
X148491738Y-85559132D01*
X150477615Y-83673513D02*
X150450678Y-83592701D01*
X150450678Y-83592701D02*
X150369866Y-83511889D01*
X150369866Y-83511889D02*
X150262116Y-83458014D01*
X150262116Y-83458014D02*
X150154367Y-83458014D01*
X150154367Y-83458014D02*
X150073554Y-83484951D01*
X150073554Y-83484951D02*
X149938867Y-83565764D01*
X149938867Y-83565764D02*
X149858055Y-83646576D01*
X149858055Y-83646576D02*
X149777243Y-83781263D01*
X149777243Y-83781263D02*
X149750306Y-83862075D01*
X149750306Y-83862075D02*
X149750306Y-83969825D01*
X149750306Y-83969825D02*
X149804180Y-84077574D01*
X149804180Y-84077574D02*
X149858055Y-84131449D01*
X149858055Y-84131449D02*
X149965805Y-84185324D01*
X149965805Y-84185324D02*
X150019680Y-84185324D01*
X150019680Y-84185324D02*
X150208241Y-83996762D01*
X150208241Y-83996762D02*
X150100492Y-83889012D01*
X150208241Y-84481635D02*
X150773927Y-83915950D01*
X150773927Y-83915950D02*
X150989426Y-84131449D01*
X150989426Y-84131449D02*
X151016363Y-84212261D01*
X151016363Y-84212261D02*
X151016363Y-84266136D01*
X151016363Y-84266136D02*
X150989426Y-84346948D01*
X150989426Y-84346948D02*
X150908614Y-84427760D01*
X150908614Y-84427760D02*
X150827802Y-84454698D01*
X150827802Y-84454698D02*
X150773927Y-84454698D01*
X150773927Y-84454698D02*
X150693115Y-84427760D01*
X150693115Y-84427760D02*
X150477615Y-84212261D01*
X151258800Y-84508573D02*
X151312675Y-84508573D01*
X151312675Y-84508573D02*
X151393487Y-84535510D01*
X151393487Y-84535510D02*
X151528174Y-84670197D01*
X151528174Y-84670197D02*
X151555112Y-84751009D01*
X151555112Y-84751009D02*
X151555112Y-84804884D01*
X151555112Y-84804884D02*
X151528174Y-84885696D01*
X151528174Y-84885696D02*
X151474299Y-84939571D01*
X151474299Y-84939571D02*
X151366550Y-84993446D01*
X151366550Y-84993446D02*
X150720052Y-84993446D01*
X150720052Y-84993446D02*
X151070238Y-85343632D01*
X151716736Y-85343632D02*
X151689799Y-85262820D01*
X151689799Y-85262820D02*
X151689799Y-85208945D01*
X151689799Y-85208945D02*
X151716736Y-85128133D01*
X151716736Y-85128133D02*
X151743673Y-85101196D01*
X151743673Y-85101196D02*
X151824486Y-85074258D01*
X151824486Y-85074258D02*
X151878361Y-85074258D01*
X151878361Y-85074258D02*
X151959173Y-85101196D01*
X151959173Y-85101196D02*
X152066922Y-85208945D01*
X152066922Y-85208945D02*
X152093860Y-85289757D01*
X152093860Y-85289757D02*
X152093860Y-85343632D01*
X152093860Y-85343632D02*
X152066922Y-85424444D01*
X152066922Y-85424444D02*
X152039985Y-85451382D01*
X152039985Y-85451382D02*
X151959173Y-85478319D01*
X151959173Y-85478319D02*
X151905298Y-85478319D01*
X151905298Y-85478319D02*
X151824486Y-85451382D01*
X151824486Y-85451382D02*
X151716736Y-85343632D01*
X151716736Y-85343632D02*
X151635924Y-85316695D01*
X151635924Y-85316695D02*
X151582049Y-85316695D01*
X151582049Y-85316695D02*
X151501237Y-85343632D01*
X151501237Y-85343632D02*
X151393487Y-85451382D01*
X151393487Y-85451382D02*
X151366550Y-85532194D01*
X151366550Y-85532194D02*
X151366550Y-85586069D01*
X151366550Y-85586069D02*
X151393487Y-85666881D01*
X151393487Y-85666881D02*
X151501237Y-85774631D01*
X151501237Y-85774631D02*
X151582049Y-85801568D01*
X151582049Y-85801568D02*
X151635924Y-85801568D01*
X151635924Y-85801568D02*
X151716736Y-85774631D01*
X151716736Y-85774631D02*
X151824486Y-85666881D01*
X151824486Y-85666881D02*
X151851423Y-85586069D01*
X151851423Y-85586069D02*
X151851423Y-85532194D01*
X151851423Y-85532194D02*
X151824486Y-85451382D01*
X117203615Y-83673513D02*
X117176678Y-83592701D01*
X117176678Y-83592701D02*
X117095866Y-83511889D01*
X117095866Y-83511889D02*
X116988116Y-83458014D01*
X116988116Y-83458014D02*
X116880367Y-83458014D01*
X116880367Y-83458014D02*
X116799554Y-83484951D01*
X116799554Y-83484951D02*
X116664867Y-83565764D01*
X116664867Y-83565764D02*
X116584055Y-83646576D01*
X116584055Y-83646576D02*
X116503243Y-83781263D01*
X116503243Y-83781263D02*
X116476306Y-83862075D01*
X116476306Y-83862075D02*
X116476306Y-83969825D01*
X116476306Y-83969825D02*
X116530180Y-84077574D01*
X116530180Y-84077574D02*
X116584055Y-84131449D01*
X116584055Y-84131449D02*
X116691805Y-84185324D01*
X116691805Y-84185324D02*
X116745680Y-84185324D01*
X116745680Y-84185324D02*
X116934241Y-83996762D01*
X116934241Y-83996762D02*
X116826492Y-83889012D01*
X116934241Y-84481635D02*
X117499927Y-83915950D01*
X117499927Y-83915950D02*
X117715426Y-84131449D01*
X117715426Y-84131449D02*
X117742363Y-84212261D01*
X117742363Y-84212261D02*
X117742363Y-84266136D01*
X117742363Y-84266136D02*
X117715426Y-84346948D01*
X117715426Y-84346948D02*
X117634614Y-84427760D01*
X117634614Y-84427760D02*
X117553802Y-84454698D01*
X117553802Y-84454698D02*
X117499927Y-84454698D01*
X117499927Y-84454698D02*
X117419115Y-84427760D01*
X117419115Y-84427760D02*
X117203615Y-84212261D01*
X117796238Y-85343632D02*
X117472989Y-85020383D01*
X117634614Y-85182008D02*
X118200299Y-84616322D01*
X118200299Y-84616322D02*
X118065612Y-84643260D01*
X118065612Y-84643260D02*
X117957863Y-84643260D01*
X117957863Y-84643260D02*
X117877051Y-84616322D01*
X118846797Y-85262820D02*
X118739048Y-85155070D01*
X118739048Y-85155070D02*
X118658235Y-85128133D01*
X118658235Y-85128133D02*
X118604361Y-85128133D01*
X118604361Y-85128133D02*
X118469673Y-85155070D01*
X118469673Y-85155070D02*
X118334986Y-85235883D01*
X118334986Y-85235883D02*
X118119487Y-85451382D01*
X118119487Y-85451382D02*
X118092550Y-85532194D01*
X118092550Y-85532194D02*
X118092550Y-85586069D01*
X118092550Y-85586069D02*
X118119487Y-85666881D01*
X118119487Y-85666881D02*
X118227237Y-85774631D01*
X118227237Y-85774631D02*
X118308049Y-85801568D01*
X118308049Y-85801568D02*
X118361924Y-85801568D01*
X118361924Y-85801568D02*
X118442736Y-85774631D01*
X118442736Y-85774631D02*
X118577423Y-85639944D01*
X118577423Y-85639944D02*
X118604361Y-85559131D01*
X118604361Y-85559131D02*
X118604361Y-85505257D01*
X118604361Y-85505257D02*
X118577423Y-85424444D01*
X118577423Y-85424444D02*
X118469673Y-85316695D01*
X118469673Y-85316695D02*
X118388861Y-85289757D01*
X118388861Y-85289757D02*
X118334986Y-85289757D01*
X118334986Y-85289757D02*
X118254174Y-85316695D01*
X122526053Y-58061950D02*
X122499115Y-57981138D01*
X122499115Y-57981138D02*
X122418303Y-57900326D01*
X122418303Y-57900326D02*
X122310553Y-57846451D01*
X122310553Y-57846451D02*
X122202804Y-57846451D01*
X122202804Y-57846451D02*
X122121992Y-57873389D01*
X122121992Y-57873389D02*
X121987305Y-57954201D01*
X121987305Y-57954201D02*
X121906492Y-58035013D01*
X121906492Y-58035013D02*
X121825680Y-58169700D01*
X121825680Y-58169700D02*
X121798743Y-58250512D01*
X121798743Y-58250512D02*
X121798743Y-58358262D01*
X121798743Y-58358262D02*
X121852618Y-58466011D01*
X121852618Y-58466011D02*
X121906492Y-58519886D01*
X121906492Y-58519886D02*
X122014242Y-58573761D01*
X122014242Y-58573761D02*
X122068117Y-58573761D01*
X122068117Y-58573761D02*
X122256679Y-58385199D01*
X122256679Y-58385199D02*
X122148929Y-58277450D01*
X122256679Y-58870072D02*
X122822364Y-58304387D01*
X122822364Y-58304387D02*
X122579927Y-59193321D01*
X122579927Y-59193321D02*
X123145613Y-58627636D01*
X122849301Y-59462695D02*
X123414987Y-58897010D01*
X123414987Y-58897010D02*
X123549674Y-59031697D01*
X123549674Y-59031697D02*
X123603549Y-59139446D01*
X123603549Y-59139446D02*
X123603549Y-59247196D01*
X123603549Y-59247196D02*
X123576611Y-59328008D01*
X123576611Y-59328008D02*
X123495799Y-59462695D01*
X123495799Y-59462695D02*
X123414987Y-59543507D01*
X123414987Y-59543507D02*
X123280300Y-59624319D01*
X123280300Y-59624319D02*
X123199488Y-59651257D01*
X123199488Y-59651257D02*
X123091738Y-59651257D01*
X123091738Y-59651257D02*
X122983988Y-59597382D01*
X122983988Y-59597382D02*
X122849301Y-59462695D01*
X122526053Y-83661950D02*
X122499115Y-83581138D01*
X122499115Y-83581138D02*
X122418303Y-83500326D01*
X122418303Y-83500326D02*
X122310553Y-83446451D01*
X122310553Y-83446451D02*
X122202804Y-83446451D01*
X122202804Y-83446451D02*
X122121992Y-83473389D01*
X122121992Y-83473389D02*
X121987305Y-83554201D01*
X121987305Y-83554201D02*
X121906492Y-83635013D01*
X121906492Y-83635013D02*
X121825680Y-83769700D01*
X121825680Y-83769700D02*
X121798743Y-83850512D01*
X121798743Y-83850512D02*
X121798743Y-83958262D01*
X121798743Y-83958262D02*
X121852618Y-84066011D01*
X121852618Y-84066011D02*
X121906492Y-84119886D01*
X121906492Y-84119886D02*
X122014242Y-84173761D01*
X122014242Y-84173761D02*
X122068117Y-84173761D01*
X122068117Y-84173761D02*
X122256679Y-83985199D01*
X122256679Y-83985199D02*
X122148929Y-83877450D01*
X122256679Y-84470072D02*
X122822364Y-83904387D01*
X122822364Y-83904387D02*
X122579927Y-84793321D01*
X122579927Y-84793321D02*
X123145613Y-84227636D01*
X122849301Y-85062695D02*
X123414987Y-84497010D01*
X123414987Y-84497010D02*
X123549674Y-84631697D01*
X123549674Y-84631697D02*
X123603549Y-84739446D01*
X123603549Y-84739446D02*
X123603549Y-84847196D01*
X123603549Y-84847196D02*
X123576611Y-84928008D01*
X123576611Y-84928008D02*
X123495799Y-85062695D01*
X123495799Y-85062695D02*
X123414987Y-85143507D01*
X123414987Y-85143507D02*
X123280300Y-85224319D01*
X123280300Y-85224319D02*
X123199488Y-85251257D01*
X123199488Y-85251257D02*
X123091738Y-85251257D01*
X123091738Y-85251257D02*
X122983988Y-85197382D01*
X122983988Y-85197382D02*
X122849301Y-85062695D01*
X160626053Y-83661950D02*
X160599115Y-83581138D01*
X160599115Y-83581138D02*
X160518303Y-83500326D01*
X160518303Y-83500326D02*
X160410553Y-83446451D01*
X160410553Y-83446451D02*
X160302804Y-83446451D01*
X160302804Y-83446451D02*
X160221992Y-83473389D01*
X160221992Y-83473389D02*
X160087305Y-83554201D01*
X160087305Y-83554201D02*
X160006492Y-83635013D01*
X160006492Y-83635013D02*
X159925680Y-83769700D01*
X159925680Y-83769700D02*
X159898743Y-83850512D01*
X159898743Y-83850512D02*
X159898743Y-83958262D01*
X159898743Y-83958262D02*
X159952618Y-84066011D01*
X159952618Y-84066011D02*
X160006492Y-84119886D01*
X160006492Y-84119886D02*
X160114242Y-84173761D01*
X160114242Y-84173761D02*
X160168117Y-84173761D01*
X160168117Y-84173761D02*
X160356679Y-83985199D01*
X160356679Y-83985199D02*
X160248929Y-83877450D01*
X160356679Y-84470072D02*
X160922364Y-83904387D01*
X160922364Y-83904387D02*
X160679927Y-84793321D01*
X160679927Y-84793321D02*
X161245613Y-84227636D01*
X160949301Y-85062695D02*
X161514987Y-84497010D01*
X161514987Y-84497010D02*
X161649674Y-84631697D01*
X161649674Y-84631697D02*
X161703549Y-84739446D01*
X161703549Y-84739446D02*
X161703549Y-84847196D01*
X161703549Y-84847196D02*
X161676611Y-84928008D01*
X161676611Y-84928008D02*
X161595799Y-85062695D01*
X161595799Y-85062695D02*
X161514987Y-85143507D01*
X161514987Y-85143507D02*
X161380300Y-85224319D01*
X161380300Y-85224319D02*
X161299488Y-85251257D01*
X161299488Y-85251257D02*
X161191738Y-85251257D01*
X161191738Y-85251257D02*
X161083988Y-85197382D01*
X161083988Y-85197382D02*
X160949301Y-85062695D01*
X152190434Y-83730579D02*
X152459808Y-83999953D01*
X151974935Y-83838329D02*
X152729182Y-83461205D01*
X152729182Y-83461205D02*
X152352059Y-84215452D01*
X152540620Y-84404014D02*
X153106306Y-83838329D01*
X153106306Y-83838329D02*
X153240993Y-83973016D01*
X153240993Y-83973016D02*
X153294867Y-84080765D01*
X153294867Y-84080765D02*
X153294867Y-84188515D01*
X153294867Y-84188515D02*
X153267930Y-84269327D01*
X153267930Y-84269327D02*
X153187118Y-84404014D01*
X153187118Y-84404014D02*
X153106306Y-84484826D01*
X153106306Y-84484826D02*
X152971619Y-84565638D01*
X152971619Y-84565638D02*
X152890806Y-84592576D01*
X152890806Y-84592576D02*
X152783057Y-84592576D01*
X152783057Y-84592576D02*
X152675307Y-84538701D01*
X152675307Y-84538701D02*
X152540620Y-84404014D01*
X153483429Y-85239073D02*
X153429554Y-85239073D01*
X153429554Y-85239073D02*
X153321805Y-85185199D01*
X153321805Y-85185199D02*
X153267930Y-85131324D01*
X153267930Y-85131324D02*
X153214055Y-85023574D01*
X153214055Y-85023574D02*
X153214055Y-84915825D01*
X153214055Y-84915825D02*
X153240993Y-84835012D01*
X153240993Y-84835012D02*
X153321805Y-84700325D01*
X153321805Y-84700325D02*
X153402617Y-84619513D01*
X153402617Y-84619513D02*
X153537304Y-84538701D01*
X153537304Y-84538701D02*
X153618116Y-84511764D01*
X153618116Y-84511764D02*
X153725866Y-84511764D01*
X153725866Y-84511764D02*
X153833616Y-84565638D01*
X153833616Y-84565638D02*
X153887490Y-84619513D01*
X153887490Y-84619513D02*
X153941365Y-84727263D01*
X153941365Y-84727263D02*
X153941365Y-84781138D01*
X153483429Y-85454573D02*
X153914428Y-85885571D01*
X154587863Y-85319886D02*
X154210739Y-86074133D01*
X154210739Y-86074133D02*
X154964986Y-85697009D01*
X154911111Y-86774505D02*
X154991924Y-86316569D01*
X154587863Y-86451256D02*
X155153548Y-85885571D01*
X155153548Y-85885571D02*
X155369047Y-86101070D01*
X155369047Y-86101070D02*
X155395985Y-86181882D01*
X155395985Y-86181882D02*
X155395985Y-86235757D01*
X155395985Y-86235757D02*
X155369047Y-86316569D01*
X155369047Y-86316569D02*
X155288235Y-86397382D01*
X155288235Y-86397382D02*
X155207423Y-86424319D01*
X155207423Y-86424319D02*
X155153548Y-86424319D01*
X155153548Y-86424319D02*
X155072736Y-86397382D01*
X155072736Y-86397382D02*
X154857237Y-86181882D01*
X155449860Y-86720630D02*
X155638421Y-86909192D01*
X155422922Y-87286316D02*
X155153548Y-87016942D01*
X155153548Y-87016942D02*
X155719234Y-86451256D01*
X155719234Y-86451256D02*
X155988608Y-86720630D01*
X156150232Y-87421003D02*
X155961670Y-87232441D01*
X155665359Y-87528753D02*
X156231044Y-86963067D01*
X156231044Y-86963067D02*
X156500418Y-87232441D01*
X135226053Y-83661950D02*
X135199115Y-83581138D01*
X135199115Y-83581138D02*
X135118303Y-83500326D01*
X135118303Y-83500326D02*
X135010553Y-83446451D01*
X135010553Y-83446451D02*
X134902804Y-83446451D01*
X134902804Y-83446451D02*
X134821992Y-83473389D01*
X134821992Y-83473389D02*
X134687305Y-83554201D01*
X134687305Y-83554201D02*
X134606492Y-83635013D01*
X134606492Y-83635013D02*
X134525680Y-83769700D01*
X134525680Y-83769700D02*
X134498743Y-83850512D01*
X134498743Y-83850512D02*
X134498743Y-83958262D01*
X134498743Y-83958262D02*
X134552618Y-84066011D01*
X134552618Y-84066011D02*
X134606492Y-84119886D01*
X134606492Y-84119886D02*
X134714242Y-84173761D01*
X134714242Y-84173761D02*
X134768117Y-84173761D01*
X134768117Y-84173761D02*
X134956679Y-83985199D01*
X134956679Y-83985199D02*
X134848929Y-83877450D01*
X134956679Y-84470072D02*
X135522364Y-83904387D01*
X135522364Y-83904387D02*
X135279927Y-84793321D01*
X135279927Y-84793321D02*
X135845613Y-84227636D01*
X135549301Y-85062695D02*
X136114987Y-84497010D01*
X136114987Y-84497010D02*
X136249674Y-84631697D01*
X136249674Y-84631697D02*
X136303549Y-84739446D01*
X136303549Y-84739446D02*
X136303549Y-84847196D01*
X136303549Y-84847196D02*
X136276611Y-84928008D01*
X136276611Y-84928008D02*
X136195799Y-85062695D01*
X136195799Y-85062695D02*
X136114987Y-85143507D01*
X136114987Y-85143507D02*
X135980300Y-85224319D01*
X135980300Y-85224319D02*
X135899488Y-85251257D01*
X135899488Y-85251257D02*
X135791738Y-85251257D01*
X135791738Y-85251257D02*
X135683988Y-85197382D01*
X135683988Y-85197382D02*
X135549301Y-85062695D01*
X115862000Y-78865238D02*
X115900095Y-78750952D01*
X115900095Y-78750952D02*
X115900095Y-78560476D01*
X115900095Y-78560476D02*
X115862000Y-78484285D01*
X115862000Y-78484285D02*
X115823904Y-78446190D01*
X115823904Y-78446190D02*
X115747714Y-78408095D01*
X115747714Y-78408095D02*
X115671523Y-78408095D01*
X115671523Y-78408095D02*
X115595333Y-78446190D01*
X115595333Y-78446190D02*
X115557238Y-78484285D01*
X115557238Y-78484285D02*
X115519142Y-78560476D01*
X115519142Y-78560476D02*
X115481047Y-78712857D01*
X115481047Y-78712857D02*
X115442952Y-78789047D01*
X115442952Y-78789047D02*
X115404857Y-78827142D01*
X115404857Y-78827142D02*
X115328666Y-78865238D01*
X115328666Y-78865238D02*
X115252476Y-78865238D01*
X115252476Y-78865238D02*
X115176285Y-78827142D01*
X115176285Y-78827142D02*
X115138190Y-78789047D01*
X115138190Y-78789047D02*
X115100095Y-78712857D01*
X115100095Y-78712857D02*
X115100095Y-78522380D01*
X115100095Y-78522380D02*
X115138190Y-78408095D01*
X115100095Y-78141428D02*
X115900095Y-77950952D01*
X115900095Y-77950952D02*
X115328666Y-77798571D01*
X115328666Y-77798571D02*
X115900095Y-77646190D01*
X115900095Y-77646190D02*
X115100095Y-77455714D01*
X115900095Y-77150951D02*
X115100095Y-77150951D01*
X115100095Y-77150951D02*
X115100095Y-76960475D01*
X115100095Y-76960475D02*
X115138190Y-76846189D01*
X115138190Y-76846189D02*
X115214380Y-76769999D01*
X115214380Y-76769999D02*
X115290571Y-76731904D01*
X115290571Y-76731904D02*
X115442952Y-76693808D01*
X115442952Y-76693808D02*
X115557238Y-76693808D01*
X115557238Y-76693808D02*
X115709619Y-76731904D01*
X115709619Y-76731904D02*
X115785809Y-76769999D01*
X115785809Y-76769999D02*
X115862000Y-76846189D01*
X115862000Y-76846189D02*
X115900095Y-76960475D01*
X115900095Y-76960475D02*
X115900095Y-77150951D01*
X115900095Y-76350951D02*
X115100095Y-76350951D01*
X115100095Y-75817618D02*
X115100095Y-75665237D01*
X115100095Y-75665237D02*
X115138190Y-75589047D01*
X115138190Y-75589047D02*
X115214380Y-75512856D01*
X115214380Y-75512856D02*
X115366761Y-75474761D01*
X115366761Y-75474761D02*
X115633428Y-75474761D01*
X115633428Y-75474761D02*
X115785809Y-75512856D01*
X115785809Y-75512856D02*
X115862000Y-75589047D01*
X115862000Y-75589047D02*
X115900095Y-75665237D01*
X115900095Y-75665237D02*
X115900095Y-75817618D01*
X115900095Y-75817618D02*
X115862000Y-75893809D01*
X115862000Y-75893809D02*
X115785809Y-75969999D01*
X115785809Y-75969999D02*
X115633428Y-76008095D01*
X115633428Y-76008095D02*
X115366761Y-76008095D01*
X115366761Y-76008095D02*
X115214380Y-75969999D01*
X115214380Y-75969999D02*
X115138190Y-75893809D01*
X115138190Y-75893809D02*
X115100095Y-75817618D01*
X162654242Y-83496265D02*
X162277118Y-84250512D01*
X162277118Y-84250512D02*
X163031365Y-83873388D01*
X162654241Y-84573760D02*
X162708116Y-84681510D01*
X162708116Y-84681510D02*
X162842803Y-84816197D01*
X162842803Y-84816197D02*
X162923615Y-84843134D01*
X162923615Y-84843134D02*
X162977490Y-84843134D01*
X162977490Y-84843134D02*
X163058302Y-84816197D01*
X163058302Y-84816197D02*
X163112177Y-84762322D01*
X163112177Y-84762322D02*
X163139115Y-84681510D01*
X163139115Y-84681510D02*
X163139115Y-84627635D01*
X163139115Y-84627635D02*
X163112177Y-84546823D01*
X163112177Y-84546823D02*
X163031365Y-84412136D01*
X163031365Y-84412136D02*
X163004428Y-84331324D01*
X163004428Y-84331324D02*
X163004428Y-84277449D01*
X163004428Y-84277449D02*
X163031365Y-84196637D01*
X163031365Y-84196637D02*
X163085240Y-84142762D01*
X163085240Y-84142762D02*
X163166052Y-84115825D01*
X163166052Y-84115825D02*
X163219927Y-84115825D01*
X163219927Y-84115825D02*
X163300739Y-84142762D01*
X163300739Y-84142762D02*
X163435426Y-84277449D01*
X163435426Y-84277449D02*
X163489301Y-84385199D01*
X163570113Y-85004759D02*
X163300739Y-85274133D01*
X163677863Y-84519886D02*
X163570113Y-85004759D01*
X163570113Y-85004759D02*
X164054986Y-84897009D01*
X163677863Y-85597382D02*
X163731737Y-85705131D01*
X163731737Y-85705131D02*
X163866424Y-85839818D01*
X163866424Y-85839818D02*
X163947237Y-85866756D01*
X163947237Y-85866756D02*
X164001111Y-85866756D01*
X164001111Y-85866756D02*
X164081924Y-85839818D01*
X164081924Y-85839818D02*
X164135798Y-85785943D01*
X164135798Y-85785943D02*
X164162736Y-85705131D01*
X164162736Y-85705131D02*
X164162736Y-85651256D01*
X164162736Y-85651256D02*
X164135798Y-85570444D01*
X164135798Y-85570444D02*
X164054986Y-85435757D01*
X164054986Y-85435757D02*
X164028049Y-85354945D01*
X164028049Y-85354945D02*
X164028049Y-85301070D01*
X164028049Y-85301070D02*
X164054986Y-85220258D01*
X164054986Y-85220258D02*
X164108861Y-85166383D01*
X164108861Y-85166383D02*
X164189673Y-85139446D01*
X164189673Y-85139446D02*
X164243548Y-85139446D01*
X164243548Y-85139446D02*
X164324360Y-85166383D01*
X164324360Y-85166383D02*
X164459047Y-85301070D01*
X164459047Y-85301070D02*
X164512922Y-85408820D01*
X129903615Y-57419513D02*
X129876678Y-57338701D01*
X129876678Y-57338701D02*
X129795866Y-57257889D01*
X129795866Y-57257889D02*
X129688116Y-57204014D01*
X129688116Y-57204014D02*
X129580367Y-57204014D01*
X129580367Y-57204014D02*
X129499554Y-57230951D01*
X129499554Y-57230951D02*
X129364867Y-57311764D01*
X129364867Y-57311764D02*
X129284055Y-57392576D01*
X129284055Y-57392576D02*
X129203243Y-57527263D01*
X129203243Y-57527263D02*
X129176306Y-57608075D01*
X129176306Y-57608075D02*
X129176306Y-57715825D01*
X129176306Y-57715825D02*
X129230180Y-57823574D01*
X129230180Y-57823574D02*
X129284055Y-57877449D01*
X129284055Y-57877449D02*
X129391805Y-57931324D01*
X129391805Y-57931324D02*
X129445680Y-57931324D01*
X129445680Y-57931324D02*
X129634241Y-57742762D01*
X129634241Y-57742762D02*
X129526492Y-57635012D01*
X129634241Y-58227635D02*
X130199927Y-57661950D01*
X130199927Y-57661950D02*
X130415426Y-57877449D01*
X130415426Y-57877449D02*
X130442363Y-57958261D01*
X130442363Y-57958261D02*
X130442363Y-58012136D01*
X130442363Y-58012136D02*
X130415426Y-58092948D01*
X130415426Y-58092948D02*
X130334614Y-58173760D01*
X130334614Y-58173760D02*
X130253802Y-58200698D01*
X130253802Y-58200698D02*
X130199927Y-58200698D01*
X130199927Y-58200698D02*
X130119115Y-58173760D01*
X130119115Y-58173760D02*
X129903615Y-57958261D01*
X130496238Y-59089632D02*
X130172989Y-58766383D01*
X130334614Y-58928008D02*
X130900299Y-58362322D01*
X130900299Y-58362322D02*
X130765612Y-58389260D01*
X130765612Y-58389260D02*
X130657863Y-58389260D01*
X130657863Y-58389260D02*
X130577051Y-58362322D01*
X131034986Y-59628380D02*
X130711738Y-59305131D01*
X130873362Y-59466756D02*
X131439048Y-58901070D01*
X131439048Y-58901070D02*
X131304361Y-58928008D01*
X131304361Y-58928008D02*
X131196611Y-58928008D01*
X131196611Y-58928008D02*
X131115799Y-58901070D01*
X135226053Y-58061950D02*
X135199115Y-57981138D01*
X135199115Y-57981138D02*
X135118303Y-57900326D01*
X135118303Y-57900326D02*
X135010553Y-57846451D01*
X135010553Y-57846451D02*
X134902804Y-57846451D01*
X134902804Y-57846451D02*
X134821992Y-57873389D01*
X134821992Y-57873389D02*
X134687305Y-57954201D01*
X134687305Y-57954201D02*
X134606492Y-58035013D01*
X134606492Y-58035013D02*
X134525680Y-58169700D01*
X134525680Y-58169700D02*
X134498743Y-58250512D01*
X134498743Y-58250512D02*
X134498743Y-58358262D01*
X134498743Y-58358262D02*
X134552618Y-58466011D01*
X134552618Y-58466011D02*
X134606492Y-58519886D01*
X134606492Y-58519886D02*
X134714242Y-58573761D01*
X134714242Y-58573761D02*
X134768117Y-58573761D01*
X134768117Y-58573761D02*
X134956679Y-58385199D01*
X134956679Y-58385199D02*
X134848929Y-58277450D01*
X134956679Y-58870072D02*
X135522364Y-58304387D01*
X135522364Y-58304387D02*
X135279927Y-59193321D01*
X135279927Y-59193321D02*
X135845613Y-58627636D01*
X135549301Y-59462695D02*
X136114987Y-58897010D01*
X136114987Y-58897010D02*
X136249674Y-59031697D01*
X136249674Y-59031697D02*
X136303549Y-59139446D01*
X136303549Y-59139446D02*
X136303549Y-59247196D01*
X136303549Y-59247196D02*
X136276611Y-59328008D01*
X136276611Y-59328008D02*
X136195799Y-59462695D01*
X136195799Y-59462695D02*
X136114987Y-59543507D01*
X136114987Y-59543507D02*
X135980300Y-59624319D01*
X135980300Y-59624319D02*
X135899488Y-59651257D01*
X135899488Y-59651257D02*
X135791738Y-59651257D01*
X135791738Y-59651257D02*
X135683988Y-59597382D01*
X135683988Y-59597382D02*
X135549301Y-59462695D01*
X150492990Y-58088888D02*
X150466053Y-58008075D01*
X150466053Y-58008075D02*
X150385240Y-57927263D01*
X150385240Y-57927263D02*
X150277491Y-57873388D01*
X150277491Y-57873388D02*
X150169741Y-57873388D01*
X150169741Y-57873388D02*
X150088929Y-57900326D01*
X150088929Y-57900326D02*
X149954242Y-57981138D01*
X149954242Y-57981138D02*
X149873430Y-58061950D01*
X149873430Y-58061950D02*
X149792617Y-58196637D01*
X149792617Y-58196637D02*
X149765680Y-58277449D01*
X149765680Y-58277449D02*
X149765680Y-58385199D01*
X149765680Y-58385199D02*
X149819555Y-58492949D01*
X149819555Y-58492949D02*
X149873430Y-58546823D01*
X149873430Y-58546823D02*
X149981179Y-58600698D01*
X149981179Y-58600698D02*
X150035054Y-58600698D01*
X150035054Y-58600698D02*
X150223616Y-58412136D01*
X150223616Y-58412136D02*
X150115866Y-58304387D01*
X150223616Y-58897010D02*
X150789301Y-58331324D01*
X150789301Y-58331324D02*
X151004801Y-58546823D01*
X151004801Y-58546823D02*
X151031738Y-58627636D01*
X151031738Y-58627636D02*
X151031738Y-58681510D01*
X151031738Y-58681510D02*
X151004801Y-58762323D01*
X151004801Y-58762323D02*
X150923988Y-58843135D01*
X150923988Y-58843135D02*
X150843176Y-58870072D01*
X150843176Y-58870072D02*
X150789301Y-58870072D01*
X150789301Y-58870072D02*
X150708489Y-58843135D01*
X150708489Y-58843135D02*
X150492990Y-58627636D01*
X151624361Y-59166384D02*
X151354987Y-58897010D01*
X151354987Y-58897010D02*
X151058675Y-59139446D01*
X151058675Y-59139446D02*
X151112550Y-59139446D01*
X151112550Y-59139446D02*
X151193362Y-59166384D01*
X151193362Y-59166384D02*
X151328049Y-59301071D01*
X151328049Y-59301071D02*
X151354987Y-59381883D01*
X151354987Y-59381883D02*
X151354987Y-59435758D01*
X151354987Y-59435758D02*
X151328049Y-59516570D01*
X151328049Y-59516570D02*
X151193362Y-59651257D01*
X151193362Y-59651257D02*
X151112550Y-59678194D01*
X151112550Y-59678194D02*
X151058675Y-59678194D01*
X151058675Y-59678194D02*
X150977863Y-59651257D01*
X150977863Y-59651257D02*
X150843176Y-59516570D01*
X150843176Y-59516570D02*
X150816239Y-59435758D01*
X150816239Y-59435758D02*
X150816239Y-59381883D01*
X140332990Y-58088888D02*
X140306053Y-58008075D01*
X140306053Y-58008075D02*
X140225240Y-57927263D01*
X140225240Y-57927263D02*
X140117491Y-57873388D01*
X140117491Y-57873388D02*
X140009741Y-57873388D01*
X140009741Y-57873388D02*
X139928929Y-57900326D01*
X139928929Y-57900326D02*
X139794242Y-57981138D01*
X139794242Y-57981138D02*
X139713430Y-58061950D01*
X139713430Y-58061950D02*
X139632617Y-58196637D01*
X139632617Y-58196637D02*
X139605680Y-58277449D01*
X139605680Y-58277449D02*
X139605680Y-58385199D01*
X139605680Y-58385199D02*
X139659555Y-58492949D01*
X139659555Y-58492949D02*
X139713430Y-58546823D01*
X139713430Y-58546823D02*
X139821179Y-58600698D01*
X139821179Y-58600698D02*
X139875054Y-58600698D01*
X139875054Y-58600698D02*
X140063616Y-58412136D01*
X140063616Y-58412136D02*
X139955866Y-58304387D01*
X140063616Y-58897010D02*
X140629301Y-58331324D01*
X140629301Y-58331324D02*
X140844801Y-58546823D01*
X140844801Y-58546823D02*
X140871738Y-58627636D01*
X140871738Y-58627636D02*
X140871738Y-58681510D01*
X140871738Y-58681510D02*
X140844801Y-58762323D01*
X140844801Y-58762323D02*
X140763988Y-58843135D01*
X140763988Y-58843135D02*
X140683176Y-58870072D01*
X140683176Y-58870072D02*
X140629301Y-58870072D01*
X140629301Y-58870072D02*
X140548489Y-58843135D01*
X140548489Y-58843135D02*
X140332990Y-58627636D01*
X141033362Y-59220258D02*
X141006425Y-59139446D01*
X141006425Y-59139446D02*
X141006425Y-59085571D01*
X141006425Y-59085571D02*
X141033362Y-59004759D01*
X141033362Y-59004759D02*
X141060300Y-58977822D01*
X141060300Y-58977822D02*
X141141112Y-58950884D01*
X141141112Y-58950884D02*
X141194987Y-58950884D01*
X141194987Y-58950884D02*
X141275799Y-58977822D01*
X141275799Y-58977822D02*
X141383549Y-59085571D01*
X141383549Y-59085571D02*
X141410486Y-59166384D01*
X141410486Y-59166384D02*
X141410486Y-59220258D01*
X141410486Y-59220258D02*
X141383549Y-59301071D01*
X141383549Y-59301071D02*
X141356611Y-59328008D01*
X141356611Y-59328008D02*
X141275799Y-59354945D01*
X141275799Y-59354945D02*
X141221924Y-59354945D01*
X141221924Y-59354945D02*
X141141112Y-59328008D01*
X141141112Y-59328008D02*
X141033362Y-59220258D01*
X141033362Y-59220258D02*
X140952550Y-59193321D01*
X140952550Y-59193321D02*
X140898675Y-59193321D01*
X140898675Y-59193321D02*
X140817863Y-59220258D01*
X140817863Y-59220258D02*
X140710114Y-59328008D01*
X140710114Y-59328008D02*
X140683176Y-59408820D01*
X140683176Y-59408820D02*
X140683176Y-59462695D01*
X140683176Y-59462695D02*
X140710114Y-59543507D01*
X140710114Y-59543507D02*
X140817863Y-59651257D01*
X140817863Y-59651257D02*
X140898675Y-59678194D01*
X140898675Y-59678194D02*
X140952550Y-59678194D01*
X140952550Y-59678194D02*
X141033362Y-59651257D01*
X141033362Y-59651257D02*
X141141112Y-59543507D01*
X141141112Y-59543507D02*
X141168049Y-59462695D01*
X141168049Y-59462695D02*
X141168049Y-59408820D01*
X141168049Y-59408820D02*
X141141112Y-59328008D01*
X165732990Y-58088888D02*
X165706053Y-58008075D01*
X165706053Y-58008075D02*
X165625240Y-57927263D01*
X165625240Y-57927263D02*
X165517491Y-57873388D01*
X165517491Y-57873388D02*
X165409741Y-57873388D01*
X165409741Y-57873388D02*
X165328929Y-57900326D01*
X165328929Y-57900326D02*
X165194242Y-57981138D01*
X165194242Y-57981138D02*
X165113430Y-58061950D01*
X165113430Y-58061950D02*
X165032617Y-58196637D01*
X165032617Y-58196637D02*
X165005680Y-58277449D01*
X165005680Y-58277449D02*
X165005680Y-58385199D01*
X165005680Y-58385199D02*
X165059555Y-58492949D01*
X165059555Y-58492949D02*
X165113430Y-58546823D01*
X165113430Y-58546823D02*
X165221179Y-58600698D01*
X165221179Y-58600698D02*
X165275054Y-58600698D01*
X165275054Y-58600698D02*
X165463616Y-58412136D01*
X165463616Y-58412136D02*
X165355866Y-58304387D01*
X165463616Y-58897010D02*
X166029301Y-58331324D01*
X166029301Y-58331324D02*
X166244801Y-58546823D01*
X166244801Y-58546823D02*
X166271738Y-58627636D01*
X166271738Y-58627636D02*
X166271738Y-58681510D01*
X166271738Y-58681510D02*
X166244801Y-58762323D01*
X166244801Y-58762323D02*
X166163988Y-58843135D01*
X166163988Y-58843135D02*
X166083176Y-58870072D01*
X166083176Y-58870072D02*
X166029301Y-58870072D01*
X166029301Y-58870072D02*
X165948489Y-58843135D01*
X165948489Y-58843135D02*
X165732990Y-58627636D01*
X166702736Y-59004759D02*
X166756611Y-59058634D01*
X166756611Y-59058634D02*
X166783549Y-59139446D01*
X166783549Y-59139446D02*
X166783549Y-59193321D01*
X166783549Y-59193321D02*
X166756611Y-59274133D01*
X166756611Y-59274133D02*
X166675799Y-59408820D01*
X166675799Y-59408820D02*
X166541112Y-59543507D01*
X166541112Y-59543507D02*
X166406425Y-59624319D01*
X166406425Y-59624319D02*
X166325613Y-59651257D01*
X166325613Y-59651257D02*
X166271738Y-59651257D01*
X166271738Y-59651257D02*
X166190926Y-59624319D01*
X166190926Y-59624319D02*
X166137051Y-59570445D01*
X166137051Y-59570445D02*
X166110114Y-59489632D01*
X166110114Y-59489632D02*
X166110114Y-59435758D01*
X166110114Y-59435758D02*
X166137051Y-59354945D01*
X166137051Y-59354945D02*
X166217863Y-59220258D01*
X166217863Y-59220258D02*
X166352550Y-59085571D01*
X166352550Y-59085571D02*
X166487237Y-59004759D01*
X166487237Y-59004759D02*
X166568049Y-58977822D01*
X166568049Y-58977822D02*
X166621924Y-58977822D01*
X166621924Y-58977822D02*
X166702736Y-59004759D01*
%TO.C,J1*%
X173186666Y-97102619D02*
X173186666Y-97816904D01*
X173186666Y-97816904D02*
X173139047Y-97959761D01*
X173139047Y-97959761D02*
X173043809Y-98055000D01*
X173043809Y-98055000D02*
X172900952Y-98102619D01*
X172900952Y-98102619D02*
X172805714Y-98102619D01*
X174186666Y-98102619D02*
X173615238Y-98102619D01*
X173900952Y-98102619D02*
X173900952Y-97102619D01*
X173900952Y-97102619D02*
X173805714Y-97245476D01*
X173805714Y-97245476D02*
X173710476Y-97340714D01*
X173710476Y-97340714D02*
X173615238Y-97388333D01*
%TO.C,H4*%
X151322619Y-53971904D02*
X150322619Y-53971904D01*
X150798809Y-53971904D02*
X150798809Y-53400476D01*
X151322619Y-53400476D02*
X150322619Y-53400476D01*
X150655952Y-52495714D02*
X151322619Y-52495714D01*
X150275000Y-52733809D02*
X150989285Y-52971904D01*
X150989285Y-52971904D02*
X150989285Y-52352857D01*
%TO.C,H1*%
X94922619Y-128271904D02*
X93922619Y-128271904D01*
X94398809Y-128271904D02*
X94398809Y-127700476D01*
X94922619Y-127700476D02*
X93922619Y-127700476D01*
X94922619Y-126700476D02*
X94922619Y-127271904D01*
X94922619Y-126986190D02*
X93922619Y-126986190D01*
X93922619Y-126986190D02*
X94065476Y-127081428D01*
X94065476Y-127081428D02*
X94160714Y-127176666D01*
X94160714Y-127176666D02*
X94208333Y-127271904D01*
%TO.C,H2*%
X94922619Y-53971904D02*
X93922619Y-53971904D01*
X94398809Y-53971904D02*
X94398809Y-53400476D01*
X94922619Y-53400476D02*
X93922619Y-53400476D01*
X94017857Y-52971904D02*
X93970238Y-52924285D01*
X93970238Y-52924285D02*
X93922619Y-52829047D01*
X93922619Y-52829047D02*
X93922619Y-52590952D01*
X93922619Y-52590952D02*
X93970238Y-52495714D01*
X93970238Y-52495714D02*
X94017857Y-52448095D01*
X94017857Y-52448095D02*
X94113095Y-52400476D01*
X94113095Y-52400476D02*
X94208333Y-52400476D01*
X94208333Y-52400476D02*
X94351190Y-52448095D01*
X94351190Y-52448095D02*
X94922619Y-53019523D01*
X94922619Y-53019523D02*
X94922619Y-52400476D01*
%TO.C,H3*%
X151322619Y-128271904D02*
X150322619Y-128271904D01*
X150798809Y-128271904D02*
X150798809Y-127700476D01*
X151322619Y-127700476D02*
X150322619Y-127700476D01*
X150322619Y-127319523D02*
X150322619Y-126700476D01*
X150322619Y-126700476D02*
X150703571Y-127033809D01*
X150703571Y-127033809D02*
X150703571Y-126890952D01*
X150703571Y-126890952D02*
X150751190Y-126795714D01*
X150751190Y-126795714D02*
X150798809Y-126748095D01*
X150798809Y-126748095D02*
X150894047Y-126700476D01*
X150894047Y-126700476D02*
X151132142Y-126700476D01*
X151132142Y-126700476D02*
X151227380Y-126748095D01*
X151227380Y-126748095D02*
X151275000Y-126795714D01*
X151275000Y-126795714D02*
X151322619Y-126890952D01*
X151322619Y-126890952D02*
X151322619Y-127176666D01*
X151322619Y-127176666D02*
X151275000Y-127271904D01*
X151275000Y-127271904D02*
X151227380Y-127319523D01*
%TO.C,R1*%
X142903333Y-99642619D02*
X142570000Y-99166428D01*
X142331905Y-99642619D02*
X142331905Y-98642619D01*
X142331905Y-98642619D02*
X142712857Y-98642619D01*
X142712857Y-98642619D02*
X142808095Y-98690238D01*
X142808095Y-98690238D02*
X142855714Y-98737857D01*
X142855714Y-98737857D02*
X142903333Y-98833095D01*
X142903333Y-98833095D02*
X142903333Y-98975952D01*
X142903333Y-98975952D02*
X142855714Y-99071190D01*
X142855714Y-99071190D02*
X142808095Y-99118809D01*
X142808095Y-99118809D02*
X142712857Y-99166428D01*
X142712857Y-99166428D02*
X142331905Y-99166428D01*
X143855714Y-99642619D02*
X143284286Y-99642619D01*
X143570000Y-99642619D02*
X143570000Y-98642619D01*
X143570000Y-98642619D02*
X143474762Y-98785476D01*
X143474762Y-98785476D02*
X143379524Y-98880714D01*
X143379524Y-98880714D02*
X143284286Y-98928333D01*
%TO.C,R2*%
X138933333Y-90392619D02*
X138600000Y-89916428D01*
X138361905Y-90392619D02*
X138361905Y-89392619D01*
X138361905Y-89392619D02*
X138742857Y-89392619D01*
X138742857Y-89392619D02*
X138838095Y-89440238D01*
X138838095Y-89440238D02*
X138885714Y-89487857D01*
X138885714Y-89487857D02*
X138933333Y-89583095D01*
X138933333Y-89583095D02*
X138933333Y-89725952D01*
X138933333Y-89725952D02*
X138885714Y-89821190D01*
X138885714Y-89821190D02*
X138838095Y-89868809D01*
X138838095Y-89868809D02*
X138742857Y-89916428D01*
X138742857Y-89916428D02*
X138361905Y-89916428D01*
X139314286Y-89487857D02*
X139361905Y-89440238D01*
X139361905Y-89440238D02*
X139457143Y-89392619D01*
X139457143Y-89392619D02*
X139695238Y-89392619D01*
X139695238Y-89392619D02*
X139790476Y-89440238D01*
X139790476Y-89440238D02*
X139838095Y-89487857D01*
X139838095Y-89487857D02*
X139885714Y-89583095D01*
X139885714Y-89583095D02*
X139885714Y-89678333D01*
X139885714Y-89678333D02*
X139838095Y-89821190D01*
X139838095Y-89821190D02*
X139266667Y-90392619D01*
X139266667Y-90392619D02*
X139885714Y-90392619D01*
%TO.C,U1*%
X96762619Y-94251904D02*
X97572142Y-94251904D01*
X97572142Y-94251904D02*
X97667380Y-94204285D01*
X97667380Y-94204285D02*
X97715000Y-94156666D01*
X97715000Y-94156666D02*
X97762619Y-94061428D01*
X97762619Y-94061428D02*
X97762619Y-93870952D01*
X97762619Y-93870952D02*
X97715000Y-93775714D01*
X97715000Y-93775714D02*
X97667380Y-93728095D01*
X97667380Y-93728095D02*
X97572142Y-93680476D01*
X97572142Y-93680476D02*
X96762619Y-93680476D01*
X97762619Y-92680476D02*
X97762619Y-93251904D01*
X97762619Y-92966190D02*
X96762619Y-92966190D01*
X96762619Y-92966190D02*
X96905476Y-93061428D01*
X96905476Y-93061428D02*
X97000714Y-93156666D01*
X97000714Y-93156666D02*
X97048333Y-93251904D01*
%TO.C,R10*%
X145437142Y-97352619D02*
X145103809Y-96876428D01*
X144865714Y-97352619D02*
X144865714Y-96352619D01*
X144865714Y-96352619D02*
X145246666Y-96352619D01*
X145246666Y-96352619D02*
X145341904Y-96400238D01*
X145341904Y-96400238D02*
X145389523Y-96447857D01*
X145389523Y-96447857D02*
X145437142Y-96543095D01*
X145437142Y-96543095D02*
X145437142Y-96685952D01*
X145437142Y-96685952D02*
X145389523Y-96781190D01*
X145389523Y-96781190D02*
X145341904Y-96828809D01*
X145341904Y-96828809D02*
X145246666Y-96876428D01*
X145246666Y-96876428D02*
X144865714Y-96876428D01*
X146389523Y-97352619D02*
X145818095Y-97352619D01*
X146103809Y-97352619D02*
X146103809Y-96352619D01*
X146103809Y-96352619D02*
X146008571Y-96495476D01*
X146008571Y-96495476D02*
X145913333Y-96590714D01*
X145913333Y-96590714D02*
X145818095Y-96638333D01*
X147008571Y-96352619D02*
X147103809Y-96352619D01*
X147103809Y-96352619D02*
X147199047Y-96400238D01*
X147199047Y-96400238D02*
X147246666Y-96447857D01*
X147246666Y-96447857D02*
X147294285Y-96543095D01*
X147294285Y-96543095D02*
X147341904Y-96733571D01*
X147341904Y-96733571D02*
X147341904Y-96971666D01*
X147341904Y-96971666D02*
X147294285Y-97162142D01*
X147294285Y-97162142D02*
X147246666Y-97257380D01*
X147246666Y-97257380D02*
X147199047Y-97305000D01*
X147199047Y-97305000D02*
X147103809Y-97352619D01*
X147103809Y-97352619D02*
X147008571Y-97352619D01*
X147008571Y-97352619D02*
X146913333Y-97305000D01*
X146913333Y-97305000D02*
X146865714Y-97257380D01*
X146865714Y-97257380D02*
X146818095Y-97162142D01*
X146818095Y-97162142D02*
X146770476Y-96971666D01*
X146770476Y-96971666D02*
X146770476Y-96733571D01*
X146770476Y-96733571D02*
X146818095Y-96543095D01*
X146818095Y-96543095D02*
X146865714Y-96447857D01*
X146865714Y-96447857D02*
X146913333Y-96400238D01*
X146913333Y-96400238D02*
X147008571Y-96352619D01*
%TO.C,D1*%
X136781905Y-122862619D02*
X136781905Y-121862619D01*
X136781905Y-121862619D02*
X137020000Y-121862619D01*
X137020000Y-121862619D02*
X137162857Y-121910238D01*
X137162857Y-121910238D02*
X137258095Y-122005476D01*
X137258095Y-122005476D02*
X137305714Y-122100714D01*
X137305714Y-122100714D02*
X137353333Y-122291190D01*
X137353333Y-122291190D02*
X137353333Y-122434047D01*
X137353333Y-122434047D02*
X137305714Y-122624523D01*
X137305714Y-122624523D02*
X137258095Y-122719761D01*
X137258095Y-122719761D02*
X137162857Y-122815000D01*
X137162857Y-122815000D02*
X137020000Y-122862619D01*
X137020000Y-122862619D02*
X136781905Y-122862619D01*
X138305714Y-122862619D02*
X137734286Y-122862619D01*
X138020000Y-122862619D02*
X138020000Y-121862619D01*
X138020000Y-121862619D02*
X137924762Y-122005476D01*
X137924762Y-122005476D02*
X137829524Y-122100714D01*
X137829524Y-122100714D02*
X137734286Y-122148333D01*
X141068095Y-122492619D02*
X141068095Y-121492619D01*
X141639523Y-122492619D02*
X141210952Y-121921190D01*
X141639523Y-121492619D02*
X141068095Y-122064047D01*
D13*
%TO.C,J6*%
X103470000Y-46830000D02*
X103470000Y-45500000D01*
X104800000Y-46830000D02*
X103470000Y-46830000D01*
X106070000Y-46830000D02*
X154390000Y-46830000D01*
X106070000Y-46830000D02*
X106070000Y-44230000D01*
X154390000Y-46830000D02*
X154390000Y-41630000D01*
X103470000Y-44230000D02*
X103470000Y-41630000D01*
X106070000Y-44230000D02*
X103470000Y-44230000D01*
X103470000Y-41630000D02*
X154390000Y-41630000D01*
%TO.C,J7*%
X103470000Y-139830000D02*
X103470000Y-138500000D01*
X104800000Y-139830000D02*
X103470000Y-139830000D01*
X106070000Y-139830000D02*
X154390000Y-139830000D01*
X106070000Y-139830000D02*
X106070000Y-137230000D01*
X154390000Y-139830000D02*
X154390000Y-134630000D01*
X103470000Y-137230000D02*
X103470000Y-134630000D01*
X106070000Y-137230000D02*
X103470000Y-137230000D01*
X103470000Y-134630000D02*
X154390000Y-134630000D01*
%TO.C,R11*%
X141712742Y-95967500D02*
X142187258Y-95967500D01*
X141712742Y-97012500D02*
X142187258Y-97012500D01*
%TO.C,U3*%
X167230000Y-61070000D02*
X166930000Y-61070000D01*
X167230000Y-61070000D02*
X167230000Y-82070000D01*
X164830000Y-61070000D02*
X164430000Y-61070000D01*
X164563000Y-61070000D02*
X164563000Y-64077000D01*
X162230000Y-61070000D02*
X161830000Y-61070000D01*
X159730000Y-61070000D02*
X159330000Y-61070000D01*
X157130000Y-61070000D02*
X156730000Y-61070000D01*
X154630000Y-61070000D02*
X154230000Y-61070000D01*
X152130000Y-61070000D02*
X151730000Y-61070000D01*
X149530000Y-61070000D02*
X149130000Y-61070000D01*
X147030000Y-61070000D02*
X146630000Y-61070000D01*
X144430000Y-61070000D02*
X144030000Y-61070000D01*
X141930000Y-61070000D02*
X141530000Y-61070000D01*
X139430000Y-61070000D02*
X139030000Y-61070000D01*
X136830000Y-61070000D02*
X136430000Y-61070000D01*
X134330000Y-61070000D02*
X133930000Y-61070000D01*
X131730000Y-61070000D02*
X131330000Y-61070000D01*
X129230000Y-61070000D02*
X128830000Y-61070000D01*
X126630000Y-61070000D02*
X126230000Y-61070000D01*
X124130000Y-61070000D02*
X123730000Y-61070000D01*
X121630000Y-61070000D02*
X121230000Y-61070000D01*
X119030000Y-61070000D02*
X118630000Y-61070000D01*
X164563000Y-64077000D02*
X167230000Y-64077000D01*
X116230000Y-67870000D02*
X116230000Y-61070000D01*
X116230000Y-70070000D02*
X116230000Y-70470000D01*
X116230000Y-72670000D02*
X116230000Y-73070000D01*
X167230000Y-82070000D02*
X166930000Y-82070000D01*
X164830000Y-82070000D02*
X164430000Y-82070000D01*
X162230000Y-82070000D02*
X161830000Y-82070000D01*
X159730000Y-82070000D02*
X159330000Y-82070000D01*
X157130000Y-82070000D02*
X156730000Y-82070000D01*
X154630000Y-82070000D02*
X154230000Y-82070000D01*
X152130000Y-82070000D02*
X151730000Y-82070000D01*
X149530000Y-82070000D02*
X149130000Y-82070000D01*
X147030000Y-82070000D02*
X146630000Y-82070000D01*
X144430000Y-82070000D02*
X144030000Y-82070000D01*
X141930000Y-82070000D02*
X141530000Y-82070000D01*
X139430000Y-82070000D02*
X139030000Y-82070000D01*
X136830000Y-82070000D02*
X136430000Y-82070000D01*
X134330000Y-82070000D02*
X133930000Y-82070000D01*
X131730000Y-82070000D02*
X131330000Y-82070000D01*
X129230000Y-82070000D02*
X128830000Y-82070000D01*
X126630000Y-82070000D02*
X126230000Y-82070000D01*
X124130000Y-82070000D02*
X123730000Y-82070000D01*
X121630000Y-82070000D02*
X121230000Y-82070000D01*
X119030000Y-82070000D02*
X118630000Y-82070000D01*
X116230000Y-82070000D02*
X116230000Y-75270000D01*
%TO.C,J1*%
X174850000Y-96640000D02*
X173520000Y-96640000D01*
X174850000Y-95310000D02*
X174850000Y-96640000D01*
X174850000Y-94040000D02*
X174850000Y-83820000D01*
X174850000Y-94040000D02*
X172190000Y-94040000D01*
X174850000Y-83820000D02*
X172190000Y-83820000D01*
X172190000Y-94040000D02*
X172190000Y-83820000D01*
%TO.C,R1*%
X139800000Y-100180000D02*
X146340000Y-100180000D01*
X139800000Y-100510000D02*
X139800000Y-100180000D01*
X139800000Y-102590000D02*
X139800000Y-102920000D01*
X139800000Y-102920000D02*
X146340000Y-102920000D01*
X146340000Y-100180000D02*
X146340000Y-100510000D01*
X146340000Y-102920000D02*
X146340000Y-102590000D01*
%TO.C,R2*%
X135830000Y-90930000D02*
X142370000Y-90930000D01*
X135830000Y-91260000D02*
X135830000Y-90930000D01*
X135830000Y-93340000D02*
X135830000Y-93670000D01*
X135830000Y-93670000D02*
X142370000Y-93670000D01*
X142370000Y-90930000D02*
X142370000Y-91260000D01*
X142370000Y-93670000D02*
X142370000Y-93340000D01*
%TO.C,U1*%
X90102500Y-102937500D02*
X90102500Y-101607500D01*
X91432500Y-102937500D02*
X90102500Y-102937500D01*
X92702500Y-102937500D02*
X110542500Y-102937500D01*
X92702500Y-102937500D02*
X92702500Y-100277500D01*
X110542500Y-102937500D02*
X110542500Y-100277500D01*
X92702500Y-100277500D02*
X110542500Y-100277500D01*
X90140000Y-80090000D02*
X90140000Y-78760000D01*
X91470000Y-80090000D02*
X90140000Y-80090000D01*
X92740000Y-80090000D02*
X110580000Y-80090000D01*
X92740000Y-80090000D02*
X92740000Y-77430000D01*
X110580000Y-80090000D02*
X110580000Y-77430000D01*
X92740000Y-77430000D02*
X110580000Y-77430000D01*
%TO.C,R10*%
X145842742Y-97797500D02*
X146317258Y-97797500D01*
X145842742Y-98842500D02*
X146317258Y-98842500D01*
%TO.C,D1*%
X140240000Y-121400000D02*
X134800000Y-121400000D01*
X140240000Y-121270000D02*
X140240000Y-121400000D01*
X140240000Y-118590000D02*
X140240000Y-118460000D01*
X140240000Y-118460000D02*
X134800000Y-118460000D01*
X139460000Y-121400000D02*
X139460000Y-118460000D01*
X139340000Y-121400000D02*
X139340000Y-118460000D01*
X139220000Y-121400000D02*
X139220000Y-118460000D01*
X134800000Y-121400000D02*
X134800000Y-121270000D01*
X134800000Y-118460000D02*
X134800000Y-118590000D01*
%TD*%
%LPC*%
D14*
%TO.C,J6*%
X104800000Y-45500000D03*
D15*
X104800000Y-42960000D03*
X107340000Y-45500000D03*
X107340000Y-42960000D03*
X109880000Y-45500000D03*
X109880000Y-42960000D03*
X112420000Y-45500000D03*
X112420000Y-42960000D03*
X114960000Y-45500000D03*
X114960000Y-42960000D03*
X117500000Y-45500000D03*
X117500000Y-42960000D03*
X120040000Y-45500000D03*
X120040000Y-42960000D03*
X122580000Y-45500000D03*
X122580000Y-42960000D03*
X125120000Y-45500000D03*
X125120000Y-42960000D03*
X127660000Y-45500000D03*
X127660000Y-42960000D03*
X130200000Y-45500000D03*
X130200000Y-42960000D03*
X132740000Y-45500000D03*
X132740000Y-42960000D03*
X135280000Y-45500000D03*
X135280000Y-42960000D03*
X137820000Y-45500000D03*
X137820000Y-42960000D03*
X140360000Y-45500000D03*
X140360000Y-42960000D03*
X142900000Y-45500000D03*
X142900000Y-42960000D03*
X145440000Y-45500000D03*
X145440000Y-42960000D03*
X147980000Y-45500000D03*
X147980000Y-42960000D03*
X150520000Y-45500000D03*
X150520000Y-42960000D03*
X153060000Y-45500000D03*
X153060000Y-42960000D03*
%TD*%
D14*
%TO.C,J7*%
X104800000Y-138500000D03*
D15*
X104800000Y-135960000D03*
X107340000Y-138500000D03*
X107340000Y-135960000D03*
X109880000Y-138500000D03*
X109880000Y-135960000D03*
X112420000Y-138500000D03*
X112420000Y-135960000D03*
X114960000Y-138500000D03*
X114960000Y-135960000D03*
X117500000Y-138500000D03*
X117500000Y-135960000D03*
X120040000Y-138500000D03*
X120040000Y-135960000D03*
X122580000Y-138500000D03*
X122580000Y-135960000D03*
X125120000Y-138500000D03*
X125120000Y-135960000D03*
X127660000Y-138500000D03*
X127660000Y-135960000D03*
X130200000Y-138500000D03*
X130200000Y-135960000D03*
X132740000Y-138500000D03*
X132740000Y-135960000D03*
X135280000Y-138500000D03*
X135280000Y-135960000D03*
X137820000Y-138500000D03*
X137820000Y-135960000D03*
X140360000Y-138500000D03*
X140360000Y-135960000D03*
X142900000Y-138500000D03*
X142900000Y-135960000D03*
X145440000Y-138500000D03*
X145440000Y-135960000D03*
X147980000Y-138500000D03*
X147980000Y-135960000D03*
X150520000Y-138500000D03*
X150520000Y-135960000D03*
X153060000Y-138500000D03*
X153060000Y-135960000D03*
%TD*%
D16*
%TO.C,R11*%
X141125000Y-96490000D03*
X142775000Y-96490000D03*
%TD*%
D17*
%TO.C,U3*%
X165730000Y-68845000D03*
D18*
X162700000Y-69145000D03*
X162700000Y-73995000D03*
D17*
X165730000Y-74295000D03*
D15*
X165860000Y-62680000D03*
D19*
X165860000Y-61780000D03*
D15*
X163320000Y-62680000D03*
D19*
X163320000Y-61780000D03*
D14*
X160780000Y-62680000D03*
D19*
X160780000Y-61780000D03*
D15*
X158240000Y-62680000D03*
D19*
X158240000Y-61780000D03*
D15*
X155700000Y-62680000D03*
D19*
X155700000Y-61780000D03*
D15*
X153160000Y-62680000D03*
D19*
X153160000Y-61780000D03*
D15*
X150620000Y-62680000D03*
D19*
X150620000Y-61780000D03*
D14*
X148080000Y-62680000D03*
D19*
X148080000Y-61780000D03*
D15*
X145540000Y-62680000D03*
D19*
X145540000Y-61780000D03*
D15*
X143000000Y-62680000D03*
D19*
X143000000Y-61780000D03*
D15*
X140460000Y-62680000D03*
D19*
X140460000Y-61780000D03*
D15*
X137920000Y-62680000D03*
D19*
X137920000Y-61780000D03*
D14*
X135380000Y-62680000D03*
D19*
X135380000Y-61780000D03*
D15*
X132840000Y-62680000D03*
D19*
X132840000Y-61780000D03*
D15*
X130300000Y-62680000D03*
D19*
X130300000Y-61780000D03*
D15*
X127760000Y-62680000D03*
D19*
X127760000Y-61780000D03*
D15*
X125220000Y-62680000D03*
D19*
X125220000Y-61780000D03*
D14*
X122680000Y-62680000D03*
D19*
X122680000Y-61780000D03*
D15*
X120140000Y-62680000D03*
D19*
X120140000Y-61780000D03*
D15*
X117600000Y-62680000D03*
D19*
X117600000Y-61780000D03*
D15*
X117600000Y-80460000D03*
D19*
X117600000Y-81360000D03*
D15*
X120140000Y-80460000D03*
D19*
X120140000Y-81360000D03*
D14*
X122680000Y-80460000D03*
D19*
X122680000Y-81360000D03*
D15*
X125220000Y-80460000D03*
D19*
X125220000Y-81360000D03*
D15*
X127760000Y-80460000D03*
D19*
X127760000Y-81360000D03*
D15*
X130300000Y-80460000D03*
D19*
X130300000Y-81360000D03*
D15*
X132840000Y-80460000D03*
D19*
X132840000Y-81360000D03*
D14*
X135380000Y-80460000D03*
D19*
X135380000Y-81360000D03*
D15*
X137920000Y-80460000D03*
D19*
X137920000Y-81360000D03*
D15*
X140460000Y-80460000D03*
D19*
X140460000Y-81360000D03*
D15*
X143000000Y-80460000D03*
D19*
X143000000Y-81360000D03*
D15*
X145540000Y-80460000D03*
D19*
X145540000Y-81360000D03*
D14*
X148080000Y-80460000D03*
D19*
X148080000Y-81360000D03*
D15*
X150620000Y-80460000D03*
D19*
X150620000Y-81360000D03*
D15*
X153160000Y-80460000D03*
D19*
X153160000Y-81360000D03*
D15*
X155700000Y-80460000D03*
D19*
X155700000Y-81360000D03*
D15*
X158240000Y-80460000D03*
D19*
X158240000Y-81360000D03*
D14*
X160780000Y-80460000D03*
D19*
X160780000Y-81360000D03*
D15*
X163320000Y-80460000D03*
D19*
X163320000Y-81360000D03*
D15*
X165860000Y-80460000D03*
D19*
X165860000Y-81360000D03*
D15*
X117830000Y-69030000D03*
D20*
X116930000Y-69030000D03*
D14*
X117830000Y-71570000D03*
D20*
X116930000Y-71570000D03*
D15*
X117830000Y-74110000D03*
D20*
X116930000Y-74110000D03*
%TD*%
D14*
%TO.C,J1*%
X173520000Y-95310000D03*
D15*
X173520000Y-92770000D03*
X173520000Y-90230000D03*
X173520000Y-87690000D03*
X173520000Y-85150000D03*
%TD*%
D21*
%TO.C,H4*%
X155060000Y-53210000D03*
%TD*%
%TO.C,H1*%
X98660000Y-127510000D03*
%TD*%
%TO.C,H2*%
X98660000Y-53210000D03*
%TD*%
%TO.C,H3*%
X155060000Y-127510000D03*
%TD*%
D22*
%TO.C,R1*%
X139260000Y-101550000D03*
D23*
X146880000Y-101550000D03*
%TD*%
D22*
%TO.C,R2*%
X135290000Y-92300000D03*
D23*
X142910000Y-92300000D03*
%TD*%
D14*
%TO.C,U1*%
X91500000Y-101600000D03*
D15*
X94040000Y-101600000D03*
X96580000Y-101600000D03*
X99120000Y-101600000D03*
X101660000Y-101600000D03*
X104200000Y-101600000D03*
X106740000Y-101600000D03*
X109280000Y-101600000D03*
X109280000Y-78740000D03*
X106740000Y-78740000D03*
X104200000Y-78740000D03*
X101660000Y-78740000D03*
X99120000Y-78740000D03*
X96580000Y-78740000D03*
X94040000Y-78740000D03*
D14*
X91500000Y-78740000D03*
%TD*%
D16*
%TO.C,R10*%
X145255000Y-98320000D03*
X146905000Y-98320000D03*
%TD*%
D24*
%TO.C,D1*%
X141330000Y-119930000D03*
D25*
X133710000Y-119930000D03*
%TD*%
M02*
