M48
; DRILL file {KiCad 7.0.1} date Mon Sep  4 23:27:28 2023
; FORMAT={-:-/ absolute / metric / decimal}
; #@! TF.CreationDate,2023-09-04T23:27:28+05:00
; #@! TF.GenerationSoftware,Kicad,Pcbnew,7.0.1
; #@! TF.FileFunction,Plated,1,2,PTH
FMAT,2
METRIC
; #@! TA.AperFunction,Plated,PTH,ViaDrill
T1C0.300
; #@! TA.AperFunction,Plated,PTH,ComponentDrill
T2C0.800
; #@! TA.AperFunction,Plated,PTH,ComponentDrill
T3C1.000
; #@! TA.AperFunction,Plated,PTH,ComponentDrill
T4C1.020
; #@! TA.AperFunction,Plated,PTH,ComponentDrill
T5C1.100
%
G90
G05
T1
X92.41Y-94.07
X92.46Y-92.72
X95.43Y-94.27
X95.46Y-92.89
X95.49Y-72.67
X98.51Y-45.75
X99.91Y-45.87
X102.96Y-98.14
X105.32Y-97.07
X105.61Y-104.97
X105.96Y-131.83
X109.77Y-49.43
X109.85Y-50.63
X113.29Y-61.2
X113.53Y-109.2
X113.915Y-121.405
X113.96Y-60.53
X114.87Y-124.64
X116.21Y-47.81
X116.95Y-124.67
X119.265Y-116.055
X119.55Y-78.2
X120.6Y-112.73
X120.76Y-47.52
X121.39Y-53.59
X125.11Y-130.74
X125.22Y-53.55
X126.49Y-73.86
X127.19Y-56.62
X127.84Y-73.89
X128.56Y-113.67
X128.89Y-123.3
X129.27Y-114.61
X129.46Y-124.26
X129.72Y-113.67
X129.94Y-123.31
X130.25Y-47.54
X130.71Y-74.44
X132.41Y-77.28
X134.14Y-73.7
X136.53Y-133.2
X136.65Y-74.48
X139.19Y-51.65
X141.45Y-47.65
X142.085Y-52.845
X143.13Y-124.36
X143.71Y-50.4
X144.59Y-124.35
X144.85Y-70.08
X145.31Y-47.6
X148.23Y-74.0
X148.25Y-86.56
X153.28Y-86.08
X155.81Y-86.88
X156.93Y-46.27
X157.78Y-45.03
X158.23Y-85.94
X158.88Y-86.78
X159.17Y-97.22
X159.24Y-95.79
X165.38Y-49.75
X165.41Y-86.65
X165.65Y-100.09
X166.28Y-50.82
X166.38Y-88.96
X167.46Y-101.59
X168.21Y-89.64
X172.94Y-75.93
X172.96Y-76.98
T2
X135.29Y-92.3
X139.26Y-101.55
X142.91Y-92.3
X146.88Y-101.55
T3
X91.5Y-78.74
X91.5Y-101.6
X94.04Y-78.74
X94.04Y-101.6
X96.58Y-78.74
X96.58Y-101.6
X99.12Y-78.74
X99.12Y-101.6
X101.66Y-78.74
X101.66Y-101.6
X104.2Y-78.74
X104.2Y-101.6
X104.8Y-42.96
X104.8Y-45.5
X104.8Y-135.96
X104.8Y-138.5
X106.74Y-78.74
X106.74Y-101.6
X107.34Y-42.96
X107.34Y-45.5
X107.34Y-135.96
X107.34Y-138.5
X109.28Y-78.74
X109.28Y-101.6
X109.88Y-42.96
X109.88Y-45.5
X109.88Y-135.96
X109.88Y-138.5
X112.42Y-42.96
X112.42Y-45.5
X112.42Y-135.96
X112.42Y-138.5
X114.96Y-42.96
X114.96Y-45.5
X114.96Y-135.96
X114.96Y-138.5
X117.5Y-42.96
X117.5Y-45.5
X117.5Y-135.96
X117.5Y-138.5
X120.04Y-42.96
X120.04Y-45.5
X120.04Y-135.96
X120.04Y-138.5
X122.58Y-42.96
X122.58Y-45.5
X122.58Y-135.96
X122.58Y-138.5
X125.12Y-42.96
X125.12Y-45.5
X125.12Y-135.96
X125.12Y-138.5
X127.66Y-42.96
X127.66Y-45.5
X127.66Y-135.96
X127.66Y-138.5
X130.2Y-42.96
X130.2Y-45.5
X130.2Y-135.96
X130.2Y-138.5
X132.74Y-42.96
X132.74Y-45.5
X132.74Y-135.96
X132.74Y-138.5
X135.28Y-42.96
X135.28Y-45.5
X135.28Y-135.96
X135.28Y-138.5
X137.82Y-42.96
X137.82Y-45.5
X137.82Y-135.96
X137.82Y-138.5
X140.36Y-42.96
X140.36Y-45.5
X140.36Y-135.96
X140.36Y-138.5
X142.9Y-42.96
X142.9Y-45.5
X142.9Y-135.96
X142.9Y-138.5
X145.44Y-42.96
X145.44Y-45.5
X145.44Y-135.96
X145.44Y-138.5
X147.98Y-42.96
X147.98Y-45.5
X147.98Y-135.96
X147.98Y-138.5
X150.52Y-42.96
X150.52Y-45.5
X150.52Y-135.96
X150.52Y-138.5
X153.06Y-42.96
X153.06Y-45.5
X153.06Y-135.96
X153.06Y-138.5
X173.52Y-85.15
X173.52Y-87.69
X173.52Y-90.23
X173.52Y-92.77
X173.52Y-95.31
T4
X117.6Y-62.68
X117.6Y-80.46
X117.83Y-69.03
X117.83Y-71.57
X117.83Y-74.11
X120.14Y-62.68
X120.14Y-80.46
X122.68Y-62.68
X122.68Y-80.46
X125.22Y-62.68
X125.22Y-80.46
X127.76Y-62.68
X127.76Y-80.46
X130.3Y-62.68
X130.3Y-80.46
X132.84Y-62.68
X132.84Y-80.46
X135.38Y-62.68
X135.38Y-80.46
X137.92Y-62.68
X137.92Y-80.46
X140.46Y-62.68
X140.46Y-80.46
X143.0Y-62.68
X143.0Y-80.46
X145.54Y-62.68
X145.54Y-80.46
X148.08Y-62.68
X148.08Y-80.46
X150.62Y-62.68
X150.62Y-80.46
X153.16Y-62.68
X153.16Y-80.46
X155.7Y-62.68
X155.7Y-80.46
X158.24Y-62.68
X158.24Y-80.46
X160.78Y-62.68
X160.78Y-80.46
X163.32Y-62.68
X163.32Y-80.46
X165.86Y-62.68
X165.86Y-80.46
T5
X133.71Y-119.93
X141.33Y-119.93
T0
M30
