%TF.GenerationSoftware,KiCad,Pcbnew,(6.0.9)*%
%TF.CreationDate,2023-02-19T12:57:16+02:00*%
%TF.ProjectId,Power,506f7765-722e-46b6-9963-61645f706362,rev?*%
%TF.SameCoordinates,Original*%
%TF.FileFunction,Soldermask,Top*%
%TF.FilePolarity,Negative*%
%FSLAX46Y46*%
G04 Gerber Fmt 4.6, Leading zero omitted, Abs format (unit mm)*
G04 Created by KiCad (PCBNEW (6.0.9)) date 2023-02-19 12:57:16*
%MOMM*%
%LPD*%
G01*
G04 APERTURE LIST*
G04 Aperture macros list*
%AMRoundRect*
0 Rectangle with rounded corners*
0 $1 Rounding radius*
0 $2 $3 $4 $5 $6 $7 $8 $9 X,Y pos of 4 corners*
0 Add a 4 corners polygon primitive as box body*
4,1,4,$2,$3,$4,$5,$6,$7,$8,$9,$2,$3,0*
0 Add four circle primitives for the rounded corners*
1,1,$1+$1,$2,$3*
1,1,$1+$1,$4,$5*
1,1,$1+$1,$6,$7*
1,1,$1+$1,$8,$9*
0 Add four rect primitives between the rounded corners*
20,1,$1+$1,$2,$3,$4,$5,0*
20,1,$1+$1,$4,$5,$6,$7,0*
20,1,$1+$1,$6,$7,$8,$9,0*
20,1,$1+$1,$8,$9,$2,$3,0*%
%AMHorizOval*
0 Thick line with rounded ends*
0 $1 width*
0 $2 $3 position (X,Y) of the first rounded end (center of the circle)*
0 $4 $5 position (X,Y) of the second rounded end (center of the circle)*
0 Add line between two ends*
20,1,$1,$2,$3,$4,$5,0*
0 Add two circle primitives to create the rounded ends*
1,1,$1,$2,$3*
1,1,$1,$4,$5*%
%AMRotRect*
0 Rectangle, with rotation*
0 The origin of the aperture is its center*
0 $1 length*
0 $2 width*
0 $3 Rotation angle, in degrees counterclockwise*
0 Add horizontal line*
21,1,$1,$2,0,0,$3*%
G04 Aperture macros list end*
%ADD10RotRect,1.700000X1.700000X315.000000*%
%ADD11HorizOval,1.700000X0.000000X0.000000X0.000000X0.000000X0*%
%ADD12C,7.500000*%
%ADD13C,4.700000*%
%ADD14C,4.500000*%
%ADD15R,1.700000X1.700000*%
%ADD16O,1.700000X1.700000*%
%ADD17RotRect,1.700000X1.700000X225.000000*%
%ADD18HorizOval,1.700000X0.000000X0.000000X0.000000X0.000000X0*%
%ADD19RoundRect,1.500000X1.500000X1.500000X-1.500000X1.500000X-1.500000X-1.500000X1.500000X-1.500000X0*%
%ADD20C,6.000000*%
%ADD21R,2.500000X6.000000*%
%ADD22C,1.000000*%
%ADD23R,2.400000X2.400000*%
%ADD24C,2.400000*%
G04 APERTURE END LIST*
D10*
%TO.C,J8*%
X48400000Y-85200000D03*
D11*
X46603949Y-86996051D03*
X44807898Y-88792102D03*
X43011846Y-90588154D03*
X41215795Y-92384205D03*
%TD*%
D12*
%TO.C,H3*%
X45000000Y-65000000D03*
D13*
X45000000Y-65000000D03*
%TD*%
%TO.C,H1*%
X185000000Y-145000000D03*
D12*
X185000000Y-145000000D03*
%TD*%
D14*
%TO.C,H9*%
X195800000Y-126400000D03*
%TD*%
D12*
%TO.C,H4*%
X45000000Y-145000000D03*
D13*
X45000000Y-145000000D03*
%TD*%
D15*
%TO.C,J6*%
X91000000Y-57000000D03*
D16*
X91000000Y-54460000D03*
X93540000Y-57000000D03*
X93540000Y-54460000D03*
X96080000Y-57000000D03*
X96080000Y-54460000D03*
X98620000Y-57000000D03*
X98620000Y-54460000D03*
X101160000Y-57000000D03*
X101160000Y-54460000D03*
X103700000Y-57000000D03*
X103700000Y-54460000D03*
X106240000Y-57000000D03*
X106240000Y-54460000D03*
X108780000Y-57000000D03*
X108780000Y-54460000D03*
X111320000Y-57000000D03*
X111320000Y-54460000D03*
X113860000Y-57000000D03*
X113860000Y-54460000D03*
X116400000Y-57000000D03*
X116400000Y-54460000D03*
X118940000Y-57000000D03*
X118940000Y-54460000D03*
X121480000Y-57000000D03*
X121480000Y-54460000D03*
X124020000Y-57000000D03*
X124020000Y-54460000D03*
X126560000Y-57000000D03*
X126560000Y-54460000D03*
X129100000Y-57000000D03*
X129100000Y-54460000D03*
X131640000Y-57000000D03*
X131640000Y-54460000D03*
X134180000Y-57000000D03*
X134180000Y-54460000D03*
X136720000Y-57000000D03*
X136720000Y-54460000D03*
X139260000Y-57000000D03*
X139260000Y-54460000D03*
%TD*%
D14*
%TO.C,H11*%
X195800000Y-87400000D03*
%TD*%
%TO.C,H10*%
X34500000Y-125600000D03*
%TD*%
D17*
%TO.C,J9*%
X48500000Y-127800000D03*
D18*
X46703949Y-126003949D03*
X44907898Y-124207898D03*
X43111846Y-122411846D03*
X41315795Y-120615795D03*
%TD*%
D14*
%TO.C,H12*%
X34500000Y-86600000D03*
%TD*%
D13*
%TO.C,H2*%
X185000000Y-65000000D03*
D12*
X185000000Y-65000000D03*
%TD*%
D15*
%TO.C,J7*%
X91000000Y-150000000D03*
D16*
X91000000Y-147460000D03*
X93540000Y-150000000D03*
X93540000Y-147460000D03*
X96080000Y-150000000D03*
X96080000Y-147460000D03*
X98620000Y-150000000D03*
X98620000Y-147460000D03*
X101160000Y-150000000D03*
X101160000Y-147460000D03*
X103700000Y-150000000D03*
X103700000Y-147460000D03*
X106240000Y-150000000D03*
X106240000Y-147460000D03*
X108780000Y-150000000D03*
X108780000Y-147460000D03*
X111320000Y-150000000D03*
X111320000Y-147460000D03*
X113860000Y-150000000D03*
X113860000Y-147460000D03*
X116400000Y-150000000D03*
X116400000Y-147460000D03*
X118940000Y-150000000D03*
X118940000Y-147460000D03*
X121480000Y-150000000D03*
X121480000Y-147460000D03*
X124020000Y-150000000D03*
X124020000Y-147460000D03*
X126560000Y-150000000D03*
X126560000Y-147460000D03*
X129100000Y-150000000D03*
X129100000Y-147460000D03*
X131640000Y-150000000D03*
X131640000Y-147460000D03*
X134180000Y-150000000D03*
X134180000Y-147460000D03*
X136720000Y-150000000D03*
X136720000Y-147460000D03*
X139260000Y-150000000D03*
X139260000Y-147460000D03*
%TD*%
D19*
%TO.C,J1*%
X60600000Y-113200000D03*
D20*
X53400000Y-113200000D03*
%TD*%
D21*
%TO.C,SW1*%
X53800000Y-101200000D03*
X58800000Y-101200000D03*
%TD*%
D22*
%TO.C,FID1*%
X94400000Y-136900000D03*
%TD*%
D23*
%TO.C,J3*%
X113750000Y-65900000D03*
D24*
X117250000Y-65900000D03*
X120750000Y-65900000D03*
X124250000Y-65900000D03*
X127750000Y-65900000D03*
X131250000Y-65900000D03*
%TD*%
D23*
%TO.C,J5*%
X134150000Y-138900000D03*
D24*
X130650000Y-138900000D03*
X127150000Y-138900000D03*
X123650000Y-138900000D03*
X120150000Y-138900000D03*
X116650000Y-138900000D03*
%TD*%
D14*
%TO.C,H6*%
X175000000Y-58000000D03*
X145000000Y-58000000D03*
X175000000Y-82000000D03*
X145000000Y-82000000D03*
%TD*%
D23*
%TO.C,J4*%
X120400000Y-130500000D03*
D24*
X123900000Y-130500000D03*
X127400000Y-130500000D03*
X130900000Y-130500000D03*
X134400000Y-130500000D03*
X137900000Y-130500000D03*
%TD*%
D23*
%TO.C,J2*%
X137450000Y-74200000D03*
D24*
X133950000Y-74200000D03*
X130450000Y-74200000D03*
X126950000Y-74200000D03*
X123450000Y-74200000D03*
X119950000Y-74200000D03*
%TD*%
D14*
%TO.C,H8*%
X85000000Y-152000000D03*
X55000000Y-128000000D03*
X85000000Y-128000000D03*
X55000000Y-152000000D03*
%TD*%
%TO.C,H5*%
X55000000Y-82000000D03*
X55000000Y-58000000D03*
X85000000Y-82000000D03*
X85000000Y-58000000D03*
%TD*%
%TO.C,H7*%
X145000000Y-128000000D03*
X175000000Y-128000000D03*
X175000000Y-152000000D03*
X145000000Y-152000000D03*
%TD*%
M02*
