%TF.GenerationSoftware,KiCad,Pcbnew,(6.0.9)*%
%TF.CreationDate,2023-02-19T12:57:17+02:00*%
%TF.ProjectId,Power,506f7765-722e-46b6-9963-61645f706362,rev?*%
%TF.SameCoordinates,Original*%
%TF.FileFunction,Paste,Bot*%
%TF.FilePolarity,Positive*%
%FSLAX46Y46*%
G04 Gerber Fmt 4.6, Leading zero omitted, Abs format (unit mm)*
G04 Created by KiCad (PCBNEW (6.0.9)) date 2023-02-19 12:57:17*
%MOMM*%
%LPD*%
G01*
G04 APERTURE LIST*
G04 Aperture macros list*
%AMRoundRect*
0 Rectangle with rounded corners*
0 $1 Rounding radius*
0 $2 $3 $4 $5 $6 $7 $8 $9 X,Y pos of 4 corners*
0 Add a 4 corners polygon primitive as box body*
4,1,4,$2,$3,$4,$5,$6,$7,$8,$9,$2,$3,0*
0 Add four circle primitives for the rounded corners*
1,1,$1+$1,$2,$3*
1,1,$1+$1,$4,$5*
1,1,$1+$1,$6,$7*
1,1,$1+$1,$8,$9*
0 Add four rect primitives between the rounded corners*
20,1,$1+$1,$2,$3,$4,$5,0*
20,1,$1+$1,$4,$5,$6,$7,0*
20,1,$1+$1,$6,$7,$8,$9,0*
20,1,$1+$1,$8,$9,$2,$3,0*%
G04 Aperture macros list end*
%ADD10RoundRect,0.237500X0.300000X0.237500X-0.300000X0.237500X-0.300000X-0.237500X0.300000X-0.237500X0*%
%ADD11RoundRect,0.237500X0.237500X-0.300000X0.237500X0.300000X-0.237500X0.300000X-0.237500X-0.300000X0*%
%ADD12RoundRect,0.237500X-0.250000X-0.237500X0.250000X-0.237500X0.250000X0.237500X-0.250000X0.237500X0*%
%ADD13RoundRect,0.237500X0.250000X0.237500X-0.250000X0.237500X-0.250000X-0.237500X0.250000X-0.237500X0*%
%ADD14RoundRect,0.250000X-0.475000X0.250000X-0.475000X-0.250000X0.475000X-0.250000X0.475000X0.250000X0*%
%ADD15RoundRect,0.875000X-1.125000X0.875000X-1.125000X-0.875000X1.125000X-0.875000X1.125000X0.875000X0*%
%ADD16RoundRect,0.250000X-0.325000X-0.650000X0.325000X-0.650000X0.325000X0.650000X-0.325000X0.650000X0*%
%ADD17RoundRect,0.250000X0.325000X0.650000X-0.325000X0.650000X-0.325000X-0.650000X0.325000X-0.650000X0*%
%ADD18RoundRect,0.225000X-0.225000X-0.250000X0.225000X-0.250000X0.225000X0.250000X-0.225000X0.250000X0*%
%ADD19RoundRect,0.200000X0.200000X0.275000X-0.200000X0.275000X-0.200000X-0.275000X0.200000X-0.275000X0*%
%ADD20RoundRect,0.250001X2.474999X-0.799999X2.474999X0.799999X-2.474999X0.799999X-2.474999X-0.799999X0*%
%ADD21RoundRect,0.225000X0.225000X0.250000X-0.225000X0.250000X-0.225000X-0.250000X0.225000X-0.250000X0*%
%ADD22RoundRect,0.250000X0.650000X-0.325000X0.650000X0.325000X-0.650000X0.325000X-0.650000X-0.325000X0*%
%ADD23RoundRect,0.200000X-0.200000X-0.275000X0.200000X-0.275000X0.200000X0.275000X-0.200000X0.275000X0*%
%ADD24RoundRect,0.250000X-0.400000X-0.625000X0.400000X-0.625000X0.400000X0.625000X-0.400000X0.625000X0*%
%ADD25R,0.450000X1.750000*%
%ADD26RoundRect,0.225000X0.250000X-0.225000X0.250000X0.225000X-0.250000X0.225000X-0.250000X-0.225000X0*%
%ADD27R,2.500000X1.800000*%
%ADD28RoundRect,0.875000X1.125000X-0.875000X1.125000X0.875000X-1.125000X0.875000X-1.125000X-0.875000X0*%
%ADD29RoundRect,0.225000X-0.250000X0.225000X-0.250000X-0.225000X0.250000X-0.225000X0.250000X0.225000X0*%
%ADD30RoundRect,0.200000X0.275000X-0.200000X0.275000X0.200000X-0.275000X0.200000X-0.275000X-0.200000X0*%
%ADD31RoundRect,0.250000X0.475000X-0.250000X0.475000X0.250000X-0.475000X0.250000X-0.475000X-0.250000X0*%
%ADD32RoundRect,0.150000X-0.150000X0.825000X-0.150000X-0.825000X0.150000X-0.825000X0.150000X0.825000X0*%
%ADD33RoundRect,0.240000X-0.240000X-0.385000X0.240000X-0.385000X0.240000X0.385000X-0.240000X0.385000X0*%
%ADD34RoundRect,0.150000X-0.825000X-0.150000X0.825000X-0.150000X0.825000X0.150000X-0.825000X0.150000X0*%
%ADD35RoundRect,0.250000X0.250000X0.475000X-0.250000X0.475000X-0.250000X-0.475000X0.250000X-0.475000X0*%
%ADD36RoundRect,0.240000X0.240000X0.385000X-0.240000X0.385000X-0.240000X-0.385000X0.240000X-0.385000X0*%
%ADD37RoundRect,0.150000X0.825000X0.150000X-0.825000X0.150000X-0.825000X-0.150000X0.825000X-0.150000X0*%
%ADD38RoundRect,0.250000X-0.650000X0.325000X-0.650000X-0.325000X0.650000X-0.325000X0.650000X0.325000X0*%
G04 APERTURE END LIST*
D10*
%TO.C,C26*%
X105462500Y-67100000D03*
X103737500Y-67100000D03*
%TD*%
D11*
%TO.C,C16*%
X98700000Y-135162500D03*
X98700000Y-133437500D03*
%TD*%
D12*
%TO.C,R11*%
X103687500Y-65500000D03*
X105512500Y-65500000D03*
%TD*%
D13*
%TO.C,R10*%
X97112500Y-133400000D03*
X95287500Y-133400000D03*
%TD*%
D14*
%TO.C,C3*%
X79100000Y-107900000D03*
X79100000Y-109800000D03*
%TD*%
D15*
%TO.C,L1*%
X107025000Y-123400000D03*
X107025000Y-132900000D03*
%TD*%
D14*
%TO.C,C10*%
X111600000Y-106500000D03*
X111600000Y-108400000D03*
%TD*%
D16*
%TO.C,C29*%
X97325000Y-63100000D03*
X100275000Y-63100000D03*
%TD*%
D17*
%TO.C,C18*%
X105975000Y-138900000D03*
X103025000Y-138900000D03*
%TD*%
D18*
%TO.C,C2*%
X71425000Y-101600000D03*
X72975000Y-101600000D03*
%TD*%
D19*
%TO.C,R4*%
X105525000Y-68700000D03*
X103875000Y-68700000D03*
%TD*%
D20*
%TO.C,F1*%
X46100000Y-110275000D03*
X46100000Y-103325000D03*
%TD*%
D14*
%TO.C,C39*%
X76990000Y-107900000D03*
X76990000Y-109800000D03*
%TD*%
D21*
%TO.C,C8*%
X116175000Y-90100000D03*
X114625000Y-90100000D03*
%TD*%
D18*
%TO.C,C4*%
X116825000Y-106900000D03*
X118375000Y-106900000D03*
%TD*%
D22*
%TO.C,C24*%
X113125000Y-75370000D03*
X113125000Y-72420000D03*
%TD*%
D23*
%TO.C,R1*%
X113175000Y-100600000D03*
X114825000Y-100600000D03*
%TD*%
D12*
%TO.C,R6*%
X103887500Y-70300000D03*
X105712500Y-70300000D03*
%TD*%
D24*
%TO.C,R9*%
X66900000Y-110500000D03*
X70000000Y-110500000D03*
%TD*%
D25*
%TO.C,U1*%
X116225000Y-80800000D03*
X116875000Y-80800000D03*
X117525000Y-80800000D03*
X118175000Y-80800000D03*
X118825000Y-80800000D03*
X119475000Y-80800000D03*
X120125000Y-80800000D03*
X120775000Y-80800000D03*
X121425000Y-80800000D03*
X122075000Y-80800000D03*
X122725000Y-80800000D03*
X123375000Y-80800000D03*
X123375000Y-88000000D03*
X122725000Y-88000000D03*
X122075000Y-88000000D03*
X121425000Y-88000000D03*
X120775000Y-88000000D03*
X120125000Y-88000000D03*
X119475000Y-88000000D03*
X118825000Y-88000000D03*
X118175000Y-88000000D03*
X117525000Y-88000000D03*
X116875000Y-88000000D03*
X116225000Y-88000000D03*
%TD*%
D13*
%TO.C,R5*%
X100312500Y-131700000D03*
X98487500Y-131700000D03*
%TD*%
D24*
%TO.C,R7*%
X66900000Y-108200000D03*
X70000000Y-108200000D03*
%TD*%
D16*
%TO.C,C30*%
X97325000Y-60700000D03*
X100275000Y-60700000D03*
%TD*%
D25*
%TO.C,U2*%
X120975000Y-116200000D03*
X120325000Y-116200000D03*
X119675000Y-116200000D03*
X119025000Y-116200000D03*
X118375000Y-116200000D03*
X117725000Y-116200000D03*
X117075000Y-116200000D03*
X116425000Y-116200000D03*
X115775000Y-116200000D03*
X115125000Y-116200000D03*
X114475000Y-116200000D03*
X113825000Y-116200000D03*
X113825000Y-109000000D03*
X114475000Y-109000000D03*
X115125000Y-109000000D03*
X115775000Y-109000000D03*
X116425000Y-109000000D03*
X117075000Y-109000000D03*
X117725000Y-109000000D03*
X118375000Y-109000000D03*
X119025000Y-109000000D03*
X119675000Y-109000000D03*
X120325000Y-109000000D03*
X120975000Y-109000000D03*
%TD*%
D26*
%TO.C,C23*%
X104025000Y-79170000D03*
X104025000Y-77620000D03*
%TD*%
D27*
%TO.C,D1*%
X93525000Y-123500000D03*
X97525000Y-123500000D03*
%TD*%
D28*
%TO.C,L2*%
X97125000Y-80945000D03*
X97125000Y-71445000D03*
%TD*%
D29*
%TO.C,C14*%
X93025000Y-127425000D03*
X93025000Y-128975000D03*
%TD*%
D30*
%TO.C,R3*%
X100300000Y-135125000D03*
X100300000Y-133475000D03*
%TD*%
D16*
%TO.C,C17*%
X107825000Y-141300000D03*
X110775000Y-141300000D03*
%TD*%
D31*
%TO.C,C37*%
X79110000Y-106350000D03*
X79110000Y-104450000D03*
%TD*%
%TO.C,C35*%
X77000000Y-106350000D03*
X77000000Y-104450000D03*
%TD*%
D21*
%TO.C,C1*%
X69275000Y-101600000D03*
X67725000Y-101600000D03*
%TD*%
D32*
%TO.C,U5*%
X67895000Y-94425000D03*
X69165000Y-94425000D03*
X70435000Y-94425000D03*
X71705000Y-94425000D03*
X71705000Y-99375000D03*
X70435000Y-99375000D03*
X69165000Y-99375000D03*
X67895000Y-99375000D03*
%TD*%
D21*
%TO.C,C34*%
X95375000Y-61100000D03*
X93825000Y-61100000D03*
%TD*%
D26*
%TO.C,C25*%
X111125000Y-74670000D03*
X111125000Y-73120000D03*
%TD*%
D23*
%TO.C,R8*%
X113185000Y-102250000D03*
X114835000Y-102250000D03*
%TD*%
D29*
%TO.C,C12*%
X100225000Y-122925000D03*
X100225000Y-124475000D03*
%TD*%
D18*
%TO.C,C11*%
X121225000Y-106900000D03*
X122775000Y-106900000D03*
%TD*%
D33*
%TO.C,U4*%
X105955000Y-74645000D03*
X107095000Y-74645000D03*
X107095000Y-73145000D03*
X105955000Y-73145000D03*
D34*
X104050000Y-75800000D03*
X104050000Y-74530000D03*
X104050000Y-73260000D03*
X104050000Y-71990000D03*
X109000000Y-71990000D03*
X109000000Y-73260000D03*
X109000000Y-74530000D03*
X109000000Y-75800000D03*
%TD*%
D14*
%TO.C,C9*%
X109550000Y-106500000D03*
X109550000Y-108400000D03*
%TD*%
D24*
%TO.C,R12*%
X66900000Y-105900000D03*
X70000000Y-105900000D03*
%TD*%
D17*
%TO.C,C19*%
X105955000Y-141320000D03*
X103005000Y-141320000D03*
%TD*%
D31*
%TO.C,C36*%
X74900000Y-106350000D03*
X74900000Y-104450000D03*
%TD*%
D14*
%TO.C,C38*%
X74900000Y-107900000D03*
X74900000Y-109800000D03*
%TD*%
D17*
%TO.C,C33*%
X95275000Y-67900000D03*
X92325000Y-67900000D03*
%TD*%
%TO.C,C31*%
X95275000Y-63100000D03*
X92325000Y-63100000D03*
%TD*%
D16*
%TO.C,C28*%
X97325000Y-65500000D03*
X100275000Y-65500000D03*
%TD*%
D17*
%TO.C,C32*%
X95275000Y-65500000D03*
X92325000Y-65500000D03*
%TD*%
D24*
%TO.C,R13*%
X66900000Y-103600000D03*
X70000000Y-103600000D03*
%TD*%
D16*
%TO.C,C22*%
X107825000Y-136500000D03*
X110775000Y-136500000D03*
%TD*%
D35*
%TO.C,C6*%
X122850000Y-92400000D03*
X120950000Y-92400000D03*
%TD*%
D16*
%TO.C,C27*%
X97325000Y-67900000D03*
X100275000Y-67900000D03*
%TD*%
%TO.C,C20*%
X107825000Y-138890000D03*
X110775000Y-138890000D03*
%TD*%
D36*
%TO.C,U3*%
X98195000Y-128850000D03*
X98195000Y-127350000D03*
X97055000Y-127350000D03*
X97055000Y-128850000D03*
D37*
X100100000Y-126195000D03*
X100100000Y-127465000D03*
X100100000Y-128735000D03*
X100100000Y-130005000D03*
X95150000Y-130005000D03*
X95150000Y-128735000D03*
X95150000Y-127465000D03*
X95150000Y-126195000D03*
%TD*%
D21*
%TO.C,C21*%
X105175000Y-143300000D03*
X103625000Y-143300000D03*
%TD*%
D17*
%TO.C,C15*%
X105975000Y-136500000D03*
X103025000Y-136500000D03*
%TD*%
D24*
%TO.C,R2*%
X66900000Y-112900000D03*
X70000000Y-112900000D03*
%TD*%
D21*
%TO.C,C5*%
X119450000Y-90100000D03*
X117900000Y-90100000D03*
%TD*%
D38*
%TO.C,C13*%
X91025000Y-126925000D03*
X91025000Y-129875000D03*
%TD*%
D35*
%TO.C,C7*%
X122850000Y-90300000D03*
X120950000Y-90300000D03*
%TD*%
D27*
%TO.C,D2*%
X110725000Y-78495000D03*
X106725000Y-78495000D03*
%TD*%
M02*
