M48
; DRILL file {KiCad (6.0.9)} date Sun Feb 19 12:57:17 2023
; FORMAT={-:-/ absolute / inch / decimal}
; #@! TF.CreationDate,2023-02-19T12:57:17+02:00
; #@! TF.GenerationSoftware,Kicad,Pcbnew,(6.0.9)
; #@! TF.FileFunction,Plated,1,2,PTH
FMAT,2
INCH
; #@! TA.AperFunction,Plated,PTH,ComponentDrill
T1C0.0118
; #@! TA.AperFunction,Plated,PTH,ViaDrill
T2C0.0157
; #@! TA.AperFunction,Plated,PTH,ViaDrill
T3C0.0197
; #@! TA.AperFunction,Plated,PTH,ComponentDrill
T4C0.0305
; #@! TA.AperFunction,Plated,PTH,ComponentDrill
T5C0.0394
; #@! TA.AperFunction,Plated,PTH,ComponentDrill
T6C0.0472
; #@! TA.AperFunction,Plated,PTH,ComponentDrill
T7C0.1693
; #@! TA.AperFunction,Plated,PTH,ComponentDrill
T8C0.1772
%
G90
G05
T1
X3.8179Y-5.0039
X3.8179Y-5.0433
X3.8179Y-5.0827
X3.8691Y-5.0039
X3.8691Y-5.0433
X3.8691Y-5.0827
X4.1683Y-2.8699
X4.1683Y-2.9093
X4.1683Y-2.9486
X4.2195Y-2.8699
X4.2195Y-2.9093
X4.2195Y-2.9486
T2
X1.066Y-4.4924
X1.0671Y-4.1141
X1.0699Y-4.2345
X1.0706Y-4.4037
X1.0728Y-4.7966
X1.0779Y-3.814
X1.0791Y-3.6391
X1.0804Y-3.9028
X1.0846Y-3.9969
X1.0872Y-4.3162
X1.0942Y-3.5212
X1.0977Y-4.5952
X1.102Y-3.7047
X1.103Y-4.684
X1.1557Y-3.9007
X1.1565Y-3.6996
X1.1585Y-4.2137
X1.1587Y-4.9199
X1.161Y-5.077
X1.164Y-4.4135
X1.1675Y-3.4255
X1.1676Y-3.838
X1.168Y-3.3055
X1.1683Y-5.0159
X1.1704Y-3.6079
X1.1719Y-3.5399
X1.1733Y-4.0999
X1.1832Y-4.3254
X1.185Y-4.0102
X1.185Y-4.7049
X1.1883Y-4.5906
X1.1885Y-4.8
X1.1934Y-3.2339
X1.1954Y-4.5198
X1.1992Y-3.1475
X1.2539Y-4.0381
X1.254Y-3.8224
X1.2568Y-3.6215
X1.2584Y-4.7842
X1.259Y-4.3225
X1.2598Y-3.2183
X1.2614Y-4.1385
X1.2624Y-4.2112
X1.2628Y-3.8982
X1.2652Y-5.1835
X1.2659Y-4.4144
X1.2666Y-3.5383
X1.2685Y-4.7269
X1.2788Y-3.0322
X1.2792Y-3.7188
X1.2815Y-3.1251
X1.2819Y-2.9527
X1.2867Y-4.4867
X1.2934Y-5.0882
X1.2935Y-4.585
X1.2938Y-5.2991
X1.3523Y-3.6301
X1.3525Y-4.2957
X1.3562Y-4.5083
X1.3564Y-3.1512
X1.3564Y-5.2814
X1.3576Y-2.8113
X1.3589Y-3.9192
X1.3605Y-3.2465
X1.361Y-5.1195
X1.3617Y-4.3898
X1.3623Y-4.8202
X1.3638Y-5.4933
X1.364Y-4.1182
X1.364Y-3.7027
X1.3668Y-4.6198
X1.3731Y-2.9187
X1.3756Y-3.8003
X1.3758Y-4.2111
X1.384Y-4.0215
X1.3842Y-3.0503
X1.3855Y-5.4051
X1.3887Y-2.7175
X1.3925Y-4.7151
X1.3949Y-5.1906
X1.4491Y-4.5188
X1.4542Y-4.7969
X1.4551Y-4.195
X1.4553Y-4.7171
X1.4564Y-3.9931
X1.4582Y-2.8347
X1.4586Y-3.6396
X1.4634Y-3.1372
X1.4666Y-5.2747
X1.4689Y-4.8964
X1.4718Y-3.9102
X1.4745Y-5.0996
X1.4752Y-3.7191
X1.4757Y-5.6014
X1.477Y-5.3745
X1.4772Y-5.5133
X1.4776Y-4.6007
X1.4776Y-4.3854
X1.478Y-3.2147
X1.4785Y-3.7973
X1.4791Y-3.3462
X1.4796Y-5.6728
X1.4817Y-4.1189
X1.4824Y-2.6387
X1.4838Y-3.5288
X1.4839Y-3.0189
X1.4937Y-4.3306
X1.4945Y-2.7146
X1.4951Y-4.976
X1.4959Y-5.2001
X1.4972Y-2.9414
X1.5495Y-3.533
X1.5516Y-4.8089
X1.5545Y-3.3497
X1.5562Y-5.1757
X1.5572Y-2.4527
X1.5599Y-5.0963
X1.5616Y-4.9256
X1.562Y-5.3051
X1.5661Y-5.3751
X1.5692Y-3.2267
X1.5732Y-2.5275
X1.5791Y-5.0227
X1.5798Y-5.585
X1.5839Y-2.7431
X1.5851Y-2.8115
X1.5853Y-5.5049
X1.5863Y-2.6434
X1.5875Y-5.6804
X1.5893Y-5.8099
X1.5911Y-3.022
X1.5911Y-2.9521
X1.5912Y-3.4092
X1.5952Y-3.1392
X1.6486Y-5.2921
X1.6536Y-2.7411
X1.6543Y-4.2213
X1.6559Y-5.0118
X1.6562Y-5.0963
X1.6591Y-3.1191
X1.6596Y-2.3462
X1.6651Y-2.9482
X1.6691Y-5.9075
X1.6732Y-4.0173
X1.6735Y-4.1379
X1.6739Y-5.1982
X1.676Y-4.3045
X1.6761Y-3.405
X1.6843Y-5.5153
X1.6845Y-2.8223
X1.6891Y-3.9356
X1.6895Y-4.8973
X1.6903Y-4.5285
X1.6906Y-4.4085
X1.6929Y-3.0551
X1.6944Y-5.3857
X1.7516Y-5.0047
X1.7525Y-2.8278
X1.7558Y-5.2022
X1.758Y-2.333
X1.7581Y-2.7449
X1.7582Y-6.0034
X1.7593Y-4.6102
X1.7596Y-5.2711
X1.7608Y-4.1964
X1.7649Y-3.8196
X1.7713Y-5.9098
X1.7721Y-5.5083
X1.7747Y-3.0159
X1.7786Y-2.2686
X1.7848Y-5.1009
X1.7861Y-2.9227
X1.7863Y-5.3988
X1.7911Y-3.427
X1.7992Y-3.6024
X1.8488Y-4.5907
X1.8494Y-4.8185
X1.8532Y-5.891
X1.8554Y-4.2053
X1.8575Y-5.287
X1.8587Y-4.7217
X1.8592Y-2.9356
X1.861Y-2.7571
X1.8643Y-3.7241
X1.8646Y-5.3897
X1.8669Y-5.1003
X1.8724Y-3.5452
X1.8748Y-2.2212
X1.8788Y-3.842
X1.8815Y-2.347
X1.882Y-6.0738
X1.8845Y-2.8519
X1.8877Y-5.992
X1.8889Y-2.1291
X1.8889Y-5.4896
X1.941Y-5.9624
X1.9422Y-4.1134
X1.9428Y-2.7353
X1.9433Y-5.6052
X1.9446Y-4.8257
X1.946Y-5.7662
X1.9489Y-4.9178
X1.949Y-2.0592
X1.9534Y-5.383
X1.9538Y-3.5244
X1.9541Y-5.4923
X1.9555Y-5.9002
X1.9572Y-2.6322
X1.9576Y-5.6809
X1.9592Y-2.4205
X1.9604Y-2.8192
X1.9614Y-2.2332
X1.9618Y-3.8358
X1.9637Y-4.1912
X1.9659Y-4.5951
X1.9688Y-3.7203
X1.9707Y-6.1838
X1.9722Y-5.2075
X1.9736Y-2.1372
X1.9765Y-2.5587
X1.9777Y-3.2474
X1.9788Y-5.0844
X1.9827Y-4.3205
X1.986Y-3.4426
X1.9862Y-6.067
X1.989Y-2.3623
X1.9893Y-4.6879
X2.0399Y-2.1216
X2.0437Y-5.6871
X2.0446Y-5.2109
X2.0453Y-6.1651
X2.0461Y-2.7233
X2.0464Y-4.2986
X2.0465Y-4.7234
X2.0468Y-2.425
X2.0477Y-3.7156
X2.0477Y-3.3263
X2.0484Y-2.635
X2.0486Y-3.1453
X2.0532Y-4.5984
X2.0534Y-5.2977
X2.0584Y-3.5138
X2.059Y-5.9073
X2.0591Y-2.5185
X2.0599Y-3.4295
X2.0601Y-5.8011
X2.0645Y-2.072
X2.0681Y-4.8088
X2.0683Y-4.9209
X2.0706Y-5.5844
X2.0783Y-4.1978
X2.0803Y-6.0951
X2.0838Y-5.5026
X2.0884Y-3.7969
X2.141Y-2.1668
X2.1419Y-5.7095
X2.143Y-4.8919
X2.1467Y-4.6142
X2.1473Y-4.7807
X2.1496Y-2.4381
X2.1604Y-5.2709
X2.1618Y-3.541
X2.1623Y-6.1938
X2.1624Y-5.399
X2.164Y-4.7144
X2.1648Y-4.1983
X2.1664Y-3.7075
X2.1666Y-4.3303
X2.1667Y-2.5497
X2.1682Y-5.7759
X2.1702Y-3.8384
X2.1714Y-2.0365
X2.1717Y-3.0222
X2.172Y-3.4076
X2.1789Y-2.6161
X2.1843Y-5.5949
X2.1855Y-5.1783
X2.2423Y-5.8723
X2.2425Y-5.4884
X2.2451Y-4.8975
X2.25Y-4.6136
X2.2513Y-5.7881
X2.2521Y-5.6815
X2.2539Y-5.3059
X2.2548Y-3.5105
X2.2567Y-6.1948
X2.2599Y-3.7255
X2.2604Y-4.8259
X2.261Y-2.5226
X2.2624Y-3.1406
X2.2648Y-3.0375
X2.2657Y-2.1677
X2.2658Y-4.2305
X2.2677Y-5.185
X2.268Y-2.9101
X2.269Y-4.2974
X2.2691Y-5.4159
X2.2726Y-3.8235
X2.2746Y-4.7208
X2.275Y-2.0255
X2.2766Y-6.0772
X2.2785Y-2.4511
X2.2809Y-3.3196
X2.2836Y-2.8307
X2.2847Y-3.4301
X2.335Y-3.2178
X2.3353Y-2.7508
X2.3383Y-5.5979
X2.3402Y-2.2232
X2.341Y-4.6108
X2.3423Y-6.008
X2.3425Y-6.1802
X2.343Y-5.7867
X2.3439Y-3.4047
X2.3459Y-5.8864
X2.3494Y-3.8322
X2.3525Y-4.9848
X2.3525Y-4.7816
X2.3552Y-4.9245
X2.3581Y-2.3359
X2.3587Y-3.5354
X2.3594Y-4.714
X2.3624Y-4.2009
X2.3627Y-5.2217
X2.3633Y-3.3472
X2.3683Y-5.2912
X2.3684Y-6.0973
X2.3691Y-5.7057
X2.3699Y-2.852
X2.3723Y-2.924
X2.3729Y-2.4452
X2.3755Y-5.3736
X2.3757Y-5.494
X2.3788Y-5.1045
X2.3808Y-2.1302
X2.3809Y-3.0554
X2.3836Y-2.0471
X2.3837Y-3.144
X2.4347Y-3.6127
X2.435Y-5.2086
X2.4385Y-2.6177
X2.4387Y-5.3999
X2.4396Y-3.4373
X2.4406Y-3.0475
X2.4425Y-4.6109
X2.4428Y-2.0451
X2.4429Y-5.5714
X2.4439Y-5.3179
X2.4455Y-3.2053
X2.4459Y-4.791
X2.4475Y-2.712
X2.451Y-2.359
X2.4529Y-2.8182
X2.4542Y-3.3365
X2.4547Y-3.9134
X2.4582Y-5.8828
X2.4625Y-2.2342
X2.4634Y-6.06
X2.4667Y-2.1395
X2.4685Y-5.4958
X2.4692Y-6.1681
X2.4708Y-5.0819
X2.4717Y-3.1204
X2.473Y-5.7868
X2.4756Y-4.9961
X2.4764Y-2.9572
X2.4767Y-4.7282
X2.4768Y-3.5408
X2.4789Y-5.9724
X2.4814Y-5.7046
X2.4815Y-4.8986
X2.5316Y-5.4899
X2.5339Y-2.1299
X2.5342Y-3.9203
X2.5349Y-3.1232
X2.541Y-5.0028
X2.5414Y-4.6914
X2.5433Y-3.3052
X2.5473Y-2.8159
X2.5508Y-3.4127
X2.5519Y-5.2167
X2.5527Y-2.2234
X2.553Y-2.7423
X2.5544Y-5.4122
X2.5551Y-5.118
X2.5557Y-3.5359
X2.5582Y-3.0556
X2.5589Y-4.527
X2.5595Y-5.2942
X2.5607Y-5.9884
X2.5612Y-6.0698
X2.5613Y-6.1808
X2.5629Y-4.5935
X2.5638Y-2.6196
X2.5644Y-4.398
X2.5656Y-5.594
X2.5657Y-4.9197
X2.569Y-2.5304
X2.5706Y-4.8007
X2.5712Y-3.7177
X2.5745Y-2.0346
X2.5752Y-3.2507
X2.5752Y-3.9967
X2.5763Y-2.9403
X2.5781Y-5.9016
X2.5794Y-5.7759
X2.5794Y-5.7043
X2.6063Y-3.6575
X2.6336Y-5.1162
X2.6359Y-2.9287
X2.6365Y-5.175
X2.6401Y-4.7935
X2.6406Y-5.577
X2.6408Y-5.2723
X2.6429Y-3.0555
X2.6437Y-5.9052
X2.6445Y-4.6126
X2.6517Y-5.9761
X2.6529Y-5.4899
X2.6541Y-3.4149
X2.6574Y-6.1023
X2.6579Y-3.5454
X2.6589Y-2.6543
X2.6615Y-5.6974
X2.6622Y-2.8131
X2.6626Y-2.4416
X2.663Y-3.233
X2.6631Y-4.6856
X2.6646Y-2.5183
X2.6664Y-2.1279
X2.6665Y-4.8978
X2.6674Y-5.8106
X2.6686Y-2.7377
X2.6704Y-3.1147
X2.6714Y-5.3822
X2.6732Y-6.1831
X2.6758Y-3.3332
X2.6771Y-2.033
X2.6785Y-4.9767
X2.685Y-3.5787
X2.732Y-4.5845
X2.7327Y-3.0308
X2.7409Y-5.5092
X2.7438Y-4.9213
X2.7457Y-2.9294
X2.7474Y-2.6198
X2.7502Y-4.6917
X2.7506Y-5.2893
X2.7531Y-5.3861
X2.7547Y-6.0892
X2.756Y-5.0934
X2.757Y-6.1578
X2.7581Y-2.4241
X2.7583Y-2.7509
X2.7594Y-2.0445
X2.7595Y-2.8451
X2.7601Y-5.6651
X2.7607Y-5.1855
X2.7625Y-4.8164
X2.7645Y-4.993
X2.7647Y-2.3427
X2.767Y-6.0019
X2.7673Y-2.521
X2.7717Y-3.8504
X2.7717Y-3.9764
X2.7734Y-5.8746
X2.7759Y-5.6061
X2.7762Y-5.7688
X2.7992Y-3.6496
X2.8296Y-2.6509
X2.8306Y-5.0947
X2.8345Y-5.0083
X2.8367Y-4.7126
X2.8383Y-2.5557
X2.8457Y-5.5802
X2.8468Y-5.4718
X2.8473Y-5.8995
X2.8478Y-6.0625
X2.8538Y-5.2715
X2.8559Y-2.4378
X2.8573Y-5.7976
X2.8599Y-2.9382
X2.8606Y-2.3368
X2.8617Y-6.1996
X2.8625Y-5.9949
X2.8644Y-3.8039
X2.8649Y-2.2531
X2.8655Y-5.4067
X2.866Y-5.1921
X2.8683Y-4.9004
X2.8702Y-4.6095
X2.8704Y-4.7976
X2.8714Y-2.8561
X2.8742Y-5.6839
X2.8749Y-2.7162
X2.8753Y-4.509
X2.8898Y-4.2953
X2.8898Y-4.3386
X2.8898Y-4.378
X2.8937Y-4.063
X2.8937Y-4.1063
X2.9173Y-4.0039
X2.9282Y-3.6246
X2.9287Y-3.7044
X2.9304Y-2.7312
X2.9316Y-4.9237
X2.9344Y-4.5322
X2.9366Y-2.4533
X2.937Y-4.063
X2.937Y-4.378
X2.9399Y-2.1314
X2.9402Y-5.6931
X2.9433Y-2.3295
X2.944Y-5.9784
X2.9447Y-3.1351
X2.9474Y-3.4091
X2.948Y-2.5427
X2.9484Y-5.3096
X2.9516Y-5.4172
X2.9529Y-5.119
X2.9532Y-5.8025
X2.9544Y-4.7832
X2.9552Y-3.8243
X2.9576Y-5.4811
X2.9586Y-3.0374
X2.9606Y-2.245
X2.9646Y-5.2053
X2.9668Y-6.0749
X2.9713Y-5.5946
X2.9723Y-4.9885
X2.9726Y-6.1697
X2.9727Y-3.3268
X2.9728Y-3.2358
X2.9733Y-4.7199
X2.9734Y-3.5437
X2.9736Y-2.6584
X2.9738Y-5.884
X2.9738Y-3.9355
X2.9741Y-4.6163
X2.9764Y-4.378
X2.9843Y-4.063
X3.0236Y-4.378
X3.024Y-2.1238
X3.0291Y-4.6922
X3.0293Y-3.221
X3.0303Y-5.4776
X3.0307Y-4.7969
X3.0315Y-4.063
X3.0317Y-3.9105
X3.0323Y-4.5265
X3.0335Y-2.3331
X3.0351Y-2.5533
X3.0358Y-6.181
X3.0368Y-4.9019
X3.0381Y-3.3264
X3.0399Y-5.5818
X3.0413Y-3.1181
X3.0414Y-5.7817
X3.0422Y-5.8658
X3.0469Y-5.4036
X3.0531Y-4.6197
X3.0537Y-3.0524
X3.0571Y-3.6343
X3.0588Y-3.5392
X3.0606Y-2.9351
X3.0621Y-5.9919
X3.063Y-4.378
X3.0641Y-3.8352
X3.0657Y-3.7438
X3.0665Y-3.4128
X3.0683Y-2.2242
X3.0683Y-6.0672
X3.0691Y-2.6266
X3.0705Y-2.4445
X3.0715Y-5.6883
X3.0748Y-4.063
X3.1024Y-4.378
X3.1181Y-4.063
X3.1227Y-2.9559
X3.1283Y-5.5148
X3.1285Y-4.8027
X3.1302Y-3.818
X3.1303Y-3.5219
X3.1345Y-2.4522
X3.1353Y-2.8413
X3.1356Y-4.605
X3.1408Y-2.5352
X3.1417Y-4.378
X3.1422Y-3.733
X3.1434Y-5.9838
X3.1439Y-3.2442
X3.1478Y-5.6714
X3.1482Y-2.2291
X3.1511Y-3.9328
X3.1513Y-3.4288
X3.1514Y-6.1667
X3.1556Y-5.8835
X3.1601Y-6.0829
X3.1603Y-4.5255
X3.1614Y-4.063
X3.1623Y-5.7993
X3.1629Y-3.151
X3.1646Y-3.3039
X3.1647Y-2.1643
X3.1652Y-3.636
X3.1655Y-3.0392
X3.1657Y-2.3523
X3.1662Y-5.5926
X3.1665Y-4.716
X3.1772Y-4.1063
X3.1772Y-4.3031
X3.1772Y-4.3425
X3.1772Y-4.378
X3.2205Y-4.752
X3.222Y-3.9004
X3.2228Y-2.718
X3.2236Y-2.8348
X3.2319Y-3.0319
X3.2333Y-3.6403
X3.2344Y-2.9128
X3.2383Y-6.1852
X3.2465Y-3.4252
X3.248Y-4.7165
X3.248Y-3.342
X3.2484Y-2.1562
X3.2504Y-3.8159
X3.2509Y-5.9043
X3.2519Y-2.4333
X3.2523Y-5.6683
X3.2597Y-5.7851
X3.2618Y-5.5888
X3.2632Y-3.1124
X3.2634Y-3.7002
X3.2672Y-6.08
X3.2683Y-3.5477
X3.2835Y-4.685
X3.3195Y-3.4378
X3.3218Y-3.0439
X3.3258Y-2.843
X3.3277Y-4.8553
X3.3351Y-6.1703
X3.336Y-2.6144
X3.3396Y-3.5399
X3.3441Y-2.1431
X3.3453Y-2.7442
X3.3456Y-3.6243
X3.3502Y-5.7697
X3.3532Y-3.9317
X3.3553Y-4.8277
X3.3571Y-2.9165
X3.3631Y-3.7396
X3.365Y-3.8146
X3.3661Y-4.6024
X3.3927Y-4.7903
X3.3976Y-4.5709
X3.4189Y-4.2897
X3.4198Y-3.6965
X3.4205Y-2.5208
X3.4209Y-4.4089
X3.4242Y-2.747
X3.4263Y-3.5227
X3.4264Y-3.428
X3.4283Y-3.1357
X3.4284Y-5.8868
X3.4335Y-5.2732
X3.4355Y-2.6182
X3.437Y-4.5433
X3.438Y-3.6455
X3.4389Y-2.1259
X3.4468Y-3.31
X3.4469Y-3.8114
X3.4469Y-3.9284
X3.4546Y-6.2054
X3.4559Y-4.8905
X3.46Y-5.215
X3.4603Y-2.9122
X3.4621Y-2.8236
X3.4631Y-6.1021
X3.4657Y-3.044
X3.4754Y-4.7076
X3.5009Y-4.682
X3.521Y-5.1756
X3.5236Y-5.1142
X3.5281Y-3.5474
X3.5315Y-4.6535
X3.5323Y-3.8238
X3.534Y-3.303
X3.5424Y-3.7111
X3.5426Y-6.0061
X3.5507Y-6.098
X3.5517Y-4.4028
X3.558Y-4.3161
X3.5587Y-3.9128
X3.5621Y-3.6402
X3.5628Y-3.4211
X3.5647Y-6.1861
X3.5827Y-2.4291
X3.5827Y-2.4646
X3.5827Y-2.5
X3.5827Y-2.5394
X3.5827Y-2.5709
X3.5827Y-2.6063
X3.5827Y-2.6457
X3.5827Y-2.6811
X3.5827Y-2.7165
X3.5945Y-5.1575
X3.6024Y-2.3898
X3.6178Y-6.1935
X3.6185Y-3.9162
X3.6256Y-5.3148
X3.6325Y-3.4373
X3.6338Y-3.8187
X3.6352Y-3.623
X3.6353Y-2.9476
X3.6374Y-4.4049
X3.6449Y-3.5211
X3.6452Y-4.2952
X3.6476Y-5.9645
X3.6478Y-6.0796
X3.6496Y-2.4173
X3.6535Y-2.3661
X3.6554Y-4.7056
X3.6558Y-3.0488
X3.657Y-3.1109
X3.6614Y-5.1142
X3.6632Y-3.2274
X3.6633Y-3.6986
X3.7186Y-3.3223
X3.7188Y-6.0057
X3.7206Y-6.0612
X3.7233Y-3.0077
X3.7292Y-3.6287
X3.7292Y-3.5227
X3.7343Y-3.8281
X3.7358Y-4.4059
X3.7378Y-3.7043
X3.7387Y-2.9429
X3.7394Y-4.3278
X3.7519Y-6.1578
X3.752Y-5.2953
X3.752Y-3.8999
X3.7717Y-4.8937
X3.7756Y-4.8031
X3.7913Y-2.4055
X3.811Y-5.3307
X3.8139Y-2.9333
X3.815Y-5.1299
X3.8151Y-4.4264
X3.8185Y-5.9667
X3.823Y-3.6064
X3.8301Y-3.9158
X3.8307Y-5.1811
X3.8394Y-3.7017
X3.8425Y-4.9528
X3.8458Y-6.1962
X3.847Y-3.8255
X3.8487Y-5.4804
X3.85Y-4.3046
X3.851Y-3.3417
X3.8557Y-3.0555
X3.8578Y-6.0751
X3.86Y-3.5175
X3.8701Y-5.1339
X3.8819Y-4.8031
X3.8819Y-5.3701
X3.9124Y-3.9373
X3.9147Y-3.6135
X3.9156Y-3.1233
X3.9159Y-5.5847
X3.9206Y-5.4932
X3.9225Y-4.3272
X3.9227Y-3.5047
X3.9261Y-6.0007
X3.934Y-3.3497
X3.936Y-6.1046
X3.9409Y-5.3976
X3.9412Y-2.9352
X3.9477Y-4.4224
X3.9525Y-3.0452
X3.9534Y-3.7368
X3.9541Y-6.204
X3.9554Y-3.8339
X3.9961Y-2.3543
X3.9961Y-2.3858
X3.9961Y-2.4213
X3.9961Y-2.4606
X3.9961Y-2.4961
X3.9961Y-2.5315
X3.9961Y-2.5945
X3.9961Y-2.6339
X3.9961Y-2.6732
X3.9961Y-2.7165
X3.9961Y-5.3583
X3.9961Y-5.3937
X3.9961Y-5.4291
X3.9961Y-5.4685
X3.9961Y-5.5
X3.9961Y-5.5354
X3.9961Y-5.5748
X3.9961Y-5.6102
X3.9961Y-5.6457
X4.0Y-5.3228
X4.0099Y-3.1323
X4.0157Y-5.1654
X4.0186Y-4.6308
X4.0269Y-3.3464
X4.028Y-4.8977
X4.0354Y-6.1986
X4.0364Y-2.0468
X4.0381Y-3.7058
X4.0382Y-3.615
X4.0394Y-2.7402
X4.0397Y-3.92
X4.041Y-4.7943
X4.0445Y-4.9964
X4.0466Y-5.1107
X4.0467Y-4.3088
X4.0477Y-5.9776
X4.0501Y-3.0116
X4.0539Y-6.093
X4.0565Y-3.8399
X4.1093Y-5.0781
X4.1113Y-2.4215
X4.1122Y-6.0757
X4.125Y-4.6283
X4.1332Y-3.407
X4.1332Y-3.3363
X4.1342Y-3.8268
X4.136Y-4.3144
X4.1394Y-6.1843
X4.141Y-3.7132
X4.1411Y-4.9945
X4.1411Y-2.3378
X4.1552Y-2.0511
X4.1575Y-3.1496
X4.1654Y-2.815
X4.1772Y-5.6417
X4.1811Y-2.6732
X4.1969Y-2.9961
X4.1969Y-3.0433
X4.2008Y-2.5787
X4.2047Y-2.6457
X4.2126Y-2.7205
X4.2139Y-3.3358
X4.2165Y-6.0951
X4.2179Y-3.4997
X4.2205Y-2.815
X4.2283Y-2.3465
X4.229Y-5.0836
X4.2323Y-3.1457
X4.234Y-4.7209
X4.2389Y-6.1827
X4.2433Y-4.6246
X4.2442Y-3.4058
X4.2452Y-2.0309
X4.2455Y-5.0002
X4.2485Y-2.4367
X4.2598Y-4.2677
X4.2677Y-3.063
X4.2717Y-3.7835
X4.2992Y-3.752
X4.3066Y-6.1906
X4.3069Y-3.5081
X4.3077Y-3.6455
X4.3105Y-2.6527
X4.311Y-4.311
X4.3135Y-3.3327
X4.3146Y-5.0039
X4.3169Y-2.5365
X4.3213Y-2.0705
X4.3227Y-3.9349
X4.3253Y-3.2295
X4.3294Y-5.0957
X4.3295Y-6.0675
X4.3307Y-2.3071
X4.3307Y-3.7244
X4.3386Y-3.8465
X4.3393Y-4.9177
X4.3421Y-3.4145
X4.3477Y-4.7809
X4.3493Y-4.5941
X4.3523Y-4.692
X4.374Y-3.8268
X4.375Y-2.8463
X4.3898Y-3.7874
X4.3937Y-4.3071
X4.404Y-4.6113
X4.405Y-5.9938
X4.4093Y-5.0928
X4.4094Y-2.8228
X4.4158Y-4.7947
X4.4169Y-5.1815
X4.4187Y-2.071
X4.4213Y-5.3346
X4.4213Y-5.3701
X4.4213Y-5.4055
X4.4213Y-5.4449
X4.4213Y-5.4764
X4.4213Y-5.5118
X4.4213Y-5.5512
X4.4213Y-5.5866
X4.4213Y-5.622
X4.4224Y-6.1002
X4.4269Y-6.1605
X4.4288Y-3.6385
X4.4331Y-2.3071
X4.4379Y-5.0069
X4.4405Y-4.7176
X4.4409Y-4.2677
X4.4433Y-4.9114
X4.4435Y-2.7175
X4.4528Y-2.811
X4.4528Y-2.8937
X4.4724Y-3.5472
X4.4882Y-3.7008
X4.4882Y-5.5354
X4.5023Y-5.6996
X4.5029Y-2.0426
X4.5048Y-3.2115
X4.5118Y-3.5866
X4.5197Y-4.0827
X4.5236Y-5.5669
X4.5241Y-3.32
X4.5243Y-3.4342
X4.5248Y-6.1896
X4.5315Y-4.5197
X4.5315Y-4.626
X4.5354Y-2.3071
X4.5365Y-6.0064
X4.542Y-6.0815
X4.5591Y-4.5197
X4.5591Y-4.626
X4.5787Y-3.9173
X4.5906Y-4.2372
X4.5995Y-2.0588
X4.6042Y-4.3798
X4.6102Y-4.3425
X4.6104Y-5.9878
X4.6111Y-3.8339
X4.6128Y-4.5162
X4.626Y-3.2362
X4.6276Y-5.2048
X4.6299Y-3.1299
X4.6301Y-6.0599
X4.6348Y-6.1646
X4.6352Y-5.5665
X4.6378Y-3.6102
X4.6393Y-5.684
X4.6535Y-3.1181
X4.6575Y-3.2362
X4.6614Y-3.6457
X4.6693Y-4.4409
X4.6772Y-3.5827
X4.686Y-4.5266
X4.686Y-4.627
X4.7037Y-3.3514
X4.7057Y-2.7146
X4.7064Y-5.9667
X4.7087Y-4.1654
X4.71Y-6.1801
X4.7116Y-4.5246
X4.7116Y-4.623
X4.7185Y-5.2946
X4.7205Y-3.6378
X4.7237Y-5.5863
X4.7244Y-3.5866
X4.7244Y-4.2323
X4.7256Y-6.0625
X4.7271Y-5.6799
X4.7283Y-3.4055
X4.7293Y-3.5226
X4.7359Y-2.0592
X4.7403Y-3.8178
X4.7431Y-2.8294
X4.7638Y-3.689
X4.7756Y-3.2323
X4.7795Y-3.122
X4.7961Y-6.0655
X4.8036Y-3.0984
X4.8073Y-5.6944
X4.8087Y-3.8988
X4.8089Y-4.9231
X4.813Y-6.16
X4.815Y-3.2362
X4.8189Y-5.2823
X4.819Y-4.788
X4.8197Y-2.0273
X4.8239Y-6.0076
X4.8258Y-2.8118
X4.826Y-2.7477
X4.8279Y-4.6034
X4.8281Y-4.6893
X4.8346Y-4.1693
X4.8346Y-4.248
X4.8395Y-4.5247
X4.8399Y-5.3729
X4.8961Y-3.9189
X4.8976Y-5.3763
X4.8981Y-5.9689
X4.9006Y-4.6158
X4.9041Y-3.0407
X4.9041Y-5.5759
X4.9064Y-3.1357
X4.9097Y-5.2941
X4.9191Y-4.7978
X4.9199Y-2.8105
X4.9214Y-3.6193
X4.9226Y-3.2223
X4.9242Y-4.5301
X4.9254Y-4.4232
X4.9275Y-3.4235
X4.9277Y-4.8934
X4.9286Y-3.8247
X4.9305Y-4.0179
X4.933Y-2.7324
X4.9342Y-3.7169
X4.9351Y-6.1626
X4.9361Y-3.5321
X4.9364Y-2.0666
X4.939Y-6.1062
X4.9404Y-5.0063
X4.9404Y-4.6926
X4.9921Y-2.311
X4.9961Y-2.0289
X4.9963Y-4.6816
X4.9971Y-3.7978
X4.9999Y-3.6075
X5.0041Y-3.1384
X5.0042Y-4.3166
X5.0056Y-3.2382
X5.0062Y-4.4303
X5.0085Y-5.0137
X5.0096Y-3.8949
X5.0109Y-3.0549
X5.0126Y-3.7028
X5.0163Y-4.8251
X5.0179Y-6.065
X5.02Y-4.8893
X5.0207Y-3.4066
X5.0231Y-3.5166
X5.0258Y-4.5821
X5.0261Y-5.9811
X5.0265Y-4.4836
X5.0304Y-5.2825
X5.0305Y-4.1329
X5.0306Y-2.7169
X5.0319Y-4.1989
X5.035Y-4.0342
X5.0358Y-6.1691
X5.0748Y-2.3071
X5.0911Y-3.7266
X5.0947Y-3.4242
X5.0949Y-4.6216
X5.0953Y-4.9126
X5.1012Y-6.1916
X5.1017Y-3.0227
X5.1027Y-4.4846
X5.1126Y-3.9202
X5.1126Y-3.1462
X5.1136Y-4.2312
X5.1163Y-4.0117
X5.1168Y-4.0923
X5.1176Y-4.7919
X5.1194Y-3.8176
X5.1201Y-6.0865
X5.121Y-4.4081
X5.1236Y-3.6361
X5.1278Y-4.9852
X5.1291Y-3.516
X5.1343Y-2.0628
X5.1344Y-4.2982
X5.1367Y-4.7197
X5.1382Y-3.2338
X5.1385Y-5.9616
X5.1417Y-2.5118
X5.1811Y-2.311
X5.1893Y-6.0045
X5.1924Y-6.0894
X5.1954Y-4.6246
X5.1975Y-4.1997
X5.2034Y-3.6962
X5.2037Y-3.4068
X5.2071Y-6.1695
X5.2074Y-3.1397
X5.2102Y-4.7179
X5.2114Y-4.7812
X5.2116Y-4.4217
X5.2187Y-5.0084
X5.2203Y-3.928
X5.221Y-4.5271
X5.2213Y-4.3071
X5.2224Y-3.6226
X5.2227Y-4.1315
X5.2233Y-3.8022
X5.2242Y-3.5465
X5.2249Y-5.3113
X5.2264Y-4.8845
X5.2329Y-4.0397
X5.2332Y-3.0163
X5.2379Y-2.0322
X5.2756Y-2.315
X5.2892Y-4.7016
X5.3024Y-5.9736
X5.3055Y-6.0751
X5.3071Y-5.0179
X5.3092Y-6.2004
X5.3093Y-4.0018
X5.3094Y-4.6044
X5.3097Y-3.5047
X5.311Y-4.1294
X5.3125Y-4.2994
X5.3127Y-3.9
X5.3138Y-2.0285
X5.3164Y-4.906
X5.3165Y-4.2073
X5.3166Y-4.3902
X5.3193Y-3.8155
X5.3214Y-3.0522
X5.3214Y-4.81
X5.3261Y-3.4368
X5.3283Y-3.6226
X5.3285Y-3.7359
X5.3365Y-4.4973
X5.3465Y-2.4882
X5.3945Y-3.6215
X5.3977Y-3.9301
X5.399Y-6.1963
X5.3998Y-4.3264
X5.4006Y-4.9223
X5.4008Y-3.7993
X5.4013Y-2.0471
X5.4088Y-4.7208
X5.4089Y-4.595
X5.4095Y-4.1138
X5.4103Y-4.4839
X5.4104Y-4.9885
X5.4106Y-3.5462
X5.4123Y-4.0133
X5.415Y-5.9705
X5.4195Y-3.7211
X5.4205Y-6.0704
X5.4293Y-4.189
X5.431Y-4.8044
X5.4313Y-3.3376
X5.433Y-3.4311
X5.4331Y-2.3504
X5.4347Y-4.4062
X5.4843Y-2.3504
X5.4843Y-2.4252
X5.4843Y-2.4606
X5.485Y-4.8246
X5.4858Y-3.2506
X5.4871Y-4.614
X5.4875Y-4.5059
X5.4877Y-4.693
X5.4881Y-5.983
X5.4888Y-4.2231
X5.4889Y-3.7416
X5.49Y-3.9229
X5.4934Y-5.1122
X5.4951Y-5.0138
X5.4961Y-2.3858
X5.4982Y-3.4139
X5.5012Y-4.8814
X5.5074Y-4.3273
X5.5079Y-2.3268
X5.5094Y-4.3876
X5.5148Y-6.1804
X5.5156Y-3.518
X5.5174Y-6.1065
X5.5231Y-3.6118
X5.5275Y-3.8296
X5.5287Y-4.1195
X5.5293Y-3.333
X5.5297Y-2.0689
X5.5333Y-4.0241
X5.5834Y-4.4099
X5.5836Y-2.4538
X5.5853Y-4.3216
X5.5854Y-3.4135
X5.5856Y-4.6806
X5.5858Y-4.6261
X5.5874Y-3.926
X5.5875Y-2.5241
X5.5893Y-3.5289
X5.5895Y-2.1693
X5.5949Y-3.1332
X5.6031Y-3.8156
X5.6036Y-4.1075
X5.611Y-3.3083
X5.611Y-4.1928
X5.6117Y-3.6327
X5.6133Y-3.7223
X5.6157Y-5.7676
X5.6166Y-5.1855
X5.6169Y-6.1692
X5.6233Y-2.0581
X5.6243Y-4.7959
X5.6258Y-3.993
X5.6261Y-4.8835
X5.6286Y-4.5002
X5.6288Y-6.0671
X5.6299Y-2.6403
X5.6313Y-5.8967
X5.6822Y-2.1618
X5.6826Y-3.4368
X5.6847Y-2.6621
X5.6863Y-5.6857
X5.6873Y-5.1882
X5.6879Y-5.5713
X5.6882Y-5.3155
X5.6891Y-2.7161
X5.6909Y-3.9343
X5.693Y-4.1947
X5.6931Y-4.1348
X5.6959Y-3.5178
X5.6988Y-2.9466
X5.7028Y-4.9203
X5.7035Y-2.4338
X5.7067Y-4.3908
X5.7111Y-2.0719
X5.7113Y-4.7232
X5.7116Y-2.5486
X5.7136Y-3.0214
X5.7144Y-4.6192
X5.7147Y-4.3107
X5.716Y-3.7098
X5.7161Y-4.8247
X5.7176Y-2.8309
X5.72Y-6.2022
X5.7234Y-3.8189
X5.7234Y-4.5229
X5.7237Y-5.4136
X5.7275Y-5.4686
X5.7276Y-4.0034
X5.7283Y-3.6005
X5.7302Y-5.788
X5.7798Y-5.4976
X5.7815Y-2.1595
X5.782Y-4.9059
X5.7823Y-2.0315
X5.7849Y-5.612
X5.7864Y-3.9229
X5.7869Y-5.4019
X5.7871Y-2.4389
X5.7873Y-4.6956
X5.7876Y-5.8702
X5.7882Y-4.1911
X5.7916Y-2.7386
X5.7926Y-3.3142
X5.7939Y-4.6137
X5.7946Y-5.7753
X5.7963Y-4.4884
X5.797Y-3.126
X5.7982Y-3.8338
X5.8001Y-4.8137
X5.8001Y-5.1801
X5.8014Y-3.994
X5.8036Y-5.6935
X5.8085Y-4.3093
X5.8091Y-4.4263
X5.8111Y-3.0315
X5.812Y-6.1673
X5.8138Y-3.7208
X5.8155Y-3.4205
X5.8165Y-2.5326
X5.8181Y-6.0843
X5.8184Y-5.2769
X5.8192Y-2.8157
X5.8234Y-4.1345
X5.8254Y-3.6021
X5.8255Y-3.5375
X5.8278Y-2.9406
X5.8279Y-2.6199
X5.8819Y-6.1911
X5.8829Y-4.0368
X5.8833Y-2.2513
X5.8847Y-4.4983
X5.8849Y-2.6176
X5.8851Y-3.2348
X5.8871Y-3.3046
X5.8914Y-3.9182
X5.8924Y-3.8288
X5.893Y-2.1451
X5.8942Y-5.8943
X5.897Y-5.3958
X5.8974Y-5.4826
X5.8977Y-6.0636
X5.8998Y-2.8296
X5.8998Y-5.7844
X5.9002Y-4.7294
X5.9004Y-5.1214
X5.9026Y-5.2155
X5.9032Y-2.5294
X5.9036Y-2.7239
X5.9059Y-3.436
X5.9091Y-3.0269
X5.9095Y-4.2994
X5.911Y-2.0402
X5.9141Y-5.9638
X5.9151Y-4.7887
X5.9159Y-3.7038
X5.917Y-2.3389
X5.9172Y-4.4091
X5.9175Y-2.4412
X5.9182Y-3.518
X5.9189Y-5.7058
X5.9195Y-4.2072
X5.9198Y-4.5928
X5.9209Y-5.2794
X5.9214Y-2.9105
X5.9219Y-4.9794
X5.9221Y-3.6275
X5.9221Y-4.1211
X5.9235Y-5.6066
X5.9256Y-3.1154
X5.9264Y-4.9007
X5.9777Y-6.0734
X5.9785Y-6.1767
X5.9808Y-2.0305
X5.9817Y-5.3706
X5.9836Y-2.2439
X5.9875Y-4.4314
X5.9917Y-3.3378
X5.9921Y-2.8505
X5.9955Y-3.6312
X5.9963Y-2.5465
X5.9972Y-2.3562
X5.9972Y-3.5298
X5.9976Y-2.7139
X5.9991Y-5.1072
X5.9999Y-4.9825
X6.0007Y-5.5738
X6.0009Y-2.4552
X6.0012Y-4.32
X6.0015Y-4.6158
X6.002Y-5.6944
X6.003Y-3.916
X6.0031Y-4.1129
X6.0067Y-2.1218
X6.0067Y-5.8672
X6.0067Y-5.1989
X6.0067Y-3.1293
X6.0068Y-5.4791
X6.0074Y-4.9228
X6.0081Y-5.7976
X6.0082Y-3.021
X6.0085Y-2.6336
X6.0098Y-3.2132
X6.0106Y-4.8162
X6.0113Y-3.7033
X6.0121Y-2.9325
X6.0125Y-4.6828
X6.0161Y-3.7952
X6.0163Y-3.9931
X6.0173Y-4.5171
X6.02Y-4.2138
X6.0212Y-5.3152
X6.022Y-3.4198
X6.0237Y-6.0024
X6.0751Y-5.4781
X6.0755Y-5.1825
X6.0773Y-3.9197
X6.0781Y-3.0187
X6.0793Y-3.5018
X6.0806Y-3.4482
X6.0822Y-2.1527
X6.0835Y-2.4541
X6.0842Y-2.6379
X6.085Y-5.6076
X6.0852Y-2.3419
X6.0854Y-6.0955
X6.0871Y-2.8563
X6.0872Y-4.1142
X6.0873Y-4.8943
X6.0879Y-3.6061
X6.0885Y-3.2447
X6.0891Y-4.193
X6.0897Y-5.4061
X6.0897Y-2.2604
X6.0915Y-5.2943
X6.0917Y-3.3457
X6.0927Y-3.1482
X6.0931Y-4.5055
X6.0953Y-4.404
X6.0963Y-2.7473
X6.0979Y-2.0487
X6.0997Y-3.8051
X6.1014Y-5.7741
X6.1027Y-4.2991
X6.1042Y-3.7007
X6.1073Y-2.9561
X6.1076Y-5.7083
X6.1088Y-6.1797
X6.11Y-2.543
X6.1106Y-4.7864
X6.111Y-5.12
X6.1132Y-5.8858
X6.1167Y-4.702
X6.119Y-4.0081
X6.119Y-5.9901
X6.1206Y-5.0076
X6.1207Y-4.5915
X6.1734Y-3.2409
X6.1737Y-2.6574
X6.1738Y-5.7077
X6.1745Y-4.527
X6.1782Y-5.3119
X6.1803Y-3.6254
X6.1808Y-4.0034
X6.1811Y-3.833
X6.1816Y-2.0375
X6.1828Y-4.6287
X6.1829Y-2.82
X6.1852Y-3.725
X6.1854Y-3.4089
X6.187Y-2.9534
X6.1917Y-2.4462
X6.1968Y-5.7716
X6.1987Y-5.0094
X6.1996Y-2.3274
X6.2005Y-3.1337
X6.2009Y-4.214
X6.203Y-4.912
X6.2033Y-2.159
X6.2047Y-4.1334
X6.2058Y-3.0245
X6.2064Y-5.9775
X6.2068Y-5.8893
X6.2088Y-6.0736
X6.2088Y-4.6825
X6.2092Y-6.1965
X6.2112Y-3.9421
X6.2124Y-4.4131
X6.215Y-5.5095
X6.2155Y-2.5376
X6.2165Y-5.2024
X6.217Y-5.1043
X6.2186Y-2.7335
X6.2186Y-3.3063
X6.2187Y-3.5174
X6.2196Y-2.2688
X6.2197Y-5.3919
X6.221Y-4.811
X6.2218Y-5.6021
X6.2222Y-4.3213
X6.2738Y-4.8839
X6.2739Y-3.8395
X6.275Y-2.3498
X6.2755Y-3.7247
X6.276Y-5.573
X6.2767Y-6.0589
X6.2769Y-5.075
X6.2771Y-2.7355
X6.2828Y-4.0089
X6.2853Y-2.6596
X6.2863Y-4.7187
X6.287Y-4.4977
X6.2873Y-6.0084
X6.2874Y-2.2648
X6.2883Y-3.1073
X6.2884Y-5.893
X6.2888Y-4.983
X6.2914Y-3.6357
X6.2933Y-5.4166
X6.295Y-3.5117
X6.2954Y-5.497
X6.2964Y-4.2894
X6.3014Y-3.2233
X6.3019Y-4.4327
X6.303Y-3.0085
X6.3036Y-4.8252
X6.3039Y-4.1341
X6.3055Y-2.0621
X6.306Y-4.6032
X6.3064Y-5.8046
X6.309Y-2.8194
X6.3094Y-5.6688
X6.3096Y-5.1848
X6.31Y-3.4488
X6.3107Y-3.3066
X6.3133Y-5.2798
X6.3134Y-2.4464
X6.3136Y-2.9508
X6.3146Y-4.2029
X6.3153Y-2.537
X6.3177Y-6.1769
X6.3187Y-3.9316
X6.3201Y-2.1586
X6.3702Y-2.1447
X6.3712Y-4.1143
X6.3729Y-3.7192
X6.3732Y-3.113
X6.3752Y-3.925
X6.3769Y-2.3669
X6.3784Y-4.6966
X6.3813Y-4.5196
X6.3825Y-5.9681
X6.3836Y-5.6793
X6.3841Y-4.0396
X6.385Y-4.2919
X6.3855Y-2.0292
X6.3859Y-5.2145
X6.3862Y-2.7242
X6.3869Y-6.0835
X6.3912Y-4.9169
X6.3913Y-4.9921
X6.3915Y-2.6226
X6.3924Y-5.8928
X6.3929Y-5.6065
X6.3939Y-3.4468
X6.3957Y-2.2543
X6.3977Y-4.8144
X6.3981Y-5.3725
X6.3994Y-4.3965
X6.3995Y-2.9128
X6.3996Y-3.0459
X6.3999Y-5.7869
X6.4Y-5.2793
X6.4019Y-3.6416
X6.403Y-4.5831
X6.4034Y-5.4739
X6.4044Y-3.8034
X6.4056Y-2.5418
X6.407Y-5.1063
X6.4072Y-6.2003
X6.4076Y-3.3157
X6.4077Y-3.2315
X6.4094Y-4.1938
X6.4114Y-2.8282
X6.4142Y-3.5189
X6.4181Y-2.4307
X6.4705Y-3.4437
X6.4706Y-2.7191
X6.4725Y-5.5787
X6.4746Y-5.0998
X6.4756Y-4.1234
X6.477Y-3.7387
X6.4787Y-3.7946
X6.4804Y-4.433
X6.4819Y-3.023
X6.4823Y-4.23
X6.4829Y-5.8724
X6.483Y-2.0463
X6.4857Y-4.3127
X6.4862Y-2.1497
X6.4865Y-5.0096
X6.4877Y-2.5613
X6.4903Y-2.9546
X6.4927Y-4.0059
X6.4928Y-4.616
X6.4929Y-2.2376
X6.4932Y-3.6238
X6.494Y-5.3992
X6.494Y-5.2194
X6.494Y-3.3045
X6.4945Y-5.5046
X6.4955Y-4.691
X6.496Y-4.8184
X6.4983Y-2.3672
X6.4994Y-4.4847
X6.4994Y-6.1908
X6.5004Y-3.1528
X6.5009Y-3.901
X6.5027Y-5.3041
X6.5055Y-6.0661
X6.5059Y-5.9855
X6.5077Y-2.6299
X6.508Y-2.4655
X6.5081Y-2.8382
X6.5089Y-3.2491
X6.51Y-4.8773
X6.5144Y-3.501
X6.5146Y-5.7929
X6.5158Y-5.667
X6.5671Y-4.4219
X6.5677Y-4.2893
X6.5679Y-2.8303
X6.569Y-2.4197
X6.5701Y-2.1639
X6.5704Y-2.2663
X6.5717Y-3.6274
X6.5722Y-2.3254
X6.573Y-5.0902
X6.5732Y-3.2054
X6.5753Y-4.1163
X6.5755Y-2.5353
X6.5766Y-2.658
X6.5767Y-3.928
X6.5776Y-5.9871
X6.5779Y-4.6163
X6.5802Y-5.3767
X6.5821Y-3.5321
X6.5828Y-5.71
X6.5836Y-3.3096
X6.5856Y-4.4883
X6.5877Y-5.7753
X6.5878Y-5.2714
X6.5898Y-4.7963
X6.5919Y-2.9398
X6.5926Y-3.1444
X6.5932Y-4.0104
X6.5941Y-5.1966
X6.5942Y-2.0707
X6.5966Y-6.1835
X6.5977Y-3.8214
X6.5981Y-4.9214
X6.5984Y-4.7253
X6.6048Y-6.0836
X6.6055Y-3.7436
X6.606Y-4.9926
X6.6072Y-3.0256
X6.6103Y-4.2154
X6.6106Y-5.5678
X6.612Y-3.4188
X6.6136Y-5.4781
X6.6145Y-5.9041
X6.6159Y-2.7397
X6.6656Y-5.295
X6.6665Y-4.8814
X6.6666Y-5.8658
X6.6685Y-2.7519
X6.6686Y-6.1968
X6.6695Y-4.3885
X6.6699Y-5.9621
X6.67Y-2.1616
X6.6701Y-5.473
X6.6708Y-2.4576
X6.6714Y-5.7755
X6.6721Y-2.069
X6.6731Y-3.7311
X6.6746Y-4.5136
X6.6758Y-4.3123
X6.676Y-4.0363
X6.6783Y-2.3513
X6.6797Y-4.1022
X6.6801Y-2.8449
X6.6813Y-3.1151
X6.6817Y-3.3062
X6.6824Y-3.4012
X6.6848Y-3.2398
X6.689Y-2.9472
X6.6903Y-4.8264
X6.6947Y-2.627
X6.6948Y-4.9991
X6.6959Y-4.693
X6.6961Y-3.6341
X6.6964Y-6.074
X6.6965Y-5.1175
X6.6967Y-3.0262
X6.7013Y-5.6944
X6.7035Y-2.2378
X6.7057Y-2.5636
X6.7065Y-4.1972
X6.7081Y-4.6062
X6.7093Y-5.2084
X6.7098Y-3.5238
X6.71Y-5.5791
X6.7107Y-3.9246
X6.711Y-3.8404
X6.7131Y-5.4044
X6.7639Y-4.5856
X6.764Y-2.9227
X6.764Y-2.429
X6.7649Y-3.7074
X6.7653Y-5.1904
X6.769Y-5.2719
X6.7701Y-5.7941
X6.7713Y-5.8685
X6.7748Y-3.324
X6.775Y-4.9151
X6.7761Y-4.2118
X6.7763Y-4.2928
X6.7767Y-5.5963
X6.7781Y-6.1601
X6.7795Y-4.7789
X6.7798Y-3.6031
X6.7805Y-4.4152
X6.783Y-6.1066
X6.784Y-4.5288
X6.7845Y-3.0225
X6.7865Y-4.0018
X6.7877Y-3.8271
X6.794Y-2.8218
X6.7965Y-4.7152
X6.7989Y-5.4752
X6.7992Y-2.1542
X6.7999Y-2.7369
X6.8037Y-4.1288
X6.8053Y-3.5431
X6.8058Y-2.5565
X6.8067Y-5.6675
X6.8073Y-3.1271
X6.8081Y-2.0446
X6.811Y-3.4295
X6.8121Y-5.3702
X6.8127Y-3.9235
X6.8129Y-2.6607
X6.8632Y-4.823
X6.8652Y-5.5906
X6.8655Y-4.0244
X6.8684Y-4.0925
X6.8697Y-5.3898
X6.8715Y-5.2709
X6.8718Y-5.2155
X6.8741Y-2.9244
X6.8774Y-5.6708
X6.8775Y-4.7161
X6.8778Y-2.8471
X6.8797Y-4.417
X6.8803Y-5.5112
X6.8808Y-3.4113
X6.8809Y-2.0685
X6.8811Y-3.7384
X6.8824Y-6.2012
X6.8835Y-2.6138
X6.8854Y-3.8045
X6.8896Y-4.2148
X6.8908Y-3.6265
X6.8929Y-5.7931
X6.8944Y-4.5252
X6.8953Y-4.8817
X6.896Y-2.7407
X6.8962Y-2.5198
X6.8978Y-4.5943
X6.9021Y-3.5086
X6.9036Y-2.1639
X6.9045Y-2.4636
X6.9048Y-3.0447
X6.9107Y-4.3219
X6.9108Y-3.9171
X6.9653Y-5.787
X6.9687Y-2.8487
X6.9732Y-3.7402
X6.9766Y-2.4401
X6.9787Y-2.0481
X6.9796Y-4.7953
X6.98Y-4.2224
X6.9801Y-5.5098
X6.9805Y-5.3746
X6.9813Y-4.6849
X6.9832Y-3.3281
X6.9833Y-2.1412
X6.9836Y-5.1775
X6.9842Y-4.4998
X6.9844Y-4.9133
X6.9851Y-5.3098
X6.9852Y-2.7374
X6.9853Y-2.6395
X6.9866Y-4.0295
X6.9903Y-3.5234
X6.9906Y-3.0341
X6.9911Y-5.587
X6.9924Y-4.6102
X6.9927Y-6.1073
X6.994Y-5.6894
X6.9946Y-2.5598
X6.9977Y-6.1846
X7.0015Y-3.6342
X7.0026Y-5.8729
X7.0033Y-3.1086
X7.0034Y-3.9102
X7.0042Y-3.8035
X7.0051Y-2.9289
X7.0058Y-3.4181
X7.0065Y-4.4147
X7.0066Y-4.2922
X7.0068Y-4.1196
X7.0594Y-4.3967
X7.0597Y-4.8182
X7.0598Y-3.6169
X7.0603Y-2.5409
X7.0621Y-2.7475
X7.0625Y-5.6816
X7.0627Y-5.7891
X7.0641Y-5.2842
X7.0643Y-5.8987
X7.0652Y-4.3209
X7.0664Y-2.4224
X7.0687Y-4.5271
X7.0692Y-3.0468
X7.0694Y-5.6133
X7.0697Y-4.8979
X7.0722Y-2.8267
X7.0725Y-2.9105
X7.0726Y-5.5053
X7.0746Y-2.165
X7.075Y-5.107
X7.0754Y-3.9945
X7.0771Y-5.3835
X7.0772Y-4.9874
X7.0811Y-4.2344
X7.0818Y-4.1174
X7.0819Y-4.5977
X7.0834Y-5.1786
X7.0861Y-2.3322
X7.0866Y-3.3444
X7.0878Y-3.1288
X7.0881Y-6.1034
X7.0891Y-4.6825
X7.0898Y-2.2468
X7.0935Y-3.2437
X7.0947Y-2.0512
X7.0965Y-3.4233
X7.0965Y-3.9381
X7.1Y-6.1637
X7.104Y-3.713
X7.104Y-5.9617
X7.1045Y-3.8323
X7.1054Y-2.641
X7.1073Y-3.5112
X7.1593Y-3.7416
X7.1594Y-5.1021
X7.1692Y-3.6294
X7.1699Y-4.6158
X7.1709Y-3.0273
X7.1711Y-5.1831
X7.1743Y-4.9039
X7.1743Y-4.4305
X7.1752Y-4.3348
X7.1761Y-5.972
X7.1764Y-5.0024
X7.1774Y-4.0385
X7.1803Y-4.2117
X7.1805Y-3.897
X7.1826Y-3.2254
X7.183Y-2.3209
X7.183Y-6.1029
X7.1835Y-5.507
X7.1852Y-3.5172
X7.1855Y-5.8873
X7.1863Y-4.137
X7.1868Y-2.8326
X7.1869Y-2.1666
X7.1877Y-3.3385
X7.1892Y-2.7148
X7.1898Y-4.5117
X7.1918Y-5.3957
X7.1919Y-3.433
X7.1935Y-3.804
X7.1972Y-2.9558
X7.1977Y-2.2392
X7.1981Y-4.8211
X7.1985Y-5.3006
X7.2029Y-4.7234
X7.2049Y-3.1479
X7.2584Y-3.0118
X7.261Y-2.355
X7.2623Y-4.3124
X7.2636Y-3.8958
X7.2648Y-4.4336
X7.2652Y-4.0905
X7.2659Y-2.2348
X7.2704Y-3.2477
X7.2734Y-5.4692
X7.2743Y-3.413
X7.2744Y-3.322
X7.2762Y-5.8783
X7.2762Y-4.0026
X7.2767Y-3.6163
X7.2767Y-2.8323
X7.2772Y-5.9903
X7.2772Y-4.7173
X7.2795Y-4.221
X7.2805Y-4.6154
X7.2809Y-3.7203
X7.2821Y-4.5094
X7.2863Y-3.818
X7.288Y-4.9764
X7.2895Y-4.8235
X7.2911Y-4.9095
X7.2924Y-2.9531
X7.2943Y-2.7479
X7.2944Y-5.2864
X7.2983Y-3.5032
X7.2996Y-5.3749
X7.3011Y-5.1733
X7.3015Y-5.1018
X7.305Y-3.1114
X7.3588Y-4.0028
X7.3595Y-4.2224
X7.361Y-3.5329
X7.363Y-4.583
X7.3656Y-5.0232
X7.3676Y-5.8658
X7.369Y-3.4444
X7.3727Y-4.4908
X7.3734Y-4.095
X7.3734Y-4.6842
X7.3735Y-2.8372
X7.3748Y-3.3335
X7.3749Y-5.3893
X7.3766Y-2.9558
X7.3773Y-4.7985
X7.3774Y-3.9388
X7.3785Y-2.7171
X7.3786Y-3.8311
X7.3803Y-4.3152
X7.3835Y-5.1231
X7.3839Y-4.4065
X7.384Y-5.3135
X7.3843Y-5.1739
X7.3853Y-3.2463
X7.3855Y-5.4944
X7.3858Y-3.0279
X7.3899Y-2.3649
X7.3935Y-3.7349
X7.3944Y-3.6012
X7.3952Y-3.1192
X7.4Y-4.8952
X7.453Y-3.2236
X7.4572Y-5.2119
X7.4576Y-2.5543
X7.4617Y-3.4382
X7.4622Y-4.132
X7.4633Y-3.3039
X7.4645Y-4.2152
X7.4655Y-4.591
X7.4667Y-5.599
X7.4701Y-4.4247
X7.4703Y-3.9311
X7.4715Y-4.7893
X7.4736Y-4.9766
X7.4736Y-2.4385
X7.4744Y-5.1005
X7.4761Y-5.3745
X7.4795Y-4.4898
X7.4797Y-3.8099
X7.4816Y-5.5032
X7.4825Y-2.6251
X7.484Y-5.6863
X7.4856Y-2.9269
X7.4871Y-5.8026
X7.4878Y-5.3118
X7.4886Y-3.9965
X7.4892Y-3.6342
X7.4896Y-2.8324
X7.4909Y-3.133
X7.4918Y-2.7391
X7.4942Y-3.724
X7.4961Y-3.5028
X7.4977Y-4.8943
X7.4984Y-4.6915
X7.499Y-3.0547
X7.5007Y-4.335
X7.5534Y-5.6024
X7.5546Y-4.2107
X7.5564Y-4.1256
X7.5567Y-2.7347
X7.5567Y-5.6818
X7.5571Y-5.2796
X7.5583Y-5.2052
X7.5593Y-3.0194
X7.5617Y-4.5133
X7.5641Y-4.8111
X7.5677Y-3.3324
X7.5683Y-3.4268
X7.5703Y-2.9364
X7.5728Y-4.9931
X7.5729Y-2.8131
X7.5749Y-2.6514
X7.5788Y-4.6902
X7.5804Y-3.8992
X7.5815Y-4.0382
X7.5824Y-3.153
X7.5841Y-5.1019
X7.5841Y-5.4058
X7.5849Y-3.5281
X7.585Y-4.8904
X7.5867Y-5.4712
X7.589Y-4.5902
X7.5902Y-3.6271
X7.5915Y-4.308
X7.5925Y-3.7322
X7.5951Y-4.4019
X7.5962Y-3.8061
X7.598Y-3.2511
X7.6502Y-5.405
X7.6601Y-3.7099
X7.6608Y-4.5067
X7.6636Y-4.6915
X7.6659Y-3.6157
X7.666Y-4.021
X7.6661Y-4.8142
X7.6752Y-5.1989
X7.6753Y-3.0335
X7.6756Y-4.3143
X7.6758Y-5.0969
X7.6787Y-3.2062
X7.6802Y-3.9249
X7.6806Y-5.3188
X7.6832Y-4.6118
X7.685Y-5.516
X7.6877Y-2.7182
X7.689Y-2.8181
X7.6894Y-3.1377
X7.6911Y-4.4337
X7.6912Y-2.9563
X7.6926Y-4.2168
X7.694Y-3.8263
X7.6964Y-4.1182
X7.7498Y-2.9416
X7.7498Y-3.8234
X7.7507Y-3.7306
X7.7523Y-4.2941
X7.7595Y-4.7148
X7.761Y-4.7881
X7.7627Y-4.1134
X7.7661Y-4.012
X7.7669Y-5.2961
X7.7673Y-3.1239
X7.7759Y-3.3261
X7.777Y-4.3968
X7.7796Y-4.4987
X7.7807Y-5.173
X7.7834Y-3.9326
X7.7866Y-3.2438
X7.7911Y-4.5921
X7.7912Y-5.096
X7.7924Y-3.0242
X7.7936Y-3.6328
X7.7941Y-4.1924
X7.8516Y-3.8942
X7.8535Y-5.0041
X7.854Y-4.5191
X7.854Y-4.4103
X7.8552Y-3.4133
X7.8577Y-3.2095
X7.8582Y-4.8809
X7.8614Y-4.8017
X7.8636Y-3.8379
X7.8703Y-3.3372
X7.8724Y-4.3167
X7.8762Y-3.7352
X7.8775Y-3.1404
X7.8775Y-3.6187
X7.8782Y-4.0986
X7.8807Y-4.6104
X7.8831Y-3.5151
X7.8834Y-5.0965
X7.8854Y-4.2239
X7.8878Y-4.0036
X7.8944Y-4.7117
X7.9514Y-3.8382
X7.9527Y-3.9986
X7.9559Y-3.4182
X7.9579Y-4.4099
X7.9586Y-4.486
X7.9598Y-4.1085
X7.9656Y-3.9239
X7.9656Y-3.6083
X7.9669Y-4.3102
X7.9709Y-3.5214
X7.9742Y-4.8142
X7.9743Y-4.1885
X7.9751Y-4.6233
X7.9764Y-4.699
X7.9892Y-3.7178
T3
X3.248Y-4.626
X3.252Y-4.5709
X3.2795Y-4.5984
X3.3071Y-4.5748
X3.315Y-4.6299
X3.5197Y-4.8898
X3.5512Y-4.8504
X3.5551Y-4.8898
X3.5551Y-4.9291
X3.5945Y-4.8898
X4.7008Y-4.2087
T5
X1.6227Y-3.6372
X1.6266Y-4.7487
X1.6934Y-3.5665
X1.6973Y-4.8194
X1.7641Y-3.4958
X1.768Y-4.8901
X1.8348Y-3.425
X1.8387Y-4.9608
X1.9055Y-3.3543
X1.9094Y-5.0315
X3.5827Y-2.1441
X3.5827Y-2.2441
X3.5827Y-5.8055
X3.5827Y-5.9055
X3.6827Y-2.1441
X3.6827Y-2.2441
X3.6827Y-5.8055
X3.6827Y-5.9055
X3.7827Y-2.1441
X3.7827Y-2.2441
X3.7827Y-5.8055
X3.7827Y-5.9055
X3.8827Y-2.1441
X3.8827Y-2.2441
X3.8827Y-5.8055
X3.8827Y-5.9055
X3.9827Y-2.1441
X3.9827Y-2.2441
X3.9827Y-5.8055
X3.9827Y-5.9055
X4.0827Y-2.1441
X4.0827Y-2.2441
X4.0827Y-5.8055
X4.0827Y-5.9055
X4.1827Y-2.1441
X4.1827Y-2.2441
X4.1827Y-5.8055
X4.1827Y-5.9055
X4.2827Y-2.1441
X4.2827Y-2.2441
X4.2827Y-5.8055
X4.2827Y-5.9055
X4.3827Y-2.1441
X4.3827Y-2.2441
X4.3827Y-5.8055
X4.3827Y-5.9055
X4.4827Y-2.1441
X4.4827Y-2.2441
X4.4827Y-5.8055
X4.4827Y-5.9055
X4.5827Y-2.1441
X4.5827Y-2.2441
X4.5827Y-5.8055
X4.5827Y-5.9055
X4.6827Y-2.1441
X4.6827Y-2.2441
X4.6827Y-5.8055
X4.6827Y-5.9055
X4.7827Y-2.1441
X4.7827Y-2.2441
X4.7827Y-5.8055
X4.7827Y-5.9055
X4.8827Y-2.1441
X4.8827Y-2.2441
X4.8827Y-5.8055
X4.8827Y-5.9055
X4.9827Y-2.1441
X4.9827Y-2.2441
X4.9827Y-5.8055
X4.9827Y-5.9055
X5.0827Y-2.1441
X5.0827Y-2.2441
X5.0827Y-5.8055
X5.0827Y-5.9055
X5.1827Y-2.1441
X5.1827Y-2.2441
X5.1827Y-5.8055
X5.1827Y-5.9055
X5.2827Y-2.1441
X5.2827Y-2.2441
X5.2827Y-5.8055
X5.2827Y-5.9055
X5.3827Y-2.1441
X5.3827Y-2.2441
X5.3827Y-5.8055
X5.3827Y-5.9055
X5.4827Y-2.1441
X5.4827Y-2.2441
X5.4827Y-5.8055
X5.4827Y-5.9055
T6
X4.4783Y-2.5945
X4.5925Y-5.4685
X4.6161Y-2.5945
X4.7224Y-2.9213
X4.7303Y-5.4685
X4.7402Y-5.1378
X4.7539Y-2.5945
X4.8602Y-2.9213
X4.8681Y-5.4685
X4.878Y-5.1378
X4.8917Y-2.5945
X4.998Y-2.9213
X5.0059Y-5.4685
X5.0157Y-5.1378
X5.0295Y-2.5945
X5.1358Y-2.9213
X5.1437Y-5.4685
X5.1535Y-5.1378
X5.1673Y-2.5945
X5.2736Y-2.9213
X5.2815Y-5.4685
X5.2913Y-5.1378
X5.4114Y-2.9213
X5.4291Y-5.1378
T7
X1.7717Y-2.5591
X1.7717Y-5.7087
X7.2835Y-2.5591
X7.2835Y-5.7087
T8
X2.1024Y-4.4567
X2.3858Y-4.4567
T4
G00X2.1181Y-3.9208
M15
G01X2.1181Y-4.0477
M16
G05
G00X2.315Y-3.9208
M15
G01X2.315Y-4.0477
M16
G05
T0
M30
