M48
; DRILL file {KiCad (6.0.9)} date Sun Feb 26 12:01:52 2023
; FORMAT={-:-/ absolute / inch / decimal}
; #@! TF.CreationDate,2023-02-26T12:01:52+02:00
; #@! TF.GenerationSoftware,Kicad,Pcbnew,(6.0.9)
; #@! TF.FileFunction,Plated,1,2,PTH
FMAT,2
INCH
; #@! TA.AperFunction,Plated,PTH,ComponentDrill
T1C0.0118
; #@! TA.AperFunction,Plated,PTH,ViaDrill
T2C0.0157
; #@! TA.AperFunction,Plated,PTH,ViaDrill
T3C0.0197
; #@! TA.AperFunction,Plated,PTH,ComponentDrill
T4C0.0236
; #@! TA.AperFunction,Plated,PTH,ComponentDrill
T5C0.0315
; #@! TA.AperFunction,Plated,PTH,ComponentDrill
T6C0.0394
; #@! TA.AperFunction,Plated,PTH,ComponentDrill
T7C0.0472
; #@! TA.AperFunction,Plated,PTH,ComponentDrill
T8C0.1024
; #@! TA.AperFunction,Plated,PTH,ComponentDrill
T9C0.1693
%
G90
G05
T1
X3.8179Y-5.0039
X3.8179Y-5.0433
X3.8179Y-5.0827
X3.8691Y-5.0039
X3.8691Y-5.0433
X3.8691Y-5.0827
X4.1683Y-2.8699
X4.1683Y-2.9093
X4.1683Y-2.9486
X4.2195Y-2.8699
X4.2195Y-2.9093
X4.2195Y-2.9486
T2
X1.0797Y-3.5238
X1.0797Y-3.6223
X1.0797Y-3.7207
X1.0797Y-3.8191
X1.0797Y-3.9175
X1.0797Y-4.016
X1.0797Y-4.1144
X1.0797Y-4.2128
X1.0797Y-4.3112
X1.0797Y-4.4097
X1.0797Y-4.5081
X1.0797Y-4.6065
X1.0797Y-4.7049
X1.0797Y-4.8034
X1.1781Y-3.1301
X1.1781Y-3.2286
X1.1781Y-3.327
X1.1781Y-3.4254
X1.1781Y-3.5238
X1.1781Y-3.6223
X1.1781Y-3.7207
X1.1781Y-3.8191
X1.1781Y-3.9175
X1.1781Y-4.016
X1.1781Y-4.1144
X1.1781Y-4.2128
X1.1781Y-4.3112
X1.1781Y-4.4097
X1.1781Y-4.5081
X1.1781Y-4.6065
X1.1781Y-4.7049
X1.1781Y-4.8034
X1.1781Y-4.9018
X1.1781Y-5.0002
X1.1781Y-5.0986
X1.2766Y-2.9333
X1.2766Y-3.0317
X1.2766Y-3.1301
X1.2766Y-3.2286
X1.2766Y-3.5238
X1.2766Y-3.6223
X1.2766Y-3.7207
X1.2766Y-3.8191
X1.2766Y-3.9175
X1.2766Y-4.016
X1.2766Y-4.1144
X1.2766Y-4.2128
X1.2766Y-4.3112
X1.2766Y-4.4097
X1.2766Y-4.5081
X1.2766Y-4.6065
X1.2766Y-4.7049
X1.2766Y-4.8034
X1.2766Y-5.0986
X1.2766Y-5.1971
X1.2766Y-5.2955
X1.375Y-2.7364
X1.375Y-2.8349
X1.375Y-2.9333
X1.375Y-3.0317
X1.375Y-3.1301
X1.375Y-3.2286
X1.375Y-3.6223
X1.375Y-3.7207
X1.375Y-3.8191
X1.375Y-3.9175
X1.375Y-4.016
X1.375Y-4.1144
X1.375Y-4.2128
X1.375Y-4.3112
X1.375Y-4.4097
X1.375Y-4.5081
X1.375Y-4.6065
X1.375Y-4.7049
X1.375Y-4.8034
X1.375Y-5.0986
X1.375Y-5.1971
X1.375Y-5.2955
X1.375Y-5.3939
X1.375Y-5.4923
X1.4734Y-2.638
X1.4734Y-2.7364
X1.4734Y-2.8349
X1.4734Y-2.9333
X1.4734Y-3.0317
X1.4734Y-3.1301
X1.4734Y-3.2286
X1.4734Y-3.327
X1.4734Y-3.5238
X1.4734Y-3.6223
X1.4734Y-3.7207
X1.4734Y-3.8191
X1.4734Y-3.9175
X1.4734Y-4.016
X1.4734Y-4.1144
X1.4734Y-4.2128
X1.4734Y-4.3112
X1.4734Y-4.4097
X1.4734Y-4.5081
X1.4734Y-4.6065
X1.4734Y-4.7049
X1.4734Y-4.8034
X1.4734Y-4.9018
X1.4734Y-5.0002
X1.4734Y-5.0986
X1.4734Y-5.1971
X1.4734Y-5.2955
X1.4734Y-5.3939
X1.4734Y-5.4923
X1.4734Y-5.5908
X1.4734Y-5.6892
X1.5719Y-2.4412
X1.5719Y-2.5396
X1.5719Y-2.638
X1.5719Y-2.7364
X1.5719Y-2.8349
X1.5719Y-2.9333
X1.5719Y-3.0317
X1.5719Y-3.1301
X1.5719Y-3.2286
X1.5719Y-3.327
X1.5719Y-3.4254
X1.5719Y-3.5238
X1.5719Y-4.8034
X1.5719Y-4.9018
X1.5719Y-5.0002
X1.5719Y-5.0986
X1.5719Y-5.1971
X1.5719Y-5.2955
X1.5719Y-5.3939
X1.5719Y-5.4923
X1.5719Y-5.5908
X1.5719Y-5.6892
X1.5719Y-5.7876
X1.6703Y-2.3427
X1.6703Y-2.7364
X1.6703Y-2.8349
X1.6703Y-2.9333
X1.6703Y-3.0317
X1.6703Y-3.1301
X1.6703Y-3.4254
X1.6703Y-3.9175
X1.6703Y-4.016
X1.6703Y-4.1144
X1.6703Y-4.2128
X1.6703Y-4.3112
X1.6703Y-4.4097
X1.6703Y-4.5081
X1.6703Y-4.9018
X1.6703Y-5.0002
X1.6703Y-5.0986
X1.6703Y-5.1971
X1.6703Y-5.2955
X1.6703Y-5.3939
X1.6703Y-5.4923
X1.6703Y-5.886
X1.7687Y-2.2443
X1.7687Y-2.3427
X1.7687Y-2.7364
X1.7687Y-2.8349
X1.7687Y-2.9333
X1.7687Y-3.0317
X1.7687Y-3.4254
X1.7687Y-4.2128
X1.7687Y-4.6065
X1.7687Y-5.0002
X1.7687Y-5.0986
X1.7687Y-5.1971
X1.7687Y-5.2955
X1.7687Y-5.3939
X1.7687Y-5.4923
X1.7687Y-5.886
X1.7687Y-5.9845
X1.7992Y-3.6024
X1.8671Y-2.1459
X1.8671Y-2.2443
X1.8671Y-2.3427
X1.8671Y-2.7364
X1.8671Y-2.8349
X1.8671Y-2.9333
X1.8671Y-3.5238
X1.8671Y-3.7207
X1.8671Y-4.2128
X1.8671Y-4.7049
X1.8671Y-4.8034
X1.8671Y-5.0986
X1.8671Y-5.2955
X1.8671Y-5.3939
X1.8671Y-5.4923
X1.8671Y-5.886
X1.8671Y-5.9845
X1.8671Y-6.0829
X1.9656Y-2.0475
X1.9656Y-2.1459
X1.9656Y-2.2443
X1.9656Y-2.3427
X1.9656Y-2.4412
X1.9656Y-2.5396
X1.9656Y-2.638
X1.9656Y-2.7364
X1.9656Y-2.8349
X1.9656Y-3.2286
X1.9656Y-3.4254
X1.9656Y-3.5238
X1.9656Y-3.7207
X1.9656Y-4.016
X1.9656Y-4.1144
X1.9656Y-4.2128
X1.9656Y-4.3112
X1.9656Y-4.4097
X1.9656Y-4.8034
X1.9656Y-4.9018
X1.9656Y-5.0986
X1.9656Y-5.1971
X1.9656Y-5.3939
X1.9656Y-5.4923
X1.9656Y-5.5908
X1.9656Y-5.6892
X1.9656Y-5.7876
X1.9656Y-5.886
X1.9656Y-5.9845
X1.9656Y-6.0829
X1.9656Y-6.1813
X2.064Y-2.0475
X2.064Y-2.1459
X2.064Y-2.4412
X2.064Y-2.5396
X2.064Y-2.638
X2.064Y-2.7364
X2.064Y-3.1301
X2.064Y-3.327
X2.064Y-3.4254
X2.064Y-3.5238
X2.064Y-4.016
X2.064Y-4.1144
X2.064Y-4.2128
X2.064Y-4.5081
X2.064Y-4.8034
X2.064Y-4.9018
X2.064Y-5.1971
X2.064Y-5.2955
X2.064Y-5.4923
X2.064Y-5.5908
X2.064Y-5.6892
X2.064Y-5.7876
X2.064Y-5.886
X2.064Y-6.0829
X2.064Y-6.1813
X2.1624Y-2.0475
X2.1624Y-2.1459
X2.1624Y-2.4412
X2.1624Y-2.5396
X2.1624Y-2.638
X2.1624Y-3.0317
X2.1624Y-3.4254
X2.1624Y-3.5238
X2.1624Y-3.7207
X2.1624Y-4.016
X2.1624Y-4.1144
X2.1624Y-4.2128
X2.1624Y-4.5081
X2.1624Y-4.8034
X2.1624Y-4.9018
X2.1624Y-5.1971
X2.1624Y-5.2955
X2.1624Y-5.3939
X2.1624Y-5.5908
X2.1624Y-5.6892
X2.1624Y-5.7876
X2.1624Y-6.1813
X2.2608Y-2.0475
X2.2608Y-2.1459
X2.2608Y-2.4412
X2.2608Y-2.5396
X2.2608Y-2.8349
X2.2608Y-2.9333
X2.2608Y-3.0317
X2.2608Y-3.1301
X2.2608Y-3.327
X2.2608Y-3.4254
X2.2608Y-3.5238
X2.2608Y-4.016
X2.2608Y-4.1144
X2.2608Y-4.2128
X2.2608Y-4.3112
X2.2608Y-4.4097
X2.2608Y-4.5081
X2.2608Y-4.6065
X2.2608Y-4.7049
X2.2608Y-4.8034
X2.2608Y-4.9018
X2.2608Y-5.1971
X2.2608Y-5.2955
X2.2608Y-5.3939
X2.2608Y-5.4923
X2.2608Y-5.6892
X2.2608Y-5.7876
X2.2608Y-5.886
X2.2608Y-6.0829
X2.2608Y-6.1813
X2.3593Y-2.0475
X2.3593Y-2.1459
X2.3593Y-2.2443
X2.3593Y-2.3427
X2.3593Y-2.4412
X2.3593Y-2.7364
X2.3593Y-2.8349
X2.3593Y-2.9333
X2.3593Y-3.0317
X2.3593Y-3.1301
X2.3593Y-3.2286
X2.3593Y-3.327
X2.3593Y-3.4254
X2.3593Y-3.5238
X2.3593Y-4.1144
X2.3593Y-4.3112
X2.3593Y-4.4097
X2.3593Y-4.5081
X2.3593Y-4.6065
X2.3593Y-4.8034
X2.3593Y-4.9018
X2.3593Y-5.0002
X2.3593Y-5.0986
X2.3593Y-5.1971
X2.3593Y-5.2955
X2.3593Y-5.3939
X2.3593Y-5.4923
X2.3593Y-5.5908
X2.3593Y-5.6892
X2.3593Y-5.7876
X2.3593Y-5.886
X2.3593Y-5.9845
X2.3593Y-6.0829
X2.3593Y-6.1813
X2.4577Y-2.0475
X2.4577Y-2.1459
X2.4577Y-2.2443
X2.4577Y-2.3427
X2.4577Y-2.638
X2.4577Y-2.7364
X2.4577Y-2.8349
X2.4577Y-2.9333
X2.4577Y-3.0317
X2.4577Y-3.1301
X2.4577Y-3.2286
X2.4577Y-3.327
X2.4577Y-3.4254
X2.4577Y-3.5238
X2.4577Y-3.6223
X2.4577Y-4.2128
X2.4577Y-4.3112
X2.4577Y-4.4097
X2.4577Y-4.5081
X2.4577Y-4.6065
X2.4577Y-4.7049
X2.4577Y-4.8034
X2.4577Y-4.9018
X2.4577Y-5.0002
X2.4577Y-5.0986
X2.4577Y-5.1971
X2.4577Y-5.2955
X2.4577Y-5.3939
X2.4577Y-5.4923
X2.4577Y-5.5908
X2.4577Y-5.6892
X2.4577Y-5.7876
X2.4577Y-5.886
X2.4577Y-5.9845
X2.4577Y-6.0829
X2.4577Y-6.1813
X2.5561Y-2.0475
X2.5561Y-2.1459
X2.5561Y-2.2443
X2.5561Y-2.5396
X2.5561Y-2.638
X2.5561Y-2.7364
X2.5561Y-2.8349
X2.5561Y-2.9333
X2.5561Y-3.0317
X2.5561Y-3.1301
X2.5561Y-3.2286
X2.5561Y-3.327
X2.5561Y-3.4254
X2.5561Y-3.5238
X2.5561Y-3.7207
X2.5561Y-4.3112
X2.5561Y-4.4097
X2.5561Y-4.5081
X2.5561Y-4.6065
X2.5561Y-4.7049
X2.5561Y-4.8034
X2.5561Y-4.9018
X2.5561Y-5.0002
X2.5561Y-5.0986
X2.5561Y-5.1971
X2.5561Y-5.2955
X2.5561Y-5.3939
X2.5561Y-5.4923
X2.5561Y-5.5908
X2.5561Y-5.6892
X2.5561Y-5.7876
X2.5561Y-5.886
X2.5561Y-5.9845
X2.5561Y-6.0829
X2.5561Y-6.1813
X2.6063Y-3.6575
X2.6545Y-2.0475
X2.6545Y-2.1459
X2.6545Y-2.4412
X2.6545Y-2.5396
X2.6545Y-2.638
X2.6545Y-2.7364
X2.6545Y-2.8349
X2.6545Y-2.9333
X2.6545Y-3.0317
X2.6545Y-3.1301
X2.6545Y-3.2286
X2.6545Y-3.327
X2.6545Y-3.4254
X2.6545Y-3.5238
X2.6545Y-4.6065
X2.6545Y-4.7049
X2.6545Y-4.8034
X2.6545Y-4.9018
X2.6545Y-5.0002
X2.6545Y-5.0986
X2.6545Y-5.1971
X2.6545Y-5.2955
X2.6545Y-5.3939
X2.6545Y-5.4923
X2.6545Y-5.5908
X2.6545Y-5.6892
X2.6545Y-5.7876
X2.6545Y-5.886
X2.6545Y-5.9845
X2.6545Y-6.0829
X2.6545Y-6.1813
X2.685Y-3.5787
X2.753Y-2.0475
X2.753Y-2.3427
X2.753Y-2.4412
X2.753Y-2.5396
X2.753Y-2.638
X2.753Y-2.7364
X2.753Y-2.8349
X2.753Y-2.9333
X2.753Y-3.0317
X2.753Y-4.6065
X2.753Y-4.7049
X2.753Y-4.8034
X2.753Y-4.9018
X2.753Y-5.0002
X2.753Y-5.0986
X2.753Y-5.1971
X2.753Y-5.2955
X2.753Y-5.3939
X2.753Y-5.4923
X2.753Y-5.5908
X2.753Y-5.6892
X2.753Y-5.7876
X2.753Y-5.886
X2.753Y-5.9845
X2.753Y-6.0829
X2.753Y-6.1813
X2.7717Y-3.8504
X2.7717Y-3.9764
X2.7992Y-3.6496
X2.8514Y-2.2443
X2.8514Y-2.3427
X2.8514Y-2.4412
X2.8514Y-2.5396
X2.8514Y-2.638
X2.8514Y-2.7364
X2.8514Y-2.8349
X2.8514Y-2.9333
X2.8514Y-3.8191
X2.8514Y-4.5081
X2.8514Y-4.6065
X2.8514Y-4.7049
X2.8514Y-4.8034
X2.8514Y-4.9018
X2.8514Y-5.0002
X2.8514Y-5.0986
X2.8514Y-5.1971
X2.8514Y-5.2955
X2.8514Y-5.3939
X2.8514Y-5.4923
X2.8514Y-5.5908
X2.8514Y-5.6892
X2.8514Y-5.7876
X2.8514Y-5.886
X2.8514Y-5.9845
X2.8514Y-6.0829
X2.8514Y-6.1813
X2.8898Y-4.2953
X2.8898Y-4.3386
X2.8898Y-4.378
X2.8937Y-4.063
X2.8937Y-4.1063
X2.9173Y-4.0039
X2.937Y-4.063
X2.937Y-4.378
X2.9498Y-2.1459
X2.9498Y-2.2443
X2.9498Y-2.3427
X2.9498Y-2.4412
X2.9498Y-2.5396
X2.9498Y-2.638
X2.9498Y-2.7364
X2.9498Y-3.0317
X2.9498Y-3.1301
X2.9498Y-3.2286
X2.9498Y-3.327
X2.9498Y-3.4254
X2.9498Y-3.5238
X2.9498Y-3.6223
X2.9498Y-3.7207
X2.9498Y-3.8191
X2.9498Y-3.9175
X2.9498Y-4.5081
X2.9498Y-4.6065
X2.9498Y-4.7049
X2.9498Y-4.8034
X2.9498Y-4.9018
X2.9498Y-5.0002
X2.9498Y-5.0986
X2.9498Y-5.1971
X2.9498Y-5.2955
X2.9498Y-5.3939
X2.9498Y-5.4923
X2.9498Y-5.5908
X2.9498Y-5.6892
X2.9498Y-5.7876
X2.9498Y-5.886
X2.9498Y-5.9845
X2.9498Y-6.0829
X2.9498Y-6.1813
X2.9764Y-4.378
X2.9843Y-4.063
X3.0236Y-4.378
X3.0315Y-4.063
X3.0482Y-2.1459
X3.0482Y-2.2443
X3.0482Y-2.3427
X3.0482Y-2.4412
X3.0482Y-2.5396
X3.0482Y-2.638
X3.0482Y-2.9333
X3.0482Y-3.0317
X3.0482Y-3.1301
X3.0482Y-3.2286
X3.0482Y-3.327
X3.0482Y-3.4254
X3.0482Y-3.5238
X3.0482Y-3.6223
X3.0482Y-3.7207
X3.0482Y-3.8191
X3.0482Y-3.9175
X3.0482Y-4.5081
X3.0482Y-4.6065
X3.0482Y-4.7049
X3.0482Y-4.8034
X3.0482Y-4.9018
X3.0482Y-5.3939
X3.0482Y-5.4923
X3.0482Y-5.5908
X3.0482Y-5.6892
X3.0482Y-5.7876
X3.0482Y-5.886
X3.0482Y-5.9845
X3.0482Y-6.0829
X3.0482Y-6.1813
X3.063Y-4.378
X3.0748Y-4.063
X3.1024Y-4.378
X3.1181Y-4.063
X3.1417Y-4.378
X3.1467Y-2.1459
X3.1467Y-2.2443
X3.1467Y-2.3427
X3.1467Y-2.4412
X3.1467Y-2.5396
X3.1467Y-2.8349
X3.1467Y-2.9333
X3.1467Y-3.0317
X3.1467Y-3.1301
X3.1467Y-3.2286
X3.1467Y-3.327
X3.1467Y-3.4254
X3.1467Y-3.5238
X3.1467Y-3.6223
X3.1467Y-3.7207
X3.1467Y-3.8191
X3.1467Y-3.9175
X3.1467Y-4.5081
X3.1467Y-4.6065
X3.1467Y-4.7049
X3.1467Y-4.8034
X3.1467Y-5.4923
X3.1467Y-5.5908
X3.1467Y-5.6892
X3.1467Y-5.7876
X3.1467Y-5.886
X3.1467Y-5.9845
X3.1467Y-6.0829
X3.1467Y-6.1813
X3.1614Y-4.063
X3.1772Y-4.1063
X3.1772Y-4.3031
X3.1772Y-4.3425
X3.1772Y-4.378
X3.2205Y-4.752
X3.2451Y-2.1459
X3.2451Y-2.4412
X3.2451Y-2.7364
X3.2451Y-2.8349
X3.2451Y-2.9333
X3.2451Y-3.0317
X3.2451Y-3.1301
X3.2451Y-3.327
X3.2451Y-3.4254
X3.2451Y-3.5238
X3.2451Y-3.6223
X3.2451Y-3.7207
X3.2451Y-3.8191
X3.2451Y-3.9175
X3.2451Y-5.5908
X3.2451Y-5.6892
X3.2451Y-5.7876
X3.2451Y-5.886
X3.2451Y-6.0829
X3.2451Y-6.1813
X3.248Y-4.7165
X3.2835Y-4.685
X3.3277Y-4.8553
X3.3435Y-2.1459
X3.3435Y-2.638
X3.3435Y-2.7364
X3.3435Y-2.8349
X3.3435Y-2.9333
X3.3435Y-3.0317
X3.3435Y-3.4254
X3.3435Y-3.5238
X3.3435Y-3.6223
X3.3435Y-3.7207
X3.3435Y-3.8191
X3.3435Y-3.9175
X3.3435Y-5.7876
X3.3435Y-6.1813
X3.3553Y-4.8277
X3.3661Y-4.6024
X3.3927Y-4.7903
X3.3976Y-4.5709
X3.437Y-4.5433
X3.4419Y-2.1459
X3.4419Y-2.5396
X3.4419Y-2.638
X3.4419Y-2.7364
X3.4419Y-2.8349
X3.4419Y-2.9333
X3.4419Y-3.0317
X3.4419Y-3.1301
X3.4419Y-3.327
X3.4419Y-3.4254
X3.4419Y-3.5238
X3.4419Y-3.6223
X3.4419Y-3.7207
X3.4419Y-3.8191
X3.4419Y-3.9175
X3.4419Y-4.3112
X3.4419Y-4.4097
X3.4419Y-4.9018
X3.4419Y-5.1971
X3.4419Y-5.2955
X3.4419Y-5.886
X3.4419Y-6.0829
X3.4419Y-6.1813
X3.4754Y-4.7076
X3.5009Y-4.682
X3.5236Y-5.1142
X3.5315Y-4.6535
X3.5404Y-3.327
X3.5404Y-3.4254
X3.5404Y-3.5238
X3.5404Y-3.6223
X3.5404Y-3.7207
X3.5404Y-3.8191
X3.5404Y-3.9175
X3.5404Y-4.3112
X3.5404Y-4.4097
X3.5404Y-5.1971
X3.5404Y-5.9845
X3.5404Y-6.0829
X3.5404Y-6.1813
X3.5827Y-2.4291
X3.5827Y-2.4646
X3.5827Y-2.5
X3.5827Y-2.5394
X3.5827Y-2.5709
X3.5827Y-2.6063
X3.5827Y-2.6457
X3.5827Y-2.6811
X3.5827Y-2.7165
X3.5945Y-5.1575
X3.6024Y-2.3898
X3.6388Y-2.9333
X3.6388Y-3.0317
X3.6388Y-3.1301
X3.6388Y-3.2286
X3.6388Y-3.4254
X3.6388Y-3.5238
X3.6388Y-3.6223
X3.6388Y-3.7207
X3.6388Y-3.8191
X3.6388Y-3.9175
X3.6388Y-4.3112
X3.6388Y-4.4097
X3.6388Y-4.7049
X3.6388Y-5.2955
X3.6388Y-5.9845
X3.6388Y-6.0829
X3.6388Y-6.1813
X3.6496Y-2.4173
X3.6535Y-2.3661
X3.6614Y-5.1142
X3.7372Y-2.9333
X3.7372Y-3.0317
X3.7372Y-3.327
X3.7372Y-3.5238
X3.7372Y-3.6223
X3.7372Y-3.7207
X3.7372Y-3.8191
X3.7372Y-3.9175
X3.7372Y-4.3112
X3.7372Y-4.4097
X3.7372Y-5.9845
X3.7372Y-6.0829
X3.7372Y-6.1813
X3.752Y-5.2953
X3.7717Y-4.8937
X3.7756Y-4.8031
X3.7913Y-2.4055
X3.811Y-5.3307
X3.815Y-5.1299
X3.8307Y-5.1811
X3.8356Y-2.9333
X3.8356Y-3.0317
X3.8356Y-3.327
X3.8356Y-3.5238
X3.8356Y-3.6223
X3.8356Y-3.7207
X3.8356Y-3.8191
X3.8356Y-3.9175
X3.8356Y-4.3112
X3.8356Y-4.4097
X3.8356Y-5.4923
X3.8356Y-5.9845
X3.8356Y-6.0829
X3.8356Y-6.1813
X3.8425Y-4.9528
X3.8701Y-5.1339
X3.8819Y-4.8031
X3.8819Y-5.3701
X3.9341Y-2.9333
X3.9341Y-3.0317
X3.9341Y-3.1301
X3.9341Y-3.327
X3.9341Y-3.5238
X3.9341Y-3.6223
X3.9341Y-3.7207
X3.9341Y-3.8191
X3.9341Y-3.9175
X3.9341Y-4.3112
X3.9341Y-4.4097
X3.9341Y-5.4923
X3.9341Y-5.5908
X3.9341Y-5.9845
X3.9341Y-6.0829
X3.9341Y-6.1813
X3.9409Y-5.3976
X3.9961Y-2.3543
X3.9961Y-2.3858
X3.9961Y-2.4213
X3.9961Y-2.4606
X3.9961Y-2.4961
X3.9961Y-2.5315
X3.9961Y-2.5945
X3.9961Y-2.6339
X3.9961Y-2.6732
X3.9961Y-2.7165
X3.9961Y-5.3583
X3.9961Y-5.3937
X3.9961Y-5.4291
X3.9961Y-5.4685
X3.9961Y-5.5
X3.9961Y-5.5354
X3.9961Y-5.5748
X3.9961Y-5.6102
X3.9961Y-5.6457
X4.0Y-5.3228
X4.0157Y-5.1654
X4.0325Y-2.0475
X4.0325Y-3.0317
X4.0325Y-3.1301
X4.0325Y-3.327
X4.0325Y-3.6223
X4.0325Y-3.7207
X4.0325Y-3.8191
X4.0325Y-3.9175
X4.0325Y-4.3112
X4.0325Y-4.6065
X4.0325Y-4.8034
X4.0325Y-4.9018
X4.0325Y-5.0002
X4.0325Y-5.0986
X4.0325Y-5.9845
X4.0325Y-6.0829
X4.0325Y-6.1813
X4.0394Y-2.7402
X4.1309Y-2.0475
X4.1309Y-2.3427
X4.1309Y-2.4412
X4.1309Y-3.327
X4.1309Y-3.4254
X4.1309Y-3.7207
X4.1309Y-3.8191
X4.1309Y-4.3112
X4.1309Y-4.6065
X4.1309Y-5.0002
X4.1309Y-5.0986
X4.1309Y-6.0829
X4.1309Y-6.1813
X4.1575Y-3.1496
X4.1654Y-2.815
X4.1772Y-5.6417
X4.1811Y-2.6732
X4.1969Y-2.9961
X4.1969Y-3.0433
X4.2008Y-2.5787
X4.2047Y-2.6457
X4.2126Y-2.7205
X4.2205Y-2.815
X4.2283Y-2.3465
X4.2293Y-2.0475
X4.2293Y-2.4412
X4.2293Y-3.327
X4.2293Y-3.4254
X4.2293Y-3.5238
X4.2293Y-4.6065
X4.2293Y-4.7049
X4.2293Y-5.0002
X4.2293Y-5.0986
X4.2293Y-6.0829
X4.2293Y-6.1813
X4.2323Y-3.1457
X4.2598Y-4.2677
X4.2677Y-3.063
X4.2717Y-3.7835
X4.2992Y-3.752
X4.311Y-4.311
X4.3278Y-2.0475
X4.3278Y-2.5396
X4.3278Y-2.638
X4.3278Y-3.2286
X4.3278Y-3.327
X4.3278Y-3.4254
X4.3278Y-3.5238
X4.3278Y-3.6223
X4.3278Y-3.9175
X4.3278Y-4.6065
X4.3278Y-4.7049
X4.3278Y-4.8034
X4.3278Y-4.9018
X4.3278Y-5.0002
X4.3278Y-5.0986
X4.3278Y-6.0829
X4.3278Y-6.1813
X4.3307Y-2.3071
X4.3307Y-3.7244
X4.3386Y-3.8465
X4.374Y-3.8268
X4.375Y-2.8463
X4.3898Y-3.7874
X4.3937Y-4.3071
X4.4094Y-2.8228
X4.4213Y-5.3346
X4.4213Y-5.3701
X4.4213Y-5.4055
X4.4213Y-5.4449
X4.4213Y-5.4764
X4.4213Y-5.5118
X4.4213Y-5.5512
X4.4213Y-5.5866
X4.4213Y-5.622
X4.4262Y-2.0475
X4.4262Y-2.7364
X4.4262Y-3.6223
X4.4262Y-4.6065
X4.4262Y-4.7049
X4.4262Y-4.8034
X4.4262Y-4.9018
X4.4262Y-5.0002
X4.4262Y-5.0986
X4.4262Y-5.1971
X4.4262Y-5.9845
X4.4262Y-6.0829
X4.4262Y-6.1813
X4.4331Y-2.3071
X4.4409Y-4.2677
X4.4528Y-2.811
X4.4528Y-2.8937
X4.4724Y-3.5472
X4.4882Y-3.7008
X4.4882Y-5.5354
X4.5118Y-3.5866
X4.5197Y-4.0827
X4.5236Y-5.5669
X4.5246Y-2.0475
X4.5246Y-3.2286
X4.5246Y-3.327
X4.5246Y-3.4254
X4.5246Y-5.6892
X4.5246Y-5.9845
X4.5246Y-6.0829
X4.5246Y-6.1813
X4.5315Y-4.5197
X4.5315Y-4.626
X4.5354Y-2.3071
X4.5591Y-4.5197
X4.5591Y-4.626
X4.5787Y-3.9173
X4.5906Y-4.2372
X4.6042Y-4.3798
X4.6102Y-4.3425
X4.623Y-2.0475
X4.623Y-3.8191
X4.623Y-4.5081
X4.623Y-5.1971
X4.623Y-5.5908
X4.623Y-5.6892
X4.623Y-5.9845
X4.623Y-6.0829
X4.623Y-6.1813
X4.626Y-3.2362
X4.6299Y-3.1299
X4.6378Y-3.6102
X4.6535Y-3.1181
X4.6575Y-3.2362
X4.6614Y-3.6457
X4.6693Y-4.4409
X4.6772Y-3.5827
X4.686Y-4.5266
X4.686Y-4.627
X4.7037Y-3.3514
X4.7087Y-4.1654
X4.7116Y-4.5246
X4.7116Y-4.623
X4.7205Y-3.6378
X4.7215Y-2.0475
X4.7215Y-2.7364
X4.7215Y-2.8349
X4.7215Y-3.8191
X4.7215Y-5.2955
X4.7215Y-5.5908
X4.7215Y-5.6892
X4.7215Y-5.9845
X4.7215Y-6.0829
X4.7215Y-6.1813
X4.7244Y-3.5866
X4.7244Y-4.2323
X4.7283Y-3.4055
X4.7293Y-3.5226
X4.7638Y-3.689
X4.7756Y-3.2323
X4.7795Y-3.122
X4.8036Y-3.0984
X4.815Y-3.2362
X4.8199Y-2.0475
X4.8199Y-2.7364
X4.8199Y-2.8349
X4.8199Y-3.9175
X4.8199Y-4.5081
X4.8199Y-4.6065
X4.8199Y-4.7049
X4.8199Y-4.8034
X4.8199Y-4.9018
X4.8199Y-5.2955
X4.8199Y-5.3939
X4.8199Y-5.6892
X4.8199Y-5.9845
X4.8199Y-6.0829
X4.8199Y-6.1813
X4.8346Y-4.1693
X4.8346Y-4.248
X4.9183Y-2.0475
X4.9183Y-2.7364
X4.9183Y-2.8349
X4.9183Y-3.0317
X4.9183Y-3.1301
X4.9183Y-3.2286
X4.9183Y-3.4254
X4.9183Y-3.5238
X4.9183Y-3.6223
X4.9183Y-3.7207
X4.9183Y-3.8191
X4.9183Y-3.9175
X4.9183Y-4.016
X4.9183Y-4.4097
X4.9183Y-4.5081
X4.9183Y-4.6065
X4.9183Y-4.7049
X4.9183Y-4.8034
X4.9183Y-4.9018
X4.9183Y-5.0002
X4.9183Y-5.2955
X4.9183Y-5.3939
X4.9183Y-5.5908
X4.9183Y-5.9845
X4.9183Y-6.0829
X4.9183Y-6.1813
X4.9921Y-2.311
X5.0167Y-2.0475
X5.0167Y-2.7364
X5.0167Y-3.0317
X5.0167Y-3.1301
X5.0167Y-3.2286
X5.0167Y-3.4254
X5.0167Y-3.5238
X5.0167Y-3.6223
X5.0167Y-3.7207
X5.0167Y-3.8191
X5.0167Y-3.9175
X5.0167Y-4.016
X5.0167Y-4.1144
X5.0167Y-4.2128
X5.0167Y-4.3112
X5.0167Y-4.4097
X5.0167Y-4.5081
X5.0167Y-4.6065
X5.0167Y-4.7049
X5.0167Y-4.8034
X5.0167Y-4.9018
X5.0167Y-5.0002
X5.0167Y-5.2955
X5.0167Y-5.9845
X5.0167Y-6.0829
X5.0167Y-6.1813
X5.0748Y-2.3071
X5.1152Y-2.0475
X5.1152Y-3.0317
X5.1152Y-3.1301
X5.1152Y-3.2286
X5.1152Y-3.4254
X5.1152Y-3.5238
X5.1152Y-3.6223
X5.1152Y-3.7207
X5.1152Y-3.8191
X5.1152Y-3.9175
X5.1152Y-4.016
X5.1152Y-4.1144
X5.1152Y-4.2128
X5.1152Y-4.3112
X5.1152Y-4.4097
X5.1152Y-4.5081
X5.1152Y-4.6065
X5.1152Y-4.7049
X5.1152Y-4.8034
X5.1152Y-4.9018
X5.1152Y-5.0002
X5.1152Y-5.9845
X5.1152Y-6.0829
X5.1152Y-6.1813
X5.1417Y-2.5118
X5.1811Y-2.311
X5.2136Y-2.0475
X5.2136Y-3.0317
X5.2136Y-3.1301
X5.2136Y-3.4254
X5.2136Y-3.5238
X5.2136Y-3.6223
X5.2136Y-3.7207
X5.2136Y-3.8191
X5.2136Y-3.9175
X5.2136Y-4.016
X5.2136Y-4.1144
X5.2136Y-4.2128
X5.2136Y-4.3112
X5.2136Y-4.4097
X5.2136Y-4.5081
X5.2136Y-4.6065
X5.2136Y-4.7049
X5.2136Y-4.8034
X5.2136Y-4.9018
X5.2136Y-5.0002
X5.2136Y-5.2955
X5.2136Y-5.9845
X5.2136Y-6.0829
X5.2136Y-6.1813
X5.2756Y-2.315
X5.312Y-2.0475
X5.312Y-3.0317
X5.312Y-3.4254
X5.312Y-3.5238
X5.312Y-3.6223
X5.312Y-3.7207
X5.312Y-3.8191
X5.312Y-3.9175
X5.312Y-4.016
X5.312Y-4.1144
X5.312Y-4.2128
X5.312Y-4.3112
X5.312Y-4.4097
X5.312Y-4.5081
X5.312Y-4.6065
X5.312Y-4.7049
X5.312Y-4.8034
X5.312Y-4.9018
X5.312Y-5.0002
X5.312Y-5.9845
X5.312Y-6.0829
X5.312Y-6.1813
X5.3465Y-2.4882
X5.4104Y-2.0475
X5.4104Y-3.327
X5.4104Y-3.4254
X5.4104Y-3.5238
X5.4104Y-3.6223
X5.4104Y-3.7207
X5.4104Y-3.8191
X5.4104Y-3.9175
X5.4104Y-4.016
X5.4104Y-4.1144
X5.4104Y-4.2128
X5.4104Y-4.3112
X5.4104Y-4.4097
X5.4104Y-4.5081
X5.4104Y-4.6065
X5.4104Y-4.7049
X5.4104Y-4.8034
X5.4104Y-4.9018
X5.4104Y-5.0002
X5.4104Y-5.9845
X5.4104Y-6.0829
X5.4104Y-6.1813
X5.4331Y-2.3504
X5.4843Y-2.3504
X5.4843Y-2.4252
X5.4843Y-2.4606
X5.4961Y-2.3858
X5.5079Y-2.3268
X5.5089Y-2.0475
X5.5089Y-3.2286
X5.5089Y-3.327
X5.5089Y-3.4254
X5.5089Y-3.5238
X5.5089Y-3.6223
X5.5089Y-3.7207
X5.5089Y-3.8191
X5.5089Y-3.9175
X5.5089Y-4.016
X5.5089Y-4.1144
X5.5089Y-4.2128
X5.5089Y-4.3112
X5.5089Y-4.4097
X5.5089Y-4.5081
X5.5089Y-4.6065
X5.5089Y-4.7049
X5.5089Y-4.8034
X5.5089Y-4.9018
X5.5089Y-5.0002
X5.5089Y-5.0986
X5.5089Y-5.9845
X5.5089Y-6.0829
X5.5089Y-6.1813
X5.6073Y-2.0475
X5.6073Y-2.1459
X5.6073Y-2.4412
X5.6073Y-2.5396
X5.6073Y-2.638
X5.6073Y-3.1301
X5.6073Y-3.327
X5.6073Y-3.4254
X5.6073Y-3.5238
X5.6073Y-3.6223
X5.6073Y-3.7207
X5.6073Y-3.8191
X5.6073Y-3.9175
X5.6073Y-4.016
X5.6073Y-4.1144
X5.6073Y-4.2128
X5.6073Y-4.3112
X5.6073Y-4.4097
X5.6073Y-4.5081
X5.6073Y-4.6065
X5.6073Y-4.7049
X5.6073Y-4.8034
X5.6073Y-4.9018
X5.6073Y-5.1971
X5.6073Y-5.7876
X5.6073Y-5.886
X5.6073Y-6.0829
X5.6073Y-6.1813
X5.7057Y-2.0475
X5.7057Y-2.1459
X5.7057Y-2.4412
X5.7057Y-2.5396
X5.7057Y-2.638
X5.7057Y-2.7364
X5.7057Y-2.8349
X5.7057Y-2.9333
X5.7057Y-3.0317
X5.7057Y-3.4254
X5.7057Y-3.5238
X5.7057Y-3.6223
X5.7057Y-3.7207
X5.7057Y-3.8191
X5.7057Y-3.9175
X5.7057Y-4.016
X5.7057Y-4.1144
X5.7057Y-4.2128
X5.7057Y-4.3112
X5.7057Y-4.4097
X5.7057Y-4.5081
X5.7057Y-4.6065
X5.7057Y-4.7049
X5.7057Y-4.8034
X5.7057Y-4.9018
X5.7057Y-5.1971
X5.7057Y-5.2955
X5.7057Y-5.3939
X5.7057Y-5.4923
X5.7057Y-5.5908
X5.7057Y-5.6892
X5.7057Y-5.7876
X5.7057Y-6.1813
X5.8041Y-2.0475
X5.8041Y-2.1459
X5.8041Y-2.4412
X5.8041Y-2.5396
X5.8041Y-2.638
X5.8041Y-2.7364
X5.8041Y-2.8349
X5.8041Y-2.9333
X5.8041Y-3.0317
X5.8041Y-3.1301
X5.8041Y-3.327
X5.8041Y-3.4254
X5.8041Y-3.5238
X5.8041Y-3.6223
X5.8041Y-3.7207
X5.8041Y-3.8191
X5.8041Y-3.9175
X5.8041Y-4.016
X5.8041Y-4.1144
X5.8041Y-4.2128
X5.8041Y-4.3112
X5.8041Y-4.4097
X5.8041Y-4.5081
X5.8041Y-4.6065
X5.8041Y-4.7049
X5.8041Y-4.8034
X5.8041Y-4.9018
X5.8041Y-5.1971
X5.8041Y-5.2955
X5.8041Y-5.3939
X5.8041Y-5.4923
X5.8041Y-5.5908
X5.8041Y-5.6892
X5.8041Y-5.7876
X5.8041Y-5.886
X5.8041Y-6.0829
X5.8041Y-6.1813
X5.9026Y-2.0475
X5.9026Y-2.1459
X5.9026Y-2.2443
X5.9026Y-2.3427
X5.9026Y-2.4412
X5.9026Y-2.5396
X5.9026Y-2.638
X5.9026Y-2.7364
X5.9026Y-2.8349
X5.9026Y-2.9333
X5.9026Y-3.0317
X5.9026Y-3.1301
X5.9026Y-3.2286
X5.9026Y-3.327
X5.9026Y-3.4254
X5.9026Y-3.5238
X5.9026Y-3.6223
X5.9026Y-3.7207
X5.9026Y-3.8191
X5.9026Y-3.9175
X5.9026Y-4.016
X5.9026Y-4.1144
X5.9026Y-4.2128
X5.9026Y-4.3112
X5.9026Y-4.4097
X5.9026Y-4.5081
X5.9026Y-4.6065
X5.9026Y-4.7049
X5.9026Y-4.8034
X5.9026Y-4.9018
X5.9026Y-5.0002
X5.9026Y-5.0986
X5.9026Y-5.1971
X5.9026Y-5.2955
X5.9026Y-5.3939
X5.9026Y-5.4923
X5.9026Y-5.5908
X5.9026Y-5.6892
X5.9026Y-5.7876
X5.9026Y-5.886
X5.9026Y-5.9845
X5.9026Y-6.0829
X5.9026Y-6.1813
X6.001Y-2.0475
X6.001Y-2.1459
X6.001Y-2.2443
X6.001Y-2.3427
X6.001Y-2.4412
X6.001Y-2.5396
X6.001Y-2.638
X6.001Y-2.7364
X6.001Y-2.8349
X6.001Y-2.9333
X6.001Y-3.0317
X6.001Y-3.1301
X6.001Y-3.2286
X6.001Y-3.327
X6.001Y-3.4254
X6.001Y-3.5238
X6.001Y-3.6223
X6.001Y-3.7207
X6.001Y-3.8191
X6.001Y-3.9175
X6.001Y-4.016
X6.001Y-4.1144
X6.001Y-4.2128
X6.001Y-4.3112
X6.001Y-4.4097
X6.001Y-4.5081
X6.001Y-4.6065
X6.001Y-4.7049
X6.001Y-4.8034
X6.001Y-4.9018
X6.001Y-5.0002
X6.001Y-5.0986
X6.001Y-5.1971
X6.001Y-5.2955
X6.001Y-5.3939
X6.001Y-5.4923
X6.001Y-5.5908
X6.001Y-5.6892
X6.001Y-5.7876
X6.001Y-5.886
X6.001Y-5.9845
X6.001Y-6.0829
X6.001Y-6.1813
X6.0994Y-2.0475
X6.0994Y-2.1459
X6.0994Y-2.2443
X6.0994Y-2.3427
X6.0994Y-2.4412
X6.0994Y-2.5396
X6.0994Y-2.638
X6.0994Y-2.7364
X6.0994Y-2.8349
X6.0994Y-2.9333
X6.0994Y-3.0317
X6.0994Y-3.1301
X6.0994Y-3.2286
X6.0994Y-3.327
X6.0994Y-3.4254
X6.0994Y-3.5238
X6.0994Y-3.6223
X6.0994Y-3.7207
X6.0994Y-3.8191
X6.0994Y-3.9175
X6.0994Y-4.016
X6.0994Y-4.1144
X6.0994Y-4.2128
X6.0994Y-4.3112
X6.0994Y-4.4097
X6.0994Y-4.5081
X6.0994Y-4.6065
X6.0994Y-4.7049
X6.0994Y-4.8034
X6.0994Y-4.9018
X6.0994Y-5.0002
X6.0994Y-5.0986
X6.0994Y-5.1971
X6.0994Y-5.2955
X6.0994Y-5.3939
X6.0994Y-5.4923
X6.0994Y-5.5908
X6.0994Y-5.6892
X6.0994Y-5.7876
X6.0994Y-5.886
X6.0994Y-5.9845
X6.0994Y-6.0829
X6.0994Y-6.1813
X6.1978Y-2.0475
X6.1978Y-2.1459
X6.1978Y-2.2443
X6.1978Y-2.3427
X6.1978Y-2.4412
X6.1978Y-2.5396
X6.1978Y-2.638
X6.1978Y-2.7364
X6.1978Y-2.8349
X6.1978Y-2.9333
X6.1978Y-3.0317
X6.1978Y-3.1301
X6.1978Y-3.2286
X6.1978Y-3.327
X6.1978Y-3.4254
X6.1978Y-3.5238
X6.1978Y-3.6223
X6.1978Y-3.7207
X6.1978Y-3.8191
X6.1978Y-3.9175
X6.1978Y-4.016
X6.1978Y-4.1144
X6.1978Y-4.2128
X6.1978Y-4.3112
X6.1978Y-4.4097
X6.1978Y-4.5081
X6.1978Y-4.6065
X6.1978Y-4.7049
X6.1978Y-4.8034
X6.1978Y-4.9018
X6.1978Y-5.0002
X6.1978Y-5.0986
X6.1978Y-5.1971
X6.1978Y-5.2955
X6.1978Y-5.3939
X6.1978Y-5.4923
X6.1978Y-5.5908
X6.1978Y-5.6892
X6.1978Y-5.7876
X6.1978Y-5.886
X6.1978Y-5.9845
X6.1978Y-6.0829
X6.1978Y-6.1813
X6.2963Y-2.0475
X6.2963Y-2.1459
X6.2963Y-2.2443
X6.2963Y-2.3427
X6.2963Y-2.4412
X6.2963Y-2.5396
X6.2963Y-2.638
X6.2963Y-2.7364
X6.2963Y-2.8349
X6.2963Y-2.9333
X6.2963Y-3.0317
X6.2963Y-3.1301
X6.2963Y-3.2286
X6.2963Y-3.327
X6.2963Y-3.4254
X6.2963Y-3.5238
X6.2963Y-3.6223
X6.2963Y-3.7207
X6.2963Y-3.8191
X6.2963Y-3.9175
X6.2963Y-4.016
X6.2963Y-4.1144
X6.2963Y-4.2128
X6.2963Y-4.3112
X6.2963Y-4.4097
X6.2963Y-4.5081
X6.2963Y-4.6065
X6.2963Y-4.7049
X6.2963Y-4.8034
X6.2963Y-4.9018
X6.2963Y-5.0002
X6.2963Y-5.0986
X6.2963Y-5.1971
X6.2963Y-5.2955
X6.2963Y-5.3939
X6.2963Y-5.4923
X6.2963Y-5.5908
X6.2963Y-5.6892
X6.2963Y-5.7876
X6.2963Y-5.886
X6.2963Y-5.9845
X6.2963Y-6.0829
X6.2963Y-6.1813
X6.3947Y-2.0475
X6.3947Y-2.1459
X6.3947Y-2.2443
X6.3947Y-2.3427
X6.3947Y-2.4412
X6.3947Y-2.5396
X6.3947Y-2.638
X6.3947Y-2.7364
X6.3947Y-2.8349
X6.3947Y-2.9333
X6.3947Y-3.0317
X6.3947Y-3.1301
X6.3947Y-3.2286
X6.3947Y-3.327
X6.3947Y-3.4254
X6.3947Y-3.5238
X6.3947Y-3.6223
X6.3947Y-3.7207
X6.3947Y-3.8191
X6.3947Y-3.9175
X6.3947Y-4.016
X6.3947Y-4.1144
X6.3947Y-4.2128
X6.3947Y-4.3112
X6.3947Y-4.4097
X6.3947Y-4.5081
X6.3947Y-4.6065
X6.3947Y-4.7049
X6.3947Y-4.8034
X6.3947Y-4.9018
X6.3947Y-5.0002
X6.3947Y-5.0986
X6.3947Y-5.1971
X6.3947Y-5.2955
X6.3947Y-5.3939
X6.3947Y-5.4923
X6.3947Y-5.5908
X6.3947Y-5.6892
X6.3947Y-5.7876
X6.3947Y-5.886
X6.3947Y-5.9845
X6.3947Y-6.0829
X6.3947Y-6.1813
X6.4931Y-2.0475
X6.4931Y-2.1459
X6.4931Y-2.2443
X6.4931Y-2.3427
X6.4931Y-2.4412
X6.4931Y-2.5396
X6.4931Y-2.638
X6.4931Y-2.7364
X6.4931Y-2.8349
X6.4931Y-2.9333
X6.4931Y-3.0317
X6.4931Y-3.1301
X6.4931Y-3.2286
X6.4931Y-3.327
X6.4931Y-3.4254
X6.4931Y-3.5238
X6.4931Y-3.6223
X6.4931Y-3.7207
X6.4931Y-3.8191
X6.4931Y-3.9175
X6.4931Y-4.016
X6.4931Y-4.1144
X6.4931Y-4.2128
X6.4931Y-4.3112
X6.4931Y-4.4097
X6.4931Y-4.5081
X6.4931Y-4.6065
X6.4931Y-4.7049
X6.4931Y-4.8034
X6.4931Y-4.9018
X6.4931Y-5.0002
X6.4931Y-5.0986
X6.4931Y-5.1971
X6.4931Y-5.2955
X6.4931Y-5.3939
X6.4931Y-5.4923
X6.4931Y-5.5908
X6.4931Y-5.6892
X6.4931Y-5.7876
X6.4931Y-5.886
X6.4931Y-5.9845
X6.4931Y-6.0829
X6.4931Y-6.1813
X6.5915Y-2.0475
X6.5915Y-2.1459
X6.5915Y-2.2443
X6.5915Y-2.3427
X6.5915Y-2.4412
X6.5915Y-2.5396
X6.5915Y-2.638
X6.5915Y-2.7364
X6.5915Y-2.8349
X6.5915Y-2.9333
X6.5915Y-3.0317
X6.5915Y-3.1301
X6.5915Y-3.2286
X6.5915Y-3.327
X6.5915Y-3.4254
X6.5915Y-3.5238
X6.5915Y-3.6223
X6.5915Y-3.7207
X6.5915Y-3.8191
X6.5915Y-3.9175
X6.5915Y-4.016
X6.5915Y-4.1144
X6.5915Y-4.2128
X6.5915Y-4.3112
X6.5915Y-4.4097
X6.5915Y-4.5081
X6.5915Y-4.6065
X6.5915Y-4.7049
X6.5915Y-4.8034
X6.5915Y-4.9018
X6.5915Y-5.0002
X6.5915Y-5.0986
X6.5915Y-5.1971
X6.5915Y-5.2955
X6.5915Y-5.3939
X6.5915Y-5.4923
X6.5915Y-5.5908
X6.5915Y-5.6892
X6.5915Y-5.7876
X6.5915Y-5.886
X6.5915Y-5.9845
X6.5915Y-6.0829
X6.5915Y-6.1813
X6.69Y-2.0475
X6.69Y-2.1459
X6.69Y-2.2443
X6.69Y-2.3427
X6.69Y-2.4412
X6.69Y-2.5396
X6.69Y-2.638
X6.69Y-2.7364
X6.69Y-2.8349
X6.69Y-2.9333
X6.69Y-3.0317
X6.69Y-3.1301
X6.69Y-3.2286
X6.69Y-3.327
X6.69Y-3.4254
X6.69Y-3.5238
X6.69Y-3.6223
X6.69Y-3.7207
X6.69Y-3.8191
X6.69Y-3.9175
X6.69Y-4.016
X6.69Y-4.1144
X6.69Y-4.2128
X6.69Y-4.3112
X6.69Y-4.4097
X6.69Y-4.5081
X6.69Y-4.6065
X6.69Y-4.7049
X6.69Y-4.8034
X6.69Y-4.9018
X6.69Y-5.0002
X6.69Y-5.0986
X6.69Y-5.1971
X6.69Y-5.2955
X6.69Y-5.3939
X6.69Y-5.4923
X6.69Y-5.5908
X6.69Y-5.6892
X6.69Y-5.7876
X6.69Y-5.886
X6.69Y-5.9845
X6.69Y-6.0829
X6.69Y-6.1813
X6.7884Y-2.0475
X6.7884Y-2.1459
X6.7884Y-2.4412
X6.7884Y-2.5396
X6.7884Y-2.638
X6.7884Y-2.7364
X6.7884Y-2.8349
X6.7884Y-2.9333
X6.7884Y-3.0317
X6.7884Y-3.1301
X6.7884Y-3.327
X6.7884Y-3.4254
X6.7884Y-3.5238
X6.7884Y-3.6223
X6.7884Y-3.7207
X6.7884Y-3.8191
X6.7884Y-3.9175
X6.7884Y-4.016
X6.7884Y-4.1144
X6.7884Y-4.2128
X6.7884Y-4.3112
X6.7884Y-4.4097
X6.7884Y-4.5081
X6.7884Y-4.6065
X6.7884Y-4.7049
X6.7884Y-4.8034
X6.7884Y-4.9018
X6.7884Y-5.1971
X6.7884Y-5.2955
X6.7884Y-5.3939
X6.7884Y-5.4923
X6.7884Y-5.5908
X6.7884Y-5.6892
X6.7884Y-5.7876
X6.7884Y-5.886
X6.7884Y-6.0829
X6.7884Y-6.1813
X6.8868Y-2.0475
X6.8868Y-2.1459
X6.8868Y-2.4412
X6.8868Y-2.5396
X6.8868Y-2.638
X6.8868Y-2.7364
X6.8868Y-2.8349
X6.8868Y-2.9333
X6.8868Y-3.0317
X6.8868Y-3.4254
X6.8868Y-3.5238
X6.8868Y-3.6223
X6.8868Y-3.7207
X6.8868Y-3.8191
X6.8868Y-3.9175
X6.8868Y-4.016
X6.8868Y-4.1144
X6.8868Y-4.2128
X6.8868Y-4.3112
X6.8868Y-4.4097
X6.8868Y-4.5081
X6.8868Y-4.6065
X6.8868Y-4.7049
X6.8868Y-4.8034
X6.8868Y-4.9018
X6.8868Y-5.1971
X6.8868Y-5.2955
X6.8868Y-5.3939
X6.8868Y-5.4923
X6.8868Y-5.5908
X6.8868Y-5.6892
X6.8868Y-5.7876
X6.8868Y-6.1813
X6.9852Y-2.0475
X6.9852Y-2.1459
X6.9852Y-2.4412
X6.9852Y-2.5396
X6.9852Y-2.638
X6.9852Y-2.7364
X6.9852Y-2.8349
X6.9852Y-2.9333
X6.9852Y-3.0317
X6.9852Y-3.1301
X6.9852Y-3.327
X6.9852Y-3.4254
X6.9852Y-3.5238
X6.9852Y-3.6223
X6.9852Y-3.7207
X6.9852Y-3.8191
X6.9852Y-3.9175
X6.9852Y-4.016
X6.9852Y-4.1144
X6.9852Y-4.2128
X6.9852Y-4.3112
X6.9852Y-4.4097
X6.9852Y-4.5081
X6.9852Y-4.6065
X6.9852Y-4.7049
X6.9852Y-4.8034
X6.9852Y-4.9018
X6.9852Y-5.1971
X6.9852Y-5.2955
X6.9852Y-5.3939
X6.9852Y-5.4923
X6.9852Y-5.5908
X6.9852Y-5.6892
X6.9852Y-5.7876
X6.9852Y-5.886
X6.9852Y-6.0829
X6.9852Y-6.1813
X7.0837Y-2.0475
X7.0837Y-2.1459
X7.0837Y-2.2443
X7.0837Y-2.3427
X7.0837Y-2.4412
X7.0837Y-2.5396
X7.0837Y-2.638
X7.0837Y-2.7364
X7.0837Y-2.8349
X7.0837Y-2.9333
X7.0837Y-3.0317
X7.0837Y-3.1301
X7.0837Y-3.2286
X7.0837Y-3.327
X7.0837Y-3.4254
X7.0837Y-3.5238
X7.0837Y-3.6223
X7.0837Y-3.7207
X7.0837Y-3.8191
X7.0837Y-3.9175
X7.0837Y-4.016
X7.0837Y-4.1144
X7.0837Y-4.2128
X7.0837Y-4.3112
X7.0837Y-4.4097
X7.0837Y-4.5081
X7.0837Y-4.6065
X7.0837Y-4.7049
X7.0837Y-4.8034
X7.0837Y-4.9018
X7.0837Y-5.0002
X7.0837Y-5.0986
X7.0837Y-5.1971
X7.0837Y-5.2955
X7.0837Y-5.3939
X7.0837Y-5.4923
X7.0837Y-5.5908
X7.0837Y-5.6892
X7.0837Y-5.7876
X7.0837Y-5.886
X7.0837Y-5.9845
X7.0837Y-6.0829
X7.0837Y-6.1813
X7.1821Y-2.1459
X7.1821Y-2.2443
X7.1821Y-2.3427
X7.1821Y-2.7364
X7.1821Y-2.8349
X7.1821Y-2.9333
X7.1821Y-3.0317
X7.1821Y-3.1301
X7.1821Y-3.2286
X7.1821Y-3.327
X7.1821Y-3.4254
X7.1821Y-3.5238
X7.1821Y-3.6223
X7.1821Y-3.7207
X7.1821Y-3.8191
X7.1821Y-3.9175
X7.1821Y-4.016
X7.1821Y-4.1144
X7.1821Y-4.2128
X7.1821Y-4.3112
X7.1821Y-4.4097
X7.1821Y-4.5081
X7.1821Y-4.6065
X7.1821Y-4.7049
X7.1821Y-4.8034
X7.1821Y-4.9018
X7.1821Y-5.0002
X7.1821Y-5.0986
X7.1821Y-5.1971
X7.1821Y-5.2955
X7.1821Y-5.3939
X7.1821Y-5.4923
X7.1821Y-5.886
X7.1821Y-5.9845
X7.1821Y-6.0829
X7.2805Y-2.2443
X7.2805Y-2.3427
X7.2805Y-2.7364
X7.2805Y-2.8349
X7.2805Y-2.9333
X7.2805Y-3.0317
X7.2805Y-3.1301
X7.2805Y-3.2286
X7.2805Y-3.327
X7.2805Y-3.4254
X7.2805Y-3.5238
X7.2805Y-3.6223
X7.2805Y-3.7207
X7.2805Y-3.8191
X7.2805Y-3.9175
X7.2805Y-4.016
X7.2805Y-4.1144
X7.2805Y-4.2128
X7.2805Y-4.3112
X7.2805Y-4.4097
X7.2805Y-4.5081
X7.2805Y-4.6065
X7.2805Y-4.7049
X7.2805Y-4.8034
X7.2805Y-4.9018
X7.2805Y-5.0002
X7.2805Y-5.0986
X7.2805Y-5.1971
X7.2805Y-5.2955
X7.2805Y-5.3939
X7.2805Y-5.4923
X7.2805Y-5.886
X7.2805Y-5.9845
X7.3789Y-2.3427
X7.3789Y-2.7364
X7.3789Y-2.8349
X7.3789Y-2.9333
X7.3789Y-3.0317
X7.3789Y-3.1301
X7.3789Y-3.2286
X7.3789Y-3.327
X7.3789Y-3.4254
X7.3789Y-3.5238
X7.3789Y-3.6223
X7.3789Y-3.7207
X7.3789Y-3.8191
X7.3789Y-3.9175
X7.3789Y-4.016
X7.3789Y-4.1144
X7.3789Y-4.2128
X7.3789Y-4.3112
X7.3789Y-4.4097
X7.3789Y-4.5081
X7.3789Y-4.6065
X7.3789Y-4.7049
X7.3789Y-4.8034
X7.3789Y-4.9018
X7.3789Y-5.0002
X7.3789Y-5.0986
X7.3789Y-5.1971
X7.3789Y-5.2955
X7.3789Y-5.3939
X7.3789Y-5.4923
X7.3789Y-5.886
X7.4774Y-2.4412
X7.4774Y-2.5396
X7.4774Y-2.638
X7.4774Y-2.7364
X7.4774Y-2.8349
X7.4774Y-2.9333
X7.4774Y-3.0317
X7.4774Y-3.1301
X7.4774Y-3.2286
X7.4774Y-3.327
X7.4774Y-3.4254
X7.4774Y-3.5238
X7.4774Y-3.6223
X7.4774Y-3.7207
X7.4774Y-3.8191
X7.4774Y-3.9175
X7.4774Y-4.016
X7.4774Y-4.1144
X7.4774Y-4.2128
X7.4774Y-4.3112
X7.4774Y-4.4097
X7.4774Y-4.5081
X7.4774Y-4.6065
X7.4774Y-4.7049
X7.4774Y-4.8034
X7.4774Y-4.9018
X7.4774Y-5.0002
X7.4774Y-5.0986
X7.4774Y-5.1971
X7.4774Y-5.2955
X7.4774Y-5.3939
X7.4774Y-5.4923
X7.4774Y-5.5908
X7.4774Y-5.6892
X7.4774Y-5.7876
X7.5758Y-2.638
X7.5758Y-2.7364
X7.5758Y-2.8349
X7.5758Y-2.9333
X7.5758Y-3.0317
X7.5758Y-3.1301
X7.5758Y-3.2286
X7.5758Y-3.327
X7.5758Y-3.4254
X7.5758Y-3.5238
X7.5758Y-3.6223
X7.5758Y-3.7207
X7.5758Y-3.8191
X7.5758Y-3.9175
X7.5758Y-4.016
X7.5758Y-4.1144
X7.5758Y-4.2128
X7.5758Y-4.3112
X7.5758Y-4.4097
X7.5758Y-4.5081
X7.5758Y-4.6065
X7.5758Y-4.7049
X7.5758Y-4.8034
X7.5758Y-4.9018
X7.5758Y-5.0002
X7.5758Y-5.0986
X7.5758Y-5.1971
X7.5758Y-5.2955
X7.5758Y-5.3939
X7.5758Y-5.4923
X7.5758Y-5.5908
X7.5758Y-5.6892
X7.6742Y-2.7364
X7.6742Y-2.8349
X7.6742Y-2.9333
X7.6742Y-3.0317
X7.6742Y-3.1301
X7.6742Y-3.2286
X7.6742Y-3.6223
X7.6742Y-3.7207
X7.6742Y-3.8191
X7.6742Y-3.9175
X7.6742Y-4.016
X7.6742Y-4.1144
X7.6742Y-4.2128
X7.6742Y-4.3112
X7.6742Y-4.4097
X7.6742Y-4.5081
X7.6742Y-4.6065
X7.6742Y-4.7049
X7.6742Y-4.8034
X7.6742Y-5.0986
X7.6742Y-5.1971
X7.6742Y-5.2955
X7.6742Y-5.3939
X7.6742Y-5.4923
X7.7726Y-2.9333
X7.7726Y-3.0317
X7.7726Y-3.1301
X7.7726Y-3.2286
X7.7726Y-3.327
X7.7726Y-3.6223
X7.7726Y-3.7207
X7.7726Y-3.8191
X7.7726Y-3.9175
X7.7726Y-4.016
X7.7726Y-4.1144
X7.7726Y-4.2128
X7.7726Y-4.3112
X7.7726Y-4.4097
X7.7726Y-4.5081
X7.7726Y-4.6065
X7.7726Y-4.7049
X7.7726Y-4.8034
X7.7726Y-5.0986
X7.7726Y-5.1971
X7.7726Y-5.2955
X7.8711Y-3.1301
X7.8711Y-3.2286
X7.8711Y-3.327
X7.8711Y-3.4254
X7.8711Y-3.5238
X7.8711Y-3.6223
X7.8711Y-3.7207
X7.8711Y-3.8191
X7.8711Y-3.9175
X7.8711Y-4.016
X7.8711Y-4.1144
X7.8711Y-4.2128
X7.8711Y-4.3112
X7.8711Y-4.4097
X7.8711Y-4.5081
X7.8711Y-4.6065
X7.8711Y-4.7049
X7.8711Y-4.8034
X7.8711Y-4.9018
X7.8711Y-5.0002
X7.8711Y-5.0986
X7.9695Y-3.4254
X7.9695Y-3.5238
X7.9695Y-3.6223
X7.9695Y-3.7207
X7.9695Y-3.8191
X7.9695Y-3.9175
X7.9695Y-4.016
X7.9695Y-4.1144
X7.9695Y-4.2128
X7.9695Y-4.3112
X7.9695Y-4.4097
X7.9695Y-4.5081
X7.9695Y-4.6065
X7.9695Y-4.7049
X7.9695Y-4.8034
T3
X3.248Y-4.626
X3.252Y-4.5709
X3.2795Y-4.5984
X3.3071Y-4.5748
X3.315Y-4.6299
X3.5197Y-4.8898
X3.5512Y-4.8504
X3.5551Y-4.8898
X3.5551Y-4.9291
X3.5945Y-4.8898
X4.7008Y-4.2087
T6
X1.6227Y-3.6372
X1.6266Y-4.7487
X1.6934Y-3.5665
X1.6973Y-4.8194
X1.7641Y-3.4958
X1.768Y-4.8901
X1.8348Y-3.425
X1.8387Y-4.9608
X1.9055Y-3.3543
X1.9094Y-5.0315
X3.5827Y-2.1441
X3.5827Y-2.2441
X3.5827Y-5.8055
X3.5827Y-5.9055
X3.6827Y-2.1441
X3.6827Y-2.2441
X3.6827Y-5.8055
X3.6827Y-5.9055
X3.7827Y-2.1441
X3.7827Y-2.2441
X3.7827Y-5.8055
X3.7827Y-5.9055
X3.8827Y-2.1441
X3.8827Y-2.2441
X3.8827Y-5.8055
X3.8827Y-5.9055
X3.9827Y-2.1441
X3.9827Y-2.2441
X3.9827Y-5.8055
X3.9827Y-5.9055
X4.0827Y-2.1441
X4.0827Y-2.2441
X4.0827Y-5.8055
X4.0827Y-5.9055
X4.1827Y-2.1441
X4.1827Y-2.2441
X4.1827Y-5.8055
X4.1827Y-5.9055
X4.2827Y-2.1441
X4.2827Y-2.2441
X4.2827Y-5.8055
X4.2827Y-5.9055
X4.3827Y-2.1441
X4.3827Y-2.2441
X4.3827Y-5.8055
X4.3827Y-5.9055
X4.4827Y-2.1441
X4.4827Y-2.2441
X4.4827Y-5.8055
X4.4827Y-5.9055
X4.5827Y-2.1441
X4.5827Y-2.2441
X4.5827Y-5.8055
X4.5827Y-5.9055
X4.6827Y-2.1441
X4.6827Y-2.2441
X4.6827Y-5.8055
X4.6827Y-5.9055
X4.7827Y-2.1441
X4.7827Y-2.2441
X4.7827Y-5.8055
X4.7827Y-5.9055
X4.8827Y-2.1441
X4.8827Y-2.2441
X4.8827Y-5.8055
X4.8827Y-5.9055
X4.9827Y-2.1441
X4.9827Y-2.2441
X4.9827Y-5.8055
X4.9827Y-5.9055
X5.0827Y-2.1441
X5.0827Y-2.2441
X5.0827Y-5.8055
X5.0827Y-5.9055
X5.1827Y-2.1441
X5.1827Y-2.2441
X5.1827Y-5.8055
X5.1827Y-5.9055
X5.2827Y-2.1441
X5.2827Y-2.2441
X5.2827Y-5.8055
X5.2827Y-5.9055
X5.3827Y-2.1441
X5.3827Y-2.2441
X5.3827Y-5.8055
X5.3827Y-5.9055
X5.4827Y-2.1441
X5.4827Y-2.2441
X5.4827Y-5.8055
X5.4827Y-5.9055
T7
X4.4783Y-2.5945
X4.5925Y-5.4685
X4.6161Y-2.5945
X4.7224Y-2.9213
X4.7303Y-5.4685
X4.7402Y-5.1378
X4.7539Y-2.5945
X4.8602Y-2.9213
X4.8681Y-5.4685
X4.878Y-5.1378
X4.8917Y-2.5945
X4.998Y-2.9213
X5.0059Y-5.4685
X5.0157Y-5.1378
X5.0295Y-2.5945
X5.1358Y-2.9213
X5.1437Y-5.4685
X5.1535Y-5.1378
X5.1673Y-2.5945
X5.2736Y-2.9213
X5.2815Y-5.4685
X5.2913Y-5.1378
X5.4114Y-2.9213
X5.4291Y-5.1378
T8
X2.1224Y-4.335
X2.1224Y-4.6185
T9
X1.7717Y-2.5591
X1.7717Y-5.7087
X7.2835Y-2.5591
X7.2835Y-5.7087
T4
G00X2.3783Y-4.211
M15
G01X2.339Y-4.211
M16
G05
G00X2.3783Y-4.7425
M15
G01X2.339Y-4.7425
M16
G05
T5
G00X2.0795Y-3.9378
M15
G01X2.0795Y-3.7803
M16
G05
G00X2.2764Y-3.9378
M15
G01X2.2764Y-3.7803
M16
G05
T0
M30
